<svg width="327" height="252" viewBox="0 0 327 252" fill="none" xmlns="http://www.w3.org/2000/svg">
<path d="M273.394 140.961L263.739 199.879C263.668 200.31 263.447 200.701 263.113 200.984C262.78 201.266 262.358 201.421 261.921 201.42C261.663 201.419 261.407 201.364 261.172 201.259C260.936 201.153 260.725 200.999 260.553 200.807C260.381 200.614 260.251 200.388 260.172 200.142C260.093 199.896 260.067 199.636 260.096 199.379L266.869 138.594L273.394 140.961Z" fill="#263238"/>
<path d="M240.066 121.146L230.405 180.063C230.336 180.494 230.115 180.885 229.783 181.168C229.451 181.45 229.03 181.605 228.594 181.604C228.335 181.604 228.079 181.549 227.843 181.443C227.606 181.337 227.395 181.182 227.223 180.989C227.051 180.796 226.921 180.568 226.843 180.321C226.764 180.075 226.739 179.814 226.768 179.557L233.542 118.779L240.066 121.146Z" fill="#263238"/>
<path d="M288.212 127.184L297.742 177.953C297.806 178.309 297.993 178.631 298.271 178.862C298.549 179.094 298.9 179.219 299.262 179.217C299.484 179.216 299.704 179.167 299.906 179.074C300.108 178.981 300.288 178.846 300.434 178.678C300.579 178.509 300.687 178.312 300.749 178.098C300.812 177.884 300.827 177.66 300.796 177.44L293.758 130.383L288.212 127.184Z" fill="#263238"/>
<path d="M254.508 108.243L263.982 158.701C264.046 159.057 264.233 159.379 264.511 159.61C264.79 159.841 265.14 159.966 265.502 159.964C265.724 159.963 265.943 159.915 266.145 159.822C266.346 159.73 266.526 159.595 266.671 159.427C266.816 159.26 266.924 159.063 266.987 158.85C267.05 158.637 267.067 158.414 267.036 158.194L260.054 111.436L254.508 108.243Z" fill="#263238"/>
<path d="M257.257 104.398C259.442 103.431 261.331 101.902 262.732 99.9674C264.133 98.0324 264.995 95.7605 265.232 93.3833C266.766 77.9199 272.214 46.063 290.662 56.6681C313.44 69.7579 305.285 107.771 301.975 119.959C301.239 122.704 299.804 125.213 297.81 127.239C293.695 131.403 285.179 138.524 270.687 144.59C268.909 145.333 266.932 145.451 265.079 144.924C257.882 142.876 239.08 136.595 229.683 124.588C229.151 123.907 228.909 123.044 229.01 122.186C229.112 121.328 229.548 120.545 230.224 120.007C234.02 116.995 242.606 110.936 257.257 104.398Z" fill="#00F0FF"/>
<path opacity="0.5" d="M257.257 104.398C259.442 103.431 261.331 101.902 262.732 99.9674C264.133 98.0324 264.995 95.7605 265.232 93.3833C266.766 77.9199 272.214 46.063 290.662 56.6681C313.44 69.7579 305.285 107.771 301.975 119.959C301.239 122.704 299.804 125.213 297.81 127.239C293.695 131.403 285.179 138.524 270.687 144.59C268.909 145.333 266.932 145.451 265.079 144.924C257.882 142.876 239.08 136.595 229.683 124.588C229.151 123.907 228.909 123.044 229.01 122.186C229.112 121.328 229.548 120.545 230.224 120.007C234.02 116.995 242.606 110.936 257.257 104.398Z" fill="black"/>
<path d="M229.003 122.416C228.962 123.202 229.209 123.977 229.697 124.595C230.197 125.241 230.731 125.858 231.279 126.469C231.585 126.802 231.89 127.128 232.209 127.448C232.522 127.767 232.841 128.079 233.167 128.392L234.153 129.308C234.493 129.606 234.847 129.905 235.187 130.196C240.51 134.659 246.986 138.06 252.726 140.51L253.794 140.961L253.905 141.003L254.891 141.405L255.065 141.468L255.981 141.828L256.189 141.912L257.043 142.231L257.292 142.321L258.084 142.613L258.368 142.717L259.097 142.974L259.395 143.078L260.089 143.307L260.416 143.418L261.026 143.619L261.373 143.737L261.922 143.911L262.297 144.029L262.769 144.181L263.171 144.299L263.567 144.424L264.059 144.57L264.309 144.639C264.545 144.716 264.781 144.778 265.003 144.841C266.856 145.368 268.834 145.25 270.611 144.507C285.103 138.435 293.619 131.321 297.735 127.156C299.728 125.13 301.163 122.621 301.899 119.876C305.21 107.688 313.365 69.675 290.586 56.5852C290.183 56.3585 289.788 56.1503 289.399 55.9606L289.142 55.8356C288.754 55.6552 288.379 55.4886 288.004 55.3429L287.893 55.3012C287.539 55.1694 287.199 55.0514 286.838 54.9542L286.679 54.9056C286.304 54.8015 285.936 54.7182 285.575 54.6488H285.478C284.759 54.5203 284.028 54.4691 283.299 54.4961H283.257C282.553 54.5224 281.854 54.6295 281.175 54.8154C284.812 53.2121 289.253 53.2815 293.668 55.8148C316.446 68.9046 308.291 106.918 304.981 119.105L304.418 121.187C303.289 125.417 300.79 129.154 297.311 131.813L291.398 136.332C285.047 141.174 278.097 145.177 270.722 148.241C268.94 148.993 266.955 149.115 265.094 148.589C257.903 146.541 239.088 140.26 229.697 128.253C229.291 127.742 229.05 127.12 229.003 126.469V122.409V122.416Z" fill="#00F0FF"/>
<path opacity="0.6" d="M229.003 122.416C228.962 123.202 229.209 123.977 229.697 124.595C230.197 125.241 230.731 125.858 231.279 126.469C231.585 126.802 231.89 127.128 232.209 127.448C232.522 127.767 232.841 128.079 233.167 128.392L234.153 129.308C234.493 129.606 234.847 129.905 235.187 130.196C240.51 134.659 246.986 138.06 252.726 140.51L253.794 140.961L253.905 141.003L254.891 141.405L255.065 141.468L255.981 141.828L256.189 141.912L257.043 142.231L257.292 142.321L258.084 142.613L258.368 142.717L259.097 142.974L259.395 143.078L260.089 143.307L260.416 143.418L261.026 143.619L261.373 143.737L261.922 143.911L262.297 144.029L262.769 144.181L263.171 144.299L263.567 144.424L264.059 144.57L264.309 144.639C264.545 144.716 264.781 144.778 265.003 144.841C266.856 145.368 268.834 145.25 270.611 144.507C285.103 138.435 293.619 131.321 297.735 127.156C299.728 125.13 301.163 122.621 301.899 119.876C305.21 107.688 313.365 69.675 290.586 56.5852C290.183 56.3585 289.788 56.1503 289.399 55.9606L289.142 55.8356C288.754 55.6552 288.379 55.4886 288.004 55.3429L287.893 55.3012C287.539 55.1694 287.199 55.0514 286.838 54.9542L286.679 54.9056C286.304 54.8015 285.936 54.7182 285.575 54.6488H285.478C284.759 54.5203 284.028 54.4691 283.299 54.4961H283.257C282.553 54.5224 281.854 54.6295 281.175 54.8154C284.812 53.2121 289.253 53.2815 293.668 55.8148C316.446 68.9046 308.291 106.918 304.981 119.105L304.418 121.187C303.289 125.417 300.79 129.154 297.311 131.813L291.398 136.332C285.047 141.174 278.097 145.177 270.722 148.241C268.94 148.993 266.955 149.115 265.094 148.589C257.903 146.541 239.088 140.26 229.697 128.253C229.291 127.742 229.05 127.12 229.003 126.469V122.409V122.416Z" fill="black"/>
<path d="M216.441 165.912C217.995 155.994 219.987 140.142 221.126 130.772C221.2 130.157 221.304 129.546 221.438 128.94C222.037 126.354 223.16 123.918 224.737 121.782C226.313 119.647 228.311 117.857 230.606 116.523L253.968 102.642L269.827 94.3135C269.827 94.3135 274.047 106.543 269.133 114.025C265.052 120.271 247.034 127.961 241.676 130.564C236.318 133.166 236.207 133.867 236.318 137.345C236.429 140.822 236.436 145.25 229.857 159.117C227.962 163.101 226.643 166.057 225.727 168.369C222.443 168.623 219.17 167.757 216.441 165.912Z" fill="#00F0FF"/>
<path opacity="0.7" d="M216.441 165.912C217.995 155.994 219.987 140.142 221.126 130.772C221.237 129.851 221.413 128.94 221.653 128.044C223.019 123.198 226.218 119.074 230.572 116.544L253.968 102.614L269.827 94.2856C269.827 94.2856 274.047 106.515 269.133 113.997C265.052 120.243 247.034 127.933 241.676 130.536C236.318 133.139 236.207 133.84 236.318 137.317C236.429 140.794 236.436 145.222 229.857 159.089C227.962 163.073 226.643 166.03 225.727 168.341C222.446 168.603 219.173 167.747 216.441 165.912Z" fill="black"/>
<path d="M223.665 176.413C223.675 176.824 223.577 177.231 223.38 177.593C222.449 179.166 221.262 180.573 219.869 181.757C216.718 184.596 206.286 195.707 202.621 188.808C202.621 188.808 213.4 178.488 214.823 174.233C215.528 171.492 216.068 168.711 216.44 165.905C219.178 167.738 222.456 168.589 225.74 168.32C223.721 173.352 223.63 174.983 223.665 176.413Z" fill="#FFA8A7"/>
<path d="M212.421 175.733L212.72 174.837C212.84 174.508 213.079 174.237 213.391 174.078C213.702 173.918 214.062 173.882 214.399 173.977L218.765 175.323C219.039 175.408 219.278 175.578 219.448 175.809C219.618 176.041 219.71 176.32 219.709 176.607V177.044C219.71 177.251 219.794 177.449 219.941 177.594C220.088 177.74 220.286 177.822 220.493 177.822C221.417 177.822 222.313 177.501 223.026 176.912L223.637 176.413V174.886C224.031 175.143 224.35 175.498 224.563 175.917C224.776 176.336 224.876 176.804 224.852 177.273C224.796 178.307 224.747 179.571 224.789 180.05C224.859 180.966 225.712 184.783 224.692 185.914C223.672 187.046 221.381 187.177 218.55 186.872C215.718 186.567 212.622 189.35 209.999 190.384C207.375 191.418 196.507 193.639 196.534 186.692C196.534 184.922 198.29 184.2 200.005 183.575C201.719 182.951 207.924 180.764 209.513 179.453C210.152 178.921 210.744 178.336 211.283 177.704C211.789 177.128 212.176 176.458 212.421 175.733Z" fill="#455A64"/>
<path d="M210.028 190.405C212.651 189.371 215.747 186.588 218.578 186.893C221.41 187.198 223.7 187.067 224.721 185.935C225.048 185.465 225.218 184.904 225.207 184.332C225.255 185.401 225.172 186.414 224.721 186.928C223.7 188.059 221.41 188.191 218.578 187.886C215.747 187.58 212.651 190.37 210.028 191.397C207.404 192.425 196.535 194.653 196.563 187.705C196.57 187.605 196.584 187.505 196.605 187.407C197.285 193.48 207.494 191.397 210.028 190.405Z" fill="#263238"/>
<path d="M237.659 177.946C239.22 168.035 241.205 152.183 242.35 142.807C242.949 137.88 245.382 133.359 249.166 130.147L277.199 106.313L292.183 106.029C292.183 106.029 295.272 118.522 290.372 125.997C286.284 132.243 268.273 139.94 262.915 142.536C257.557 145.132 257.446 145.846 257.557 149.317C257.668 152.787 257.675 157.222 251.088 171.089C249.201 175.08 247.882 178.03 246.966 180.341C243.682 180.614 240.402 179.771 237.659 177.946Z" fill="#00F0FF"/>
<path opacity="0.7" d="M237.659 177.946C239.22 168.035 241.205 152.183 242.35 142.807C242.949 137.88 245.382 133.359 249.166 130.147L277.199 106.313L292.183 106.029C292.183 106.029 295.272 118.522 290.372 125.997C286.284 132.243 268.273 139.94 262.915 142.536C257.557 145.132 257.446 145.846 257.557 149.317C257.668 152.787 257.675 157.222 251.088 171.089C249.201 175.08 247.882 178.03 246.966 180.341C243.682 180.614 240.402 179.771 237.659 177.946Z" fill="black"/>
<path d="M244.897 187.552C244.897 187.969 245.181 189.197 244.605 189.634C243.869 190.183 243.168 191.939 241.086 193.799C237.942 196.637 234.618 190.523 236.047 186.282C236.749 183.54 237.286 180.759 237.658 177.954C240.399 179.785 243.679 180.636 246.965 180.369C244.938 185.38 244.855 186.13 244.897 187.552Z" fill="#FFA8A7"/>
<path d="M263.421 54.3363C261.276 53.9957 259.081 54.4266 257.224 55.5526C255.367 56.6785 253.97 58.4265 253.281 60.4855C252.291 63.4589 251.655 66.5386 251.386 69.6609C250.574 79.2735 250.352 84.0763 250.352 84.0763L240.698 88.4558C240.698 88.4558 245.91 88.7056 245.556 96.0903L257.584 93.0573L263.421 54.3363Z" fill="#FFA8A7"/>
<path d="M249.998 78.267C251.421 67.8562 251.983 62.4079 253.204 59.8261C254.043 57.8961 255.507 56.3047 257.36 55.3087C259.214 54.3127 261.349 53.9701 263.421 54.3361L259.784 82.931L259.319 82.8894C256.098 82.5717 253.065 81.2288 250.664 79.0582L249.998 78.267Z" fill="#00F0FF"/>
<path opacity="0.2" d="M249.998 78.267C251.421 67.8562 251.983 62.4079 253.204 59.8261C254.043 57.8961 255.507 56.3047 257.36 55.3087C259.214 54.3127 261.349 53.9701 263.421 54.3361L259.784 82.931L259.319 82.8894C256.098 82.5717 253.065 81.2288 250.664 79.0582L249.998 78.267Z" fill="black"/>
<path d="M250.352 84.0763C251.436 84.4097 252.418 85.0141 253.204 85.8323C253.204 85.8323 252.038 83.6183 250.428 82.9312L250.352 84.0763Z" fill="#F28F8F"/>
<path d="M286.616 62.7691L275.817 57.536L266.919 54.4613C266.919 54.4613 259.784 52.1918 257.966 61.6933C256.46 69.5014 256.265 99.172 256.265 99.172L256.425 102.413C256.425 102.413 260.541 113.948 275.247 114.906C289.954 115.864 292.821 109.659 292.821 109.659C292.821 109.659 294.32 70.3967 286.616 62.7691Z" fill="#00F0FF"/>
<path d="M252.587 31.0713C252.587 31.0713 249.249 39.6289 253.857 43.3976C258.466 47.1663 256.842 31.9944 256.842 31.9944L252.587 31.0713Z" fill="#263238"/>
<path d="M223.659 79.9951L326.246 139.225V152.058V214.419C326.241 214.666 326.165 214.907 326.028 215.112C325.89 215.318 325.696 215.479 325.469 215.578C324.882 215.878 324.233 216.034 323.574 216.034C322.915 216.034 322.266 215.878 321.679 215.578C321.454 215.478 321.261 215.316 321.124 215.111C320.988 214.906 320.913 214.665 320.909 214.419V155.147L265.288 187.233V250.204C265.281 250.45 265.205 250.689 265.067 250.894C264.93 251.098 264.736 251.258 264.51 251.356C263.924 251.656 263.274 251.812 262.616 251.812C261.957 251.812 261.307 251.656 260.721 251.356C260.495 251.258 260.302 251.098 260.164 250.894C260.026 250.689 259.95 250.45 259.943 250.204V187.233L165.393 132.646V192.334C165.385 192.581 165.306 192.82 165.166 193.023C165.026 193.226 164.83 193.385 164.602 193.479C164.015 193.779 163.366 193.935 162.707 193.935C162.048 193.935 161.399 193.779 160.812 193.479C160.586 193.382 160.392 193.222 160.254 193.017C160.116 192.813 160.04 192.574 160.035 192.327V116.738L223.659 79.9951Z" fill="#455A64"/>
<path d="M260.72 251.37C261.307 251.67 261.956 251.826 262.615 251.826C263.274 251.826 263.923 251.67 264.51 251.37C265.558 250.766 265.558 249.787 264.51 249.184C263.923 248.884 263.274 248.728 262.615 248.728C261.956 248.728 261.307 248.884 260.72 249.184C259.672 249.787 259.672 250.766 260.72 251.37Z" fill="#455A64"/>
<path d="M259.93 185.699H265.288V250.218H259.93V185.699Z" fill="#37474F"/>
<path d="M323.56 216.036C322.081 216.036 320.881 215.343 320.881 214.488C320.881 213.633 322.081 212.94 323.56 212.94C325.04 212.94 326.239 213.633 326.239 214.488C326.239 215.343 325.04 216.036 323.56 216.036Z" fill="#455A64"/>
<path d="M320.881 149.914H326.239V214.432H320.881V149.914Z" fill="#263238"/>
<path d="M160.812 193.48C161.399 193.779 162.048 193.936 162.707 193.936C163.366 193.936 164.015 193.779 164.602 193.48C165.65 192.876 165.65 191.897 164.602 191.293C164.015 190.994 163.366 190.837 162.707 190.837C162.048 190.837 161.399 190.994 160.812 191.293C159.764 191.904 159.764 192.883 160.812 193.48Z" fill="#455A64"/>
<path d="M160.022 127.815H165.38V192.334H160.022V127.815Z" fill="#37474F"/>
<path d="M226.303 144.66C226.83 144.927 227.412 145.066 228.003 145.066C228.594 145.066 229.176 144.927 229.704 144.66C230.64 144.119 230.64 143.272 229.704 142.703C229.177 142.433 228.595 142.292 228.003 142.292C227.412 142.292 226.829 142.433 226.303 142.703C225.393 143.244 225.393 144.119 226.303 144.66Z" fill="#455A64"/>
<path d="M225.622 89.7881H230.432V143.632H225.622V89.7881Z" fill="#455A64"/>
<path d="M326.246 139.226V152.059L262.609 188.802V175.962L326.246 139.226Z" fill="#263238"/>
<path d="M160.022 116.738L262.609 175.962V188.802L160.022 129.571V116.738Z" fill="#37474F"/>
<path d="M223.659 79.9951L326.246 139.225L262.609 175.961L160.021 116.738L223.659 79.9951Z" fill="#455A64"/>
<path d="M275.122 119.966L251.788 133.437L212.998 110.999L236.325 97.2563L275.122 119.966Z" fill="#EBEBEB"/>
<path d="M254.301 116.128L245.549 111.075L251.032 107.91L259.784 112.963L254.301 116.128Z" fill="#E0E0E0"/>
<path d="M250.795 130.071L262.587 123.131L239.544 109.18L250.795 130.071Z" fill="#E0E0E0"/>
<path d="M244.196 86.79L234.861 91.1695C232.072 91.8731 229.322 92.7234 226.623 93.7167C226.623 93.7167 220.126 96.3679 219.828 98.11C219.529 99.8521 224.686 104.051 229.246 102.011C230.438 101.372 231.714 100.905 233.036 100.622C234.25 100.491 237.894 99.9284 240.497 97.4229L251.386 94.5912C251.386 94.5912 251.928 87.8728 244.196 86.79Z" fill="#FFA8A7"/>
<path d="M238.151 99.7826C237.075 100.942 233.986 103.864 233.292 104.71C232.598 105.557 231.03 103.385 233.813 100.143C236.222 99.2612 238.488 98.0288 240.538 96.4858C239.828 97.6442 239.03 98.7463 238.151 99.7826Z" fill="#FFA8A7"/>
<path d="M264.739 44.1265H275.816V57.5355H264.739V44.1265Z" fill="#FFA8A7"/>
<path d="M264.733 57.5355C266.992 56.6922 269.057 55.3994 270.802 53.7352C272.547 52.0711 273.937 50.0701 274.887 47.8535V44.1265H264.705L264.733 57.5355Z" fill="#F28F8F"/>
<path d="M261.006 26.4212C261.006 26.4212 250.928 27.6358 253.239 44.8552C254.308 52.816 256.439 56.8415 262.574 56.1613C269.515 55.384 279.141 49.9842 277.649 36.3392C276.157 22.6942 261.006 26.4212 261.006 26.4212Z" fill="#FFA8A7"/>
<path d="M260.444 41.7739L260.805 47.7219L257.258 46.8683L260.444 41.7739Z" fill="#F28F8F"/>
<path d="M265.717 41.2395C265.732 41.4794 265.675 41.7182 265.554 41.9258C265.433 42.1334 265.253 42.3004 265.037 42.4056C264.821 42.5109 264.579 42.5497 264.34 42.5171C264.102 42.4845 263.879 42.382 263.699 42.2226C263.52 42.0632 263.391 41.854 263.33 41.6215C263.269 41.389 263.279 41.1437 263.357 40.9165C263.436 40.6894 263.58 40.4907 263.772 40.3456C263.963 40.2005 264.194 40.1154 264.433 40.1012C264.755 40.0823 265.07 40.1914 265.311 40.4048C265.552 40.6182 265.698 40.9184 265.717 41.2395Z" fill="#263238"/>
<path d="M257.702 40.8854C257.716 41.125 257.66 41.3635 257.539 41.5709C257.418 41.7782 257.238 41.9451 257.023 42.0505C256.807 42.1559 256.565 42.195 256.327 42.1629C256.089 42.1308 255.866 42.029 255.686 41.8702C255.506 41.7115 255.377 41.503 255.316 41.271C255.254 41.039 255.263 40.794 255.34 40.5669C255.418 40.3397 255.561 40.1406 255.751 39.9947C255.942 39.8488 256.171 39.7627 256.411 39.7472C256.57 39.7368 256.731 39.7581 256.882 39.8098C257.033 39.8614 257.173 39.9424 257.293 40.0482C257.413 40.1539 257.511 40.2823 257.581 40.426C257.651 40.5697 257.692 40.7258 257.702 40.8854Z" fill="#263238"/>
<path d="M254.856 38.5259L257.14 36.9712C257.14 36.9712 256.175 36.0828 255.3 36.7075C255.052 36.9306 254.877 37.2236 254.797 37.548C254.718 37.8725 254.739 38.2133 254.856 38.5259Z" fill="#263238"/>
<path d="M264.878 38.2552L267.342 39.4906C267.342 39.4906 267.647 38.2135 266.682 37.7624C266.367 37.6525 266.026 37.6408 265.704 37.7288C265.382 37.8167 265.094 38.0003 264.878 38.2552Z" fill="#263238"/>
<path d="M260.63 50.137C262.017 50.1506 263.369 49.6984 264.468 48.853C264.468 48.853 264.857 50.8935 263.164 51.3863C261.47 51.8791 260.63 50.137 260.63 50.137Z" fill="#F28F8F"/>
<path d="M275.935 41.6351C275.935 41.6351 274.387 44.8625 273.429 44.7514C272.471 44.6404 273.429 32.3904 271.444 32.314C269.459 32.2377 260.09 36.8878 251.81 30.8843C248.624 28.58 247.992 22.6945 249.901 23.2497C251.81 23.805 254.384 25.4776 257.862 25.2417C261.339 25.0057 273.512 19.3561 276.532 27.3238C276.532 27.3238 283.264 26.7755 280.738 40.1429C280.106 43.4674 278.121 51.6989 275.817 52.5109L275.935 41.6351Z" fill="#263238"/>
<path d="M275.386 44.5779C275.348 43.5684 275.535 42.5631 275.935 41.6351C276.135 41.0638 276.496 40.5628 276.975 40.1931C277.455 39.8235 278.031 39.6011 278.635 39.553C281.744 39.4697 282.167 42.468 282.105 43.5299C281.994 46.3061 279.724 49.3599 275.504 49.4779L275.386 44.5779Z" fill="#FFA8A7"/>
<path d="M274.428 104.579L266.488 110.888C265.13 111.016 263.784 111.248 262.462 111.582C260.942 112.033 256.958 113.497 255.903 113.726C254.848 113.955 256.209 115.809 258.971 115.114C258.971 115.114 253.183 119.078 253.259 120.84C253.335 122.603 259.276 125.615 263.288 122.659C264.322 121.795 265.468 121.076 266.696 120.521C267.862 120.139 271.283 118.814 273.317 115.815L280.258 112.199C280.258 112.199 282.215 104.003 274.428 104.579Z" fill="#FFA8A7"/>
<path d="M283.089 61.0615C283.089 61.0615 278.46 64.6498 281.306 75.8031C284.151 86.9565 285.671 96.5691 285.671 96.5691L274.428 104.578C275.967 105.252 277.309 106.307 278.329 107.642C279.349 108.978 280.013 110.551 280.258 112.213C280.258 112.213 297.984 105.273 298.345 100.768C298.705 96.2637 294.645 76.9275 294.028 73.367C293.41 69.8066 290.259 62.7481 283.089 61.0615Z" fill="#FFA8A7"/>
<path d="M285.672 96.5694C287.074 96.2945 288.517 96.3087 289.913 96.611C288.582 95.8886 287.089 95.5183 285.575 95.5352L285.672 96.5694Z" fill="#F28F8F"/>
<path d="M207.563 85.298L211.624 111.845C211.618 111.861 211.618 111.878 211.624 111.894L251.983 135.263C251.993 135.268 252.004 135.27 252.015 135.269C252.026 135.268 252.037 135.265 252.046 135.258C252.056 135.252 252.063 135.243 252.068 135.233C252.072 135.223 252.074 135.211 252.073 135.2L248.138 109.451C248.054 108.902 247.852 108.378 247.545 107.915C247.238 107.453 246.834 107.062 246.361 106.772L209.396 84.1042C209.202 83.977 208.975 83.909 208.743 83.9087C208.511 83.9083 208.284 83.9756 208.089 84.1022C207.895 84.2289 207.742 84.4094 207.648 84.6218C207.555 84.8341 207.525 85.0691 207.563 85.298Z" fill="#FAFAFA"/>
<path d="M251.982 135.262L273.498 122.769C273.994 122.481 274.405 122.068 274.692 121.571C274.978 121.074 275.129 120.511 275.129 119.938L251.795 133.409L251.982 135.262Z" fill="#E0E0E0"/>
<path d="M230.905 110.887C230.905 112.789 229.573 113.552 227.935 112.608C227.068 112.045 226.347 111.284 225.83 110.39C225.313 109.495 225.014 108.491 224.957 107.459C224.957 105.557 226.29 104.793 227.935 105.737C228.799 106.303 229.518 107.063 230.034 107.958C230.55 108.853 230.849 109.856 230.905 110.887Z" fill="#E0E0E0"/>
<path d="M275.463 31.2176C275.463 31.2176 277.295 28.5108 276.157 27.6363C275.018 26.7618 274.192 29.5449 275.463 31.2176Z" fill="#263238"/>
<path d="M275.157 31.7658C275.157 31.7658 278.391 31.3632 278.315 29.9474C278.239 28.5315 275.581 29.7253 275.157 31.7658Z" fill="#263238"/>
<path d="M275.816 57.5361C275.816 57.5361 273.436 63.7826 267.953 63.0052C262.47 62.2279 264.732 57.5361 264.732 57.5361H275.816Z" fill="#FFA8A7"/>
<path d="M283.089 61.0615C283.089 61.0615 279.48 62.7897 280.036 70.0495C280.591 77.3092 283.457 91.9398 283.457 91.9398C283.457 91.9398 296.374 97.173 297.609 89.7952C297.921 87.8866 294.666 70.2369 291.883 66.5029C290.861 65.0485 289.555 63.8164 288.044 62.8812C286.532 61.9459 284.847 61.3269 283.089 61.0615Z" fill="#00F0FF"/>
<path opacity="0.2" d="M283.089 61.0615C283.089 61.0615 279.48 62.7897 280.036 70.0495C280.591 77.3092 283.457 91.9398 283.457 91.9398C283.457 91.9398 296.374 97.173 297.609 89.7952C297.921 87.8866 294.666 70.2369 291.883 66.5029C290.861 65.0485 289.555 63.8164 288.044 62.8812C286.532 61.9459 284.847 61.3269 283.089 61.0615Z" fill="black"/>
<path d="M244.606 187.927C244.121 188.661 243.378 189.186 242.523 189.398C241.739 189.523 243.322 187.489 241.434 186.671C239.546 185.852 235.222 184.734 234.833 186.358L234.354 188.385C233.903 190.301 232.988 192.076 231.689 193.555C230.429 195.081 228.994 196.453 227.414 197.643C224.943 199.233 220.883 203.085 226.095 206.368C231.308 209.651 237.707 206.874 238.963 203.147C240.219 199.42 241.545 198.337 242.211 197.72C243.615 196.735 244.616 195.275 245.029 193.611C245.367 191.962 245.599 190.293 245.723 188.614C245.749 188.275 245.683 187.935 245.531 187.631C245.38 187.327 245.149 187.069 244.862 186.886L244.606 187.927Z" fill="#455A64"/>
<path d="M226.068 206.354C231.28 209.63 237.679 206.861 238.935 203.134C240.192 199.407 241.517 198.324 242.183 197.706C243.36 196.855 244.264 195.681 244.786 194.326C244.786 194.423 244.786 194.534 244.786 194.632C244.585 197.859 242.607 198.615 241.941 199.24C241.274 199.865 240.178 200.878 238.921 204.612C237.665 208.346 231.058 210.664 225.852 207.388C223.319 205.799 222.979 204.071 223.576 202.53C223.451 203.786 224.09 205.112 226.068 206.354Z" fill="#263238"/>
<path d="M251.108 156.806L267.71 166.411L288.67 154.307L272.013 144.702C271.794 144.579 271.548 144.514 271.298 144.514C271.047 144.514 270.801 144.579 270.583 144.702L251.087 155.959C251.015 156.004 250.956 156.068 250.915 156.143C250.875 156.218 250.855 156.303 250.857 156.388C250.859 156.474 250.883 156.557 250.927 156.63C250.971 156.703 251.033 156.764 251.108 156.806Z" fill="#00F0FF"/>
<path opacity="0.7" d="M251.108 156.806L267.71 166.411L288.67 154.307L272.013 144.702C271.794 144.579 271.548 144.514 271.298 144.514C271.047 144.514 270.801 144.579 270.583 144.702L251.087 155.959C251.015 156.004 250.956 156.068 250.915 156.143C250.875 156.218 250.855 156.303 250.857 156.388C250.859 156.474 250.883 156.557 250.927 156.63C250.971 156.703 251.033 156.764 251.108 156.806Z" fill="black"/>
<path d="M252.26 156.459L267.71 165.377L287.22 154.12L271.735 145.181C271.535 145.061 271.306 144.999 271.073 144.999C270.839 144.999 270.61 145.061 270.41 145.181L252.26 155.654C252.19 155.695 252.131 155.753 252.09 155.824C252.05 155.895 252.028 155.975 252.028 156.056C252.028 156.138 252.05 156.218 252.09 156.289C252.131 156.359 252.19 156.418 252.26 156.459Z" fill="white"/>
<path d="M267.71 165.377V163.635L252.024 154.585V156.063L267.71 165.377Z" fill="white"/>
<path d="M267.71 165.377V163.635L287.22 152.378V154.12L267.71 165.377Z" fill="#E0E0E0"/>
<path d="M251.108 154.051L267.71 163.635L288.67 151.538L272.013 141.932C271.794 141.81 271.548 141.745 271.298 141.745C271.047 141.745 270.801 141.81 270.583 141.932L251.108 153.225C251.039 153.269 250.983 153.331 250.944 153.403C250.904 153.475 250.884 153.556 250.884 153.638C250.884 153.72 250.904 153.8 250.944 153.873C250.983 153.945 251.039 154.006 251.108 154.051Z" fill="#00F0FF"/>
<path opacity="0.5" d="M251.108 154.051L267.71 163.635L288.67 151.538L272.013 141.932C271.794 141.81 271.548 141.745 271.298 141.745C271.047 141.745 270.801 141.81 270.583 141.932L251.108 153.225C251.039 153.269 250.983 153.331 250.944 153.403C250.904 153.475 250.884 153.556 250.884 153.638C250.884 153.72 250.904 153.8 250.944 153.873C250.983 153.945 251.039 154.006 251.108 154.051Z" fill="black"/>
<path d="M269.883 165.142C269.93 165.165 269.983 165.178 270.036 165.178C270.089 165.178 270.141 165.165 270.188 165.142C270.249 165.109 270.299 165.061 270.335 165.003C270.37 164.944 270.389 164.877 270.39 164.808V163.219C270.386 162.864 270.292 162.515 270.116 162.207C269.94 161.898 269.687 161.64 269.383 161.456L269.321 161.415C269.292 161.399 269.26 161.391 269.227 161.391C269.194 161.392 269.162 161.401 269.134 161.418C269.106 161.435 269.083 161.459 269.067 161.487C269.051 161.516 269.043 161.548 269.043 161.581C269.043 161.668 269.009 161.751 268.948 161.812C268.886 161.873 268.803 161.907 268.717 161.907C268.63 161.907 268.547 161.873 268.486 161.812C268.425 161.751 268.391 161.668 268.391 161.581C268.389 161.433 268.428 161.287 268.502 161.159C268.577 161.03 268.685 160.925 268.814 160.852C268.941 160.776 269.086 160.735 269.234 160.735C269.382 160.735 269.527 160.776 269.654 160.852L269.716 160.887C270.12 161.126 270.454 161.467 270.687 161.874C270.919 162.282 271.042 162.743 271.042 163.212V164.788C271.042 164.974 270.992 165.157 270.896 165.317C270.801 165.477 270.664 165.608 270.501 165.697C270.351 165.776 270.184 165.817 270.015 165.815C269.81 165.816 269.609 165.756 269.439 165.641C269.376 165.599 269.332 165.534 269.314 165.461L269.883 165.142Z" fill="white"/>
<path d="M272.984 163.351C273.032 163.375 273.084 163.387 273.137 163.387C273.19 163.387 273.242 163.375 273.29 163.351C273.35 163.318 273.401 163.27 273.436 163.212C273.472 163.153 273.491 163.086 273.491 163.018V161.442C273.489 161.086 273.395 160.736 273.219 160.426C273.043 160.116 272.79 159.857 272.485 159.672H272.422C272.394 159.657 272.361 159.648 272.329 159.648C272.296 159.648 272.264 159.657 272.235 159.672C272.207 159.689 272.185 159.712 272.169 159.74C272.153 159.768 272.145 159.8 272.145 159.832C272.145 159.919 272.11 160.002 272.049 160.063C271.988 160.124 271.905 160.158 271.818 160.158C271.732 160.158 271.649 160.124 271.588 160.063C271.527 160.002 271.492 159.919 271.492 159.832C271.497 159.69 271.538 159.551 271.613 159.429C271.687 159.308 271.791 159.207 271.916 159.138C272.042 159.061 272.188 159.021 272.336 159.021C272.484 159.021 272.629 159.061 272.755 159.138L272.818 159.173C273.221 159.412 273.556 159.752 273.788 160.16C274.021 160.568 274.143 161.029 274.144 161.498V163.073C274.144 163.26 274.093 163.442 273.998 163.602C273.903 163.762 273.766 163.894 273.602 163.982C273.453 164.062 273.286 164.103 273.116 164.1C272.911 164.102 272.711 164.041 272.54 163.927C272.478 163.884 272.433 163.82 272.415 163.746L272.984 163.351Z" fill="white"/>
<path d="M276.087 161.553C276.135 161.575 276.187 161.587 276.24 161.587C276.292 161.587 276.345 161.575 276.392 161.553C276.453 161.521 276.503 161.473 276.539 161.414C276.574 161.355 276.593 161.288 276.594 161.22V159.644C276.591 159.288 276.498 158.938 276.322 158.628C276.145 158.318 275.893 158.059 275.587 157.875L275.525 157.84C275.496 157.824 275.464 157.816 275.431 157.816C275.398 157.816 275.366 157.824 275.337 157.84C275.31 157.857 275.287 157.88 275.271 157.908C275.256 157.936 275.247 157.967 275.247 158C275.247 158.086 275.213 158.169 275.152 158.23C275.091 158.291 275.008 158.326 274.921 158.326C274.835 158.326 274.752 158.291 274.69 158.23C274.629 158.169 274.595 158.086 274.595 158C274.6 157.857 274.641 157.718 274.715 157.597C274.789 157.475 274.894 157.375 275.018 157.305C275.145 157.229 275.29 157.188 275.438 157.188C275.586 157.188 275.731 157.229 275.858 157.305L275.92 157.34C276.324 157.58 276.658 157.92 276.891 158.327C277.123 158.735 277.246 159.196 277.246 159.665V161.241C277.246 161.427 277.196 161.61 277.101 161.77C277.005 161.93 276.868 162.061 276.705 162.15C276.555 162.23 276.388 162.27 276.219 162.268C276.014 162.269 275.813 162.209 275.643 162.094C275.58 162.052 275.536 161.988 275.518 161.914L276.087 161.553Z" fill="white"/>
<path d="M279.189 159.769C279.236 159.792 279.289 159.803 279.341 159.803C279.394 159.803 279.446 159.792 279.494 159.769C279.554 159.737 279.605 159.689 279.64 159.63C279.676 159.572 279.695 159.505 279.695 159.436V157.861C279.693 157.504 279.599 157.154 279.423 156.844C279.247 156.535 278.994 156.275 278.689 156.091L278.626 156.056C278.598 156.04 278.565 156.032 278.533 156.032C278.5 156.032 278.468 156.04 278.439 156.056C278.412 156.073 278.389 156.096 278.373 156.124C278.357 156.152 278.349 156.184 278.349 156.216C278.349 156.302 278.314 156.385 278.253 156.446C278.192 156.508 278.109 156.542 278.023 156.542C277.936 156.542 277.853 156.508 277.792 156.446C277.731 156.385 277.696 156.302 277.696 156.216C277.701 156.073 277.743 155.935 277.817 155.813C277.891 155.691 277.995 155.591 278.12 155.522C278.246 155.445 278.392 155.405 278.54 155.405C278.688 155.405 278.833 155.445 278.96 155.522L279.022 155.556C279.426 155.796 279.76 156.136 279.992 156.544C280.225 156.951 280.347 157.412 280.348 157.882V159.457C280.348 159.643 280.297 159.826 280.202 159.986C280.107 160.146 279.97 160.277 279.806 160.366C279.657 160.446 279.49 160.486 279.32 160.484C279.115 160.486 278.915 160.425 278.744 160.311C278.682 160.268 278.637 160.204 278.619 160.13L279.189 159.769Z" fill="white"/>
<path d="M282.292 157.979C282.34 158.001 282.392 158.013 282.445 158.013C282.498 158.013 282.55 158.001 282.597 157.979C282.658 157.946 282.708 157.898 282.744 157.84C282.779 157.781 282.798 157.714 282.799 157.646V156.07C282.797 155.714 282.703 155.364 282.527 155.054C282.35 154.744 282.098 154.484 281.792 154.3H281.73C281.701 154.285 281.669 154.276 281.636 154.276C281.603 154.276 281.571 154.285 281.543 154.3C281.515 154.317 281.492 154.34 281.477 154.368C281.461 154.396 281.452 154.428 281.452 154.46C281.452 154.546 281.418 154.629 281.357 154.691C281.296 154.752 281.213 154.786 281.126 154.786C281.04 154.786 280.957 154.752 280.895 154.691C280.834 154.629 280.8 154.546 280.8 154.46C280.805 154.318 280.846 154.179 280.92 154.057C280.994 153.936 281.099 153.835 281.223 153.766C281.35 153.689 281.495 153.649 281.643 153.649C281.791 153.649 281.936 153.689 282.063 153.766L282.126 153.801C282.529 154.04 282.863 154.38 283.096 154.788C283.328 155.195 283.451 155.656 283.451 156.126V157.701C283.451 157.887 283.401 158.07 283.306 158.23C283.21 158.39 283.074 158.522 282.91 158.61C282.759 158.687 282.593 158.727 282.424 158.728C282.219 158.73 282.018 158.669 281.848 158.555C281.785 158.512 281.741 158.448 281.723 158.374L282.292 157.979Z" fill="white"/>
<path d="M285.395 156.188C285.442 156.21 285.495 156.222 285.547 156.222C285.6 156.222 285.652 156.21 285.7 156.188C285.76 156.156 285.811 156.108 285.846 156.049C285.882 155.99 285.901 155.923 285.901 155.855V154.265C285.899 153.909 285.805 153.559 285.629 153.249C285.453 152.939 285.2 152.68 284.895 152.496L284.832 152.461C284.804 152.445 284.772 152.437 284.739 152.437C284.706 152.437 284.674 152.445 284.645 152.461C284.617 152.476 284.593 152.5 284.577 152.528C284.561 152.556 284.553 152.588 284.555 152.621C284.555 152.707 284.52 152.79 284.459 152.851C284.398 152.912 284.315 152.947 284.229 152.947C284.142 152.947 284.059 152.912 283.998 152.851C283.937 152.79 283.902 152.707 283.902 152.621C283.91 152.476 283.954 152.336 284.03 152.214C284.107 152.091 284.214 151.991 284.34 151.921C284.467 151.851 284.609 151.815 284.754 151.816C284.898 151.817 285.04 151.855 285.166 151.927L285.228 151.968C285.632 152.208 285.966 152.548 286.198 152.955C286.431 153.363 286.553 153.824 286.554 154.293V155.869C286.554 156.055 286.503 156.238 286.408 156.398C286.313 156.558 286.176 156.689 286.012 156.778C285.862 156.854 285.695 156.895 285.527 156.896C285.321 156.897 285.121 156.837 284.95 156.722C284.888 156.68 284.843 156.615 284.826 156.542L285.395 156.188Z" fill="white"/>
<path d="M248.97 149.719L266.919 160.081L290.28 146.596L272.325 136.234L248.97 149.719Z" fill="#E6E6E6"/>
<path d="M247.936 149.379L266.69 158.208L288.844 142.807L270.084 133.985L247.936 149.379Z" fill="#FAFAFA"/>
<path d="M289.808 121.818H305.042L303.654 137.941C303.564 138.452 303.351 138.934 303.035 139.344C302.718 139.755 302.307 140.084 301.835 140.301C300.464 140.999 298.946 141.363 297.407 141.363C295.868 141.363 294.351 140.999 292.979 140.301C292.509 140.082 292.099 139.754 291.782 139.343C291.466 138.932 291.253 138.451 291.161 137.941L289.808 121.818Z" fill="#00F0FF"/>
<path d="M288.837 120.937V119.66H289.135C289.628 118.71 290.401 117.935 291.349 117.439C294.702 115.503 300.143 115.503 303.495 117.439C304.445 117.932 305.219 118.708 305.709 119.66H306.015V120.951C306.015 122.214 305.175 123.484 303.495 124.456C300.143 126.392 294.702 126.392 291.349 124.456C289.67 123.484 288.83 122.207 288.837 120.937Z" fill="#E0E0E0"/>
<path d="M291.349 123.242C294.701 125.178 300.143 125.178 303.495 123.242C306.847 121.305 306.854 118.168 303.495 116.232C300.136 114.295 294.701 114.288 291.349 116.232C287.997 118.175 287.997 121.298 291.349 123.242Z" fill="#EBEBEB"/>
<path d="M290.537 119.216V118.196H290.78C291.175 117.435 291.796 116.814 292.557 116.419C294.062 115.655 295.727 115.257 297.415 115.257C299.103 115.257 300.768 115.655 302.273 116.419C303.037 116.811 303.658 117.432 304.05 118.196H304.293V119.216C304.293 120.236 303.599 121.256 302.273 122.027C300.768 122.791 299.103 123.189 297.415 123.189C295.727 123.189 294.062 122.791 292.557 122.027C291.21 121.243 290.537 120.222 290.537 119.216Z" fill="#E0E0E0"/>
<path d="M292.557 121.048C294.062 121.812 295.727 122.21 297.415 122.21C299.103 122.21 300.768 121.812 302.273 121.048C304.966 119.501 304.966 116.981 302.273 115.434C300.768 114.67 299.103 114.271 297.415 114.271C295.727 114.271 294.062 114.67 292.557 115.434C289.871 116.981 289.871 119.501 292.557 121.048Z" fill="#F5F5F5"/>
<path d="M293.682 120.229C294.842 120.818 296.125 121.124 297.426 121.124C298.727 121.124 300.01 120.818 301.17 120.229C303.176 119.077 303.253 117.231 301.379 116.065C301.313 116.016 301.243 115.972 301.17 115.933C300.716 115.674 300.231 115.474 299.727 115.336C297.709 114.767 295.55 114.98 293.682 115.933C291.606 117.134 291.606 119.035 293.682 120.229Z" fill="#F0F0F0"/>
<path d="M301.169 116.523C300.009 115.932 298.724 115.623 297.421 115.623C296.119 115.623 294.834 115.932 293.673 116.523C293.298 116.699 292.966 116.957 292.703 117.277C292.44 117.598 292.252 117.974 292.154 118.376C291.994 117.495 292.507 116.579 293.673 115.906C294.836 115.32 296.12 115.015 297.421 115.015C298.723 115.015 300.007 115.32 301.169 115.906C302.342 116.6 302.849 117.495 302.696 118.376C302.597 117.973 302.408 117.597 302.143 117.276C301.879 116.955 301.546 116.698 301.169 116.523Z" fill="#E0E0E0"/>
<path d="M298.338 116.724L299.872 117.703L301.371 116.627V116.037C301.305 115.988 301.235 115.944 301.163 115.905C300.709 115.647 300.224 115.446 299.719 115.309V115.746L298.338 116.724Z" fill="#E0E0E0"/>
<path d="M5.4278 78.2415L139.738 0.642127C140.303 0.225029 140.988 0 141.691 0C142.394 0 143.078 0.225029 143.644 0.642127L148.294 3.87903L145.122 7.80648V116.081C145.122 120.052 142.705 124.713 139.727 126.374L6.74411 203.154L6.49597 207.372L1.59744 204.017C1.03531 203.488 0.601207 202.838 0.328219 202.117C0.0552318 201.395 -0.0494335 200.62 0.0221582 199.852V88.4809C0.0329479 84.5103 2.44985 79.9031 5.4278 78.2415Z" fill="#00F0FF"/>
<path opacity="0.3" d="M5.4278 78.2415L139.738 0.642127C140.303 0.225029 140.988 0 141.691 0C142.394 0 143.078 0.225029 143.644 0.642127L148.294 3.87903L145.122 7.80648V116.081C145.122 120.052 142.705 124.713 139.727 126.374L6.74411 203.154L6.49597 207.372L1.59744 204.017C1.03531 203.488 0.601207 202.838 0.328219 202.117C0.0552318 201.395 -0.0494335 200.62 0.0221582 199.852V88.4809C0.0329479 84.5103 2.44985 79.9031 5.4278 78.2415Z" fill="black"/>
<path d="M10.0032 207.07L144.313 129.525C147.28 127.809 149.708 123.202 149.708 119.232V7.86046C149.708 3.90065 147.291 2.07719 144.313 3.79275L10.0032 81.3382C7.02529 83.0538 4.60841 87.6609 4.60841 91.6316V202.992C4.60841 206.962 7.02529 208.797 10.0032 207.07Z" fill="#00F0FF"/>
<path d="M10.0032 207.07L144.313 129.525C147.28 127.809 149.708 123.202 149.708 119.232V7.86046C149.708 3.90065 147.291 2.07719 144.313 3.79275L10.0032 81.3382C7.02529 83.0538 4.60841 87.6609 4.60841 91.6316V202.992C4.60841 206.962 7.02529 208.797 10.0032 207.07Z" fill="#00F0FF"/>
<path d="M10.0032 81.3382L144.313 3.79275C147.28 2.07719 149.708 3.90065 149.708 7.86046V13.2553L4.61919 97.0156V91.6207C4.6084 87.6609 7.02528 83.0537 10.0032 81.3382Z" fill="#455A64"/>
<path d="M146.449 4.22399C145.883 4.25061 145.333 4.42146 144.852 4.72031L10.5418 82.2658C7.90908 83.7871 5.68641 88.0706 5.68641 91.6312V202.992C5.68641 205.149 6.53879 206.638 7.84434 206.638C8.41508 206.611 8.96902 206.437 9.45199 206.131L143.773 128.586C146.395 127.075 148.617 122.781 148.617 119.231V7.86011C148.617 5.64822 147.765 4.22399 146.459 4.22399M146.459 3.14502C148.369 3.14502 149.696 4.90374 149.696 7.86011V119.242C149.696 123.213 147.279 127.82 144.301 129.535L10.0023 207.07C9.35297 207.473 8.60829 207.696 7.84434 207.717C5.93457 207.717 4.60744 205.948 4.60744 202.992V91.6312C4.60744 87.6606 7.02433 82.9995 10.0023 81.3378L144.312 3.7924C144.96 3.38646 145.706 3.16281 146.47 3.14502H146.459Z" fill="#00F0FF"/>
<path d="M87.4298 62.0568C87.6308 62.0607 87.8288 62.0084 88.0017 61.9058L139.134 32.4284C139.374 32.2661 139.543 32.019 139.608 31.7368C139.672 31.4546 139.628 31.1584 139.483 30.9079C139.338 30.6573 139.103 30.4712 138.826 30.3869C138.549 30.3027 138.25 30.3266 137.99 30.4538L86.8579 59.9744C86.6271 60.0942 86.4441 60.289 86.3389 60.5268C86.2337 60.7646 86.2127 61.0312 86.2793 61.2825C86.3459 61.5338 86.4961 61.755 86.7053 61.9095C86.9144 62.064 87.17 62.1426 87.4298 62.1323V62.0568Z" fill="white"/>
<path d="M15.4934 103.64C15.6954 103.641 15.8935 103.585 16.0652 103.479L53.937 81.6187C54.2003 81.467 54.3925 81.217 54.4714 80.9236C54.5503 80.6302 54.5095 80.3175 54.3578 80.0542C54.2061 79.7909 53.9561 79.5987 53.6627 79.5198C53.3693 79.4409 53.0566 79.4817 52.7933 79.6334L14.9215 101.504C14.6907 101.624 14.5076 101.819 14.4025 102.057C14.2973 102.294 14.2762 102.561 14.3429 102.812C14.4095 103.064 14.5597 103.285 14.7689 103.439C14.978 103.594 15.2336 103.672 15.4934 103.662V103.64Z" fill="white"/>
<path d="M61.5777 77.0326C61.7779 77.0299 61.9743 76.978 62.1496 76.8815L77.5681 67.9908C77.709 67.9218 77.8342 67.8246 77.936 67.7051C78.0377 67.5857 78.1138 67.4465 78.1595 67.2964C78.2051 67.1463 78.2194 66.9884 78.2015 66.8325C78.1835 66.6766 78.1336 66.5261 78.055 66.3903C77.9763 66.2545 77.8706 66.1363 77.7443 66.0432C77.618 65.95 77.4739 65.8838 77.321 65.8488C77.168 65.8137 77.0095 65.8105 76.8552 65.8393C76.701 65.8681 76.5543 65.9283 76.4244 66.0163L61.0383 74.8962C60.8075 75.016 60.6244 75.2108 60.5192 75.4486C60.414 75.6864 60.393 75.9529 60.4596 76.2043C60.5262 76.4556 60.6765 76.6768 60.8856 76.8313C61.0947 76.9857 61.3503 77.0644 61.6101 77.0541L61.5777 77.0326Z" fill="white"/>
<path d="M87.4298 133.712C87.6301 133.711 87.8268 133.659 88.0017 133.561L139.134 104.04C139.374 103.878 139.543 103.631 139.608 103.349C139.672 103.066 139.628 102.77 139.483 102.52C139.338 102.269 139.103 102.083 138.826 101.999C138.549 101.914 138.25 101.938 137.99 102.066L86.8579 131.575C86.5961 131.729 86.4058 131.979 86.3289 132.273C86.2521 132.566 86.2949 132.878 86.4479 133.14C86.5422 133.317 86.684 133.465 86.8575 133.566C87.031 133.667 87.2292 133.717 87.4298 133.712Z" fill="white"/>
<path d="M15.4934 175.24C15.6943 175.244 15.8924 175.192 16.0652 175.089L53.937 153.23C54.2003 153.078 54.3925 152.828 54.4714 152.534C54.5503 152.241 54.5095 151.928 54.3578 151.665C54.2061 151.402 53.9561 151.21 53.6627 151.131C53.3693 151.052 53.0566 151.093 52.7933 151.244L14.9215 173.115C14.6608 173.266 14.4703 173.514 14.3915 173.805C14.3127 174.096 14.3519 174.406 14.5007 174.669C14.6021 174.842 14.747 174.986 14.9211 175.086C15.0952 175.187 15.2925 175.24 15.4934 175.24Z" fill="white"/>
<path d="M61.5777 148.633C61.7787 148.637 61.9768 148.585 62.1496 148.482L77.5681 139.602C77.709 139.533 77.8342 139.436 77.936 139.316C78.0377 139.197 78.1138 139.058 78.1595 138.908C78.2051 138.758 78.2194 138.6 78.2015 138.444C78.1835 138.288 78.1336 138.137 78.055 138.002C77.9763 137.866 77.8706 137.748 77.7443 137.655C77.618 137.561 77.4739 137.495 77.321 137.46C77.168 137.425 77.0095 137.422 76.8552 137.451C76.701 137.479 76.5543 137.54 76.4244 137.628L61.0383 146.508C60.7775 146.659 60.5871 146.907 60.5083 147.198C60.4295 147.489 60.4687 147.799 60.6175 148.061C60.716 148.23 60.8558 148.371 61.0238 148.471C61.1918 148.571 61.3824 148.627 61.5777 148.633Z" fill="white"/>
<path d="M87.4292 150.532C87.6301 150.536 87.8282 150.484 88.001 150.381L139.133 120.872C139.397 120.72 139.589 120.47 139.668 120.177C139.747 119.883 139.706 119.57 139.554 119.307C139.402 119.044 139.152 118.852 138.859 118.773C138.566 118.694 138.253 118.735 137.99 118.886L86.8573 148.375C86.6265 148.494 86.4434 148.689 86.3382 148.927C86.2331 149.165 86.212 149.431 86.2786 149.683C86.3452 149.934 86.4955 150.155 86.7046 150.31C86.9138 150.464 87.1693 150.543 87.4292 150.532Z" fill="white"/>
<path d="M31.6124 182.771C31.8133 182.775 32.0114 182.723 32.1842 182.62L53.9362 170.061C54.0772 169.992 54.2024 169.895 54.3042 169.775C54.4059 169.656 54.482 169.517 54.5276 169.367C54.5733 169.217 54.5876 169.059 54.5696 168.903C54.5516 168.747 54.5018 168.596 54.4231 168.461C54.3445 168.325 54.2387 168.207 54.1124 168.113C53.9862 168.02 53.8421 167.954 53.6891 167.919C53.5362 167.884 53.3777 167.881 53.2234 167.91C53.0692 167.938 52.9225 167.999 52.7925 168.087L31.0405 180.646C30.9103 180.72 30.7961 180.819 30.7044 180.937C30.6127 181.055 30.5453 181.19 30.5062 181.335C30.4671 181.479 30.4569 181.63 30.4764 181.779C30.4959 181.927 30.5446 182.07 30.6197 182.2C30.7211 182.373 30.866 182.517 31.0401 182.617C31.2142 182.718 31.4115 182.771 31.6124 182.771Z" fill="white"/>
<path d="M61.5785 165.476C61.7787 165.473 61.975 165.421 62.1504 165.325L77.5688 156.445C77.8321 156.293 78.0243 156.043 78.1033 155.75C78.1822 155.456 78.1413 155.144 77.9897 154.88C77.838 154.617 77.5879 154.425 77.2945 154.346C77.0011 154.267 76.6884 154.308 76.4251 154.46L61.039 163.339C60.8083 163.459 60.6252 163.654 60.52 163.892C60.4148 164.13 60.3938 164.396 60.4604 164.648C60.527 164.899 60.6772 165.12 60.8864 165.275C61.0955 165.429 61.3511 165.508 61.6109 165.497L61.5785 165.476Z" fill="white"/>
<path d="M112.925 56.2847C113.127 56.2853 113.325 56.2292 113.497 56.1228L139.133 41.3302C139.331 41.1537 139.461 40.914 139.502 40.652C139.543 40.39 139.491 40.1221 139.356 39.894C139.221 39.6658 139.011 39.4917 138.762 39.4014C138.512 39.3111 138.239 39.3102 137.99 39.3988L112.353 54.1915C112.091 54.3446 111.901 54.5954 111.824 54.8888C111.747 55.1822 111.79 55.4941 111.943 55.756C112.043 55.9252 112.188 56.0638 112.361 56.157C112.534 56.2502 112.729 56.2943 112.925 56.2847Z" fill="white"/>
<path d="M39.0921 98.9144C39.2922 98.9117 39.4886 98.8599 39.6639 98.7633L77.5681 76.8927C77.709 76.8237 77.8342 76.7264 77.936 76.607C78.0377 76.4875 78.1138 76.3484 78.1595 76.1983C78.2051 76.0481 78.2194 75.8902 78.2015 75.7343C78.1835 75.5784 78.1336 75.4279 78.055 75.2921C77.9763 75.1563 77.8706 75.0382 77.7443 74.945C77.618 74.8519 77.4739 74.7857 77.321 74.7506C77.168 74.7155 77.0095 74.7123 76.8552 74.7411C76.701 74.77 76.5543 74.8302 76.4244 74.9181L38.5526 96.778C38.3218 96.8978 38.1387 97.0927 38.0335 97.3305C37.9283 97.5682 37.9073 97.8348 37.9739 98.0861C38.0405 98.3375 38.1908 98.5586 38.3999 98.7131C38.6091 98.8676 38.8646 98.9462 39.1244 98.936L39.0921 98.9144Z" fill="white"/>
<path d="M87.0738 71.2073C87.2748 71.2112 87.4728 71.1589 87.6456 71.0562L103.032 62.1763C103.295 62.0247 103.487 61.7746 103.566 61.4812C103.645 61.1878 103.604 60.8751 103.453 60.6118C103.301 60.3486 103.051 60.1563 102.757 60.0774C102.464 59.9985 102.151 60.0394 101.888 60.191L86.5019 69.0709C86.2401 69.224 86.0498 69.4749 85.973 69.7683C85.8961 70.0617 85.9389 70.3736 86.0919 70.6354C86.1862 70.8127 86.328 70.9601 86.5015 71.0611C86.6749 71.1621 86.8731 71.2127 87.0738 71.2073Z" fill="white"/>
<path d="M87.4293 79.9034C87.6313 79.9041 87.8294 79.848 88.0011 79.7416L139.133 50.1886C139.339 50.0143 139.476 49.7729 139.521 49.5072C139.566 49.2415 139.516 48.9684 139.379 48.7362C139.242 48.504 139.028 48.3275 138.774 48.2379C138.519 48.1483 138.242 48.1513 137.99 48.2465L86.8574 77.767C86.5955 77.9202 86.4053 78.171 86.3284 78.4644C86.2515 78.7578 86.2943 79.0697 86.4474 79.3316C86.5417 79.5088 86.6835 79.6562 86.8569 79.7572C87.0304 79.8582 87.2286 79.9089 87.4293 79.9034Z" fill="white"/>
<path d="M43.276 105.388C43.477 105.392 43.675 105.34 43.8479 105.237L53.9362 99.4107C54.0772 99.3417 54.2024 99.2445 54.3042 99.125C54.4059 99.0056 54.482 98.8665 54.5276 98.7163C54.5733 98.5662 54.5876 98.4083 54.5696 98.2524C54.5516 98.0965 54.5018 97.946 54.4231 97.8102C54.3445 97.6744 54.2387 97.5563 54.1124 97.4631C53.9862 97.3699 53.8421 97.3038 53.6891 97.2687C53.5362 97.2336 53.3777 97.2304 53.2234 97.2592C53.0692 97.288 52.9225 97.3483 52.7925 97.4362L42.7042 103.263C42.4434 103.414 42.253 103.662 42.1742 103.953C42.0954 104.244 42.1346 104.554 42.2833 104.816C42.3847 104.99 42.5297 105.134 42.7038 105.234C42.8779 105.334 43.0751 105.388 43.276 105.388Z" fill="white"/>
<path d="M107.886 76.9902C108.086 76.9876 108.283 76.9357 108.458 76.8392L118.568 71.0128C118.698 70.9377 118.813 70.8376 118.904 70.7183C118.996 70.5991 119.063 70.4629 119.102 70.3176C119.141 70.1724 119.151 70.0208 119.132 69.8716C119.112 69.7225 119.064 69.5786 118.989 69.4482C118.914 69.3179 118.814 69.2036 118.694 69.1119C118.575 69.0202 118.439 68.9529 118.294 68.9138C118.148 68.8748 117.997 68.8647 117.848 68.8842C117.698 68.9037 117.555 68.9523 117.424 69.0274L107.336 74.8539C107.105 74.9737 106.922 75.1685 106.817 75.4063C106.712 75.6441 106.691 75.9106 106.757 76.162C106.824 76.4133 106.974 76.6344 107.183 76.7889C107.392 76.9434 107.648 77.022 107.908 77.0118L107.886 76.9902Z" fill="white"/>
<path d="M61.5785 94.8254C61.7787 94.8228 61.975 94.7709 62.1504 94.6744L77.5688 85.7945C77.6992 85.7194 77.8135 85.6194 77.9052 85.5001C77.9969 85.3808 78.0642 85.2447 78.1033 85.0994C78.1423 84.9541 78.1524 84.8026 78.1329 84.6534C78.1134 84.5042 78.0648 84.3603 77.9897 84.23C77.9146 84.0996 77.8145 83.9853 77.6952 83.8936C77.576 83.8019 77.4398 83.7346 77.2945 83.6956C77.1492 83.6565 76.9977 83.6464 76.8485 83.6659C76.6993 83.6854 76.5555 83.7341 76.4251 83.8092L61.039 92.6891C60.8083 92.8089 60.6252 93.0037 60.52 93.2415C60.4148 93.4793 60.3938 93.7458 60.4604 93.9972C60.527 94.2485 60.6772 94.4697 60.8864 94.6242C61.0955 94.7787 61.3511 94.8573 61.6109 94.847L61.5785 94.8254Z" fill="white"/>
<path d="M122.173 68.7358C122.374 68.7397 122.572 68.6874 122.744 68.5847L139.134 59.1222C139.374 58.96 139.543 58.7128 139.608 58.4306C139.672 58.1485 139.628 57.8522 139.483 57.6017C139.338 57.3512 139.103 57.165 138.826 57.0808C138.549 56.9965 138.25 57.0204 137.99 57.1477L121.601 66.6102C121.358 66.7217 121.163 66.9152 121.049 67.1566C120.935 67.398 120.911 67.6718 120.979 67.9298C121.047 68.1877 121.204 68.4133 121.423 68.5666C121.641 68.72 121.907 68.7914 122.173 68.7682V68.7358Z" fill="white"/>
<path d="M87.073 89.0307C87.274 89.0346 87.472 88.9823 87.6449 88.8796L103.031 79.9674C103.172 79.8984 103.297 79.8011 103.399 79.6817C103.501 79.5622 103.577 79.4231 103.622 79.273C103.668 79.1228 103.682 78.9649 103.664 78.809C103.646 78.6531 103.596 78.5026 103.518 78.3668C103.439 78.2311 103.333 78.1129 103.207 78.0198C103.081 77.9266 102.937 77.8604 102.784 77.8253C102.631 77.7903 102.472 77.787 102.318 77.8158C102.164 77.8447 102.017 77.9049 101.887 77.9929L86.5011 86.8728C86.2704 86.9925 86.0873 87.1874 85.9821 87.4252C85.8769 87.663 85.8559 87.9295 85.9225 88.1808C85.9891 88.4322 86.1394 88.6533 86.3485 88.8078C86.5576 88.9623 86.8132 89.0409 87.073 89.0307Z" fill="white"/>
<path d="M87.4298 98.3427C87.6308 98.3466 87.8288 98.2942 88.0017 98.1916L139.134 68.671C139.374 68.5088 139.543 68.2616 139.608 67.9795C139.672 67.6973 139.628 67.4011 139.483 67.1505C139.338 66.9 139.103 66.7138 138.826 66.6296C138.549 66.5453 138.25 66.5692 137.99 66.6965L86.8579 96.2063C86.5961 96.3594 86.4058 96.6102 86.3289 96.9036C86.2521 97.197 86.2949 97.509 86.4479 97.7708C86.5422 97.948 86.684 98.0954 86.8575 98.1964C87.031 98.2975 87.2292 98.3481 87.4298 98.3427Z" fill="white"/>
<path d="M15.4934 139.872C15.6923 139.882 15.8902 139.837 16.0652 139.742L53.937 117.882C54.2003 117.731 54.3925 117.481 54.4714 117.187C54.5503 116.894 54.5095 116.581 54.3578 116.318C54.2061 116.055 53.9561 115.862 53.6627 115.783C53.3693 115.705 53.0566 115.745 52.7933 115.897L14.9215 137.768C14.6608 137.919 14.4703 138.167 14.3915 138.458C14.3127 138.749 14.3519 139.059 14.5007 139.321C14.6048 139.491 14.7508 139.631 14.9248 139.727C15.0987 139.823 15.2945 139.873 15.4934 139.872Z" fill="white"/>
<path d="M61.5777 113.264C61.7787 113.268 61.9768 113.216 62.1496 113.113L77.5681 104.233C77.709 104.164 77.8342 104.067 77.936 103.948C78.0377 103.828 78.1138 103.689 78.1595 103.539C78.2051 103.389 78.2194 103.231 78.2015 103.075C78.1835 102.919 78.1336 102.769 78.055 102.633C77.9763 102.497 77.8706 102.379 77.7443 102.286C77.618 102.193 77.4739 102.127 77.321 102.091C77.168 102.056 77.0095 102.053 76.8552 102.082C76.701 102.111 76.5543 102.171 76.4244 102.259L61.0383 111.139C60.7768 111.292 60.5861 111.542 60.5074 111.835C60.4286 112.128 60.4682 112.44 60.6175 112.703C60.7188 112.869 60.8595 113.007 61.0271 113.105C61.1946 113.202 61.3838 113.257 61.5777 113.264Z" fill="white"/>
<path d="M112.925 92.5165C113.126 92.5204 113.324 92.4681 113.497 92.3655L139.133 77.5728C139.397 77.4211 139.589 77.1711 139.668 76.8777C139.747 76.5843 139.706 76.2716 139.554 76.0083C139.402 75.745 139.152 75.5528 138.859 75.4739C138.566 75.395 138.253 75.4358 137.99 75.5875L112.353 90.391C112.123 90.5107 111.939 90.7056 111.834 90.9434C111.729 91.1812 111.708 91.4477 111.775 91.699C111.841 91.9504 111.991 92.1715 112.201 92.326C112.41 92.4805 112.665 92.5591 112.925 92.5489V92.5165Z" fill="white"/>
<path d="M39.0928 135.157C39.2948 135.158 39.493 135.102 39.6647 134.995L77.5688 113.135C77.8321 112.984 78.0243 112.734 78.1033 112.44C78.1822 112.147 78.1413 111.834 77.9897 111.571C77.838 111.308 77.5879 111.115 77.2945 111.036C77.0011 110.957 76.6884 110.998 76.4251 111.15L38.5533 133.021C38.3226 133.14 38.1395 133.335 38.0343 133.573C37.9291 133.811 37.9081 134.077 37.9747 134.329C38.0413 134.58 38.1915 134.801 38.4007 134.956C38.6098 135.11 38.8654 135.189 39.1252 135.179L39.0928 135.157Z" fill="white"/>
<path d="M87.073 107.449C87.2731 107.446 87.4695 107.395 87.6449 107.298L103.031 98.4073C103.172 98.3383 103.297 98.2411 103.399 98.1216C103.501 98.0022 103.577 97.863 103.622 97.7129C103.668 97.5628 103.682 97.4049 103.664 97.249C103.646 97.0931 103.596 96.9426 103.518 96.8068C103.439 96.671 103.333 96.5529 103.207 96.4597C103.081 96.3665 102.937 96.3004 102.784 96.2653C102.631 96.2302 102.472 96.227 102.318 96.2558C102.164 96.2846 102.017 96.3449 101.887 96.4328L86.5011 105.313C86.2393 105.466 86.0491 105.717 85.9722 106.01C85.8953 106.303 85.9381 106.615 86.0911 106.877C86.1854 107.054 86.3272 107.202 86.5007 107.303C86.6741 107.404 86.8723 107.455 87.073 107.449Z" fill="white"/>
<path d="M87.4298 116.135C87.6308 116.139 87.8288 116.086 88.0017 115.984L139.134 86.463C139.374 86.3008 139.543 86.0536 139.608 85.7715C139.672 85.4893 139.628 85.193 139.483 84.9425C139.338 84.692 139.103 84.5058 138.826 84.4216C138.549 84.3373 138.25 84.3612 137.99 84.4885L86.8579 114.009C86.6271 114.129 86.4441 114.324 86.3389 114.561C86.2337 114.799 86.2127 115.066 86.2793 115.317C86.3459 115.569 86.4961 115.79 86.7053 115.944C86.9144 116.099 87.17 116.177 87.4298 116.167V116.135Z" fill="white"/>
<path d="M43.276 141.631C43.4761 141.628 43.6725 141.576 43.8479 141.48L53.9362 135.653C54.0772 135.584 54.2024 135.487 54.3042 135.368C54.4059 135.248 54.482 135.109 54.5276 134.959C54.5733 134.809 54.5876 134.651 54.5696 134.495C54.5516 134.339 54.5018 134.189 54.4231 134.053C54.3445 133.917 54.2387 133.799 54.1124 133.706C53.9862 133.613 53.8421 133.546 53.6891 133.511C53.5362 133.476 53.3777 133.473 53.2234 133.502C53.0692 133.531 52.9225 133.591 52.7925 133.679L42.7042 139.495C42.4734 139.614 42.2903 139.809 42.1851 140.047C42.0799 140.285 42.0589 140.551 42.1255 140.803C42.1921 141.054 42.3424 141.275 42.5515 141.43C42.7607 141.584 43.0162 141.663 43.276 141.652V141.631Z" fill="white"/>
<path d="M107.886 113.232C108.088 113.233 108.286 113.177 108.458 113.071L118.568 107.255C118.831 107.103 119.023 106.853 119.102 106.56C119.181 106.266 119.14 105.954 118.989 105.69C118.837 105.427 118.587 105.235 118.294 105.156C118 105.077 117.687 105.118 117.424 105.27L107.336 111.096C107.105 111.216 106.922 111.411 106.817 111.648C106.712 111.886 106.691 112.153 106.757 112.404C106.824 112.655 106.974 112.877 107.183 113.031C107.392 113.186 107.648 113.264 107.908 113.254L107.886 113.232Z" fill="white"/>
<path d="M61.5785 131.111C61.7787 131.109 61.975 131.057 62.1504 130.96L77.5688 122.037C77.8321 121.885 78.0243 121.635 78.1033 121.342C78.1822 121.049 78.1413 120.736 77.9897 120.473C77.838 120.209 77.5879 120.017 77.2945 119.938C77.0011 119.859 76.6884 119.9 76.4251 120.052L61.0067 128.953C60.7759 129.073 60.5928 129.268 60.4876 129.506C60.3824 129.744 60.3614 130.01 60.428 130.261C60.4946 130.513 60.6449 130.734 60.854 130.888C61.0632 131.043 61.3187 131.122 61.5785 131.111Z" fill="white"/>
<path d="M122.17 104.978C122.371 104.982 122.569 104.929 122.741 104.827L139.131 95.3643C139.399 95.2126 139.595 94.9609 139.677 94.6644C139.759 94.368 139.72 94.0511 139.568 93.7836C139.416 93.516 139.165 93.3197 138.868 93.2377C138.572 93.1558 138.255 93.1949 137.987 93.3466L121.598 102.798C121.367 102.918 121.184 103.113 121.079 103.351C120.973 103.589 120.952 103.855 121.019 104.106C121.086 104.358 121.236 104.579 121.445 104.733C121.654 104.888 121.91 104.967 122.17 104.956V104.978Z" fill="white"/>
<path d="M87.0738 125.241C87.2748 125.245 87.4728 125.193 87.6456 125.09L103.032 116.21C103.295 116.058 103.487 115.808 103.566 115.515C103.645 115.222 103.604 114.909 103.453 114.646C103.301 114.382 103.051 114.19 102.757 114.111C102.464 114.032 102.151 114.073 101.888 114.225L86.5019 123.115C86.2712 123.235 86.0881 123.43 85.9829 123.668C85.8777 123.906 85.8567 124.172 85.9233 124.424C85.9899 124.675 86.1401 124.896 86.3493 125.05C86.5584 125.205 86.814 125.284 87.0738 125.273V125.241Z" fill="white"/>
<path d="M107.886 130.28C108.087 130.284 108.285 130.231 108.458 130.129L118.547 124.302C118.688 124.233 118.813 124.136 118.915 124.017C119.016 123.897 119.092 123.758 119.138 123.608C119.184 123.458 119.198 123.3 119.18 123.144C119.162 122.988 119.112 122.838 119.033 122.702C118.955 122.566 118.849 122.448 118.723 122.355C118.596 122.262 118.452 122.195 118.299 122.16C118.147 122.125 117.988 122.122 117.834 122.151C117.679 122.18 117.533 122.24 117.403 122.328L107.315 128.154C107.072 128.266 106.877 128.459 106.763 128.701C106.649 128.942 106.624 129.216 106.693 129.474C106.761 129.732 106.918 129.957 107.137 130.111C107.355 130.264 107.621 130.335 107.886 130.312V130.28Z" fill="white"/>
<path d="M122.172 122.037C122.372 122.035 122.568 121.983 122.744 121.886L139.133 112.424C139.397 112.272 139.589 112.022 139.668 111.729C139.747 111.435 139.706 111.123 139.554 110.859C139.402 110.596 139.152 110.404 138.859 110.325C138.566 110.246 138.253 110.287 137.99 110.439L121.6 119.901C121.369 120.021 121.186 120.216 121.081 120.454C120.976 120.691 120.955 120.958 121.021 121.209C121.088 121.461 121.238 121.682 121.447 121.836C121.657 121.991 121.912 122.069 122.172 122.059V122.037Z" fill="white"/>
<path d="M87.0738 142.3C87.2739 142.297 87.4703 142.245 87.6456 142.149L103.032 133.269C103.295 133.117 103.487 132.867 103.566 132.574C103.645 132.28 103.604 131.967 103.453 131.704C103.301 131.441 103.051 131.249 102.757 131.17C102.464 131.091 102.151 131.132 101.888 131.283L86.5019 140.163C86.2401 140.316 86.0498 140.567 85.973 140.861C85.8961 141.154 85.9389 141.466 86.0919 141.728C86.1862 141.905 86.328 142.052 86.5015 142.153C86.6749 142.254 86.8731 142.305 87.0738 142.3Z" fill="white"/>
<path d="M128.44 43.5316V84.8992C128.44 85.5682 128.678 85.9782 129.056 86.1616L130.642 87.0356V85.6221L130.868 43.0892L128.797 42.0103C128.565 42.4841 128.443 43.0042 128.44 43.5316Z" fill="#263238"/>
<path d="M128.797 42.0421L130.869 43.1211L181.03 13.6761L182.228 12.9855L180.577 12.0576H180.523C180.369 11.9755 180.195 11.939 180.021 11.9524C179.847 11.9658 179.68 12.0285 179.541 12.1331L129.908 40.715C129.416 41.0386 129.029 41.5001 128.797 42.0421Z" fill="#37474F"/>
<path d="M130.234 44.4269V85.5248C130.212 85.7447 130.243 85.9667 130.326 86.1716C130.409 86.3765 130.54 86.5582 130.709 86.7009H130.806C130.956 86.7614 131.118 86.7833 131.279 86.7644C131.439 86.7456 131.592 86.6866 131.723 86.593L181.032 58.1838C181.485 57.8607 181.856 57.4354 182.115 56.9425C182.374 56.4496 182.513 55.9027 182.521 55.3461V14.3129C182.543 14.0983 182.514 13.8814 182.435 13.6805C182.356 13.4796 182.23 13.3006 182.068 13.1584C182.024 13.1194 181.973 13.09 181.917 13.0721C181.771 13.0197 181.614 13.0031 181.46 13.0238C181.306 13.0444 181.159 13.1017 181.032 13.1908L131.723 41.5569C131.245 41.8694 130.87 42.316 130.644 42.8408C130.388 43.3313 130.248 43.8739 130.234 44.4269Z" fill="#455A64"/>
<path d="M141.134 61.1713V57.9408L152.338 45.8117V49.5287L144.667 57.4889L144.771 57.2367V57.6956L144.667 57.5623L152.338 56.7056V60.4225L141.134 61.1713ZM162.802 34.9432L157.55 60.465L154.63 62.1433L159.881 36.6215L162.802 34.9432ZM176.299 40.9617L165.095 53.0908V49.3738L172.766 41.4136L172.662 41.6658V41.2069L172.766 41.3402L165.095 42.1969V38.48L176.299 37.7312V40.9617Z" fill="#FAFAFA"/>
<path d="M181.817 13.115C181.656 13.1196 181.5 13.1681 181.364 13.2553L131.732 41.8371C131.295 42.1263 130.951 42.5344 130.739 43.0132C130.511 43.4577 130.389 43.9488 130.383 44.4482V85.7943C130.358 85.9652 130.374 86.1397 130.431 86.3031C130.487 86.4664 130.582 86.6139 130.707 86.733H130.793C130.864 86.7504 130.938 86.7504 131.009 86.733C131.168 86.7204 131.323 86.6725 131.462 86.5927L181.095 58.0001C181.507 57.6985 181.843 57.3061 182.079 56.8533C182.315 56.4005 182.443 55.8994 182.454 55.389V14.1508C182.472 13.9777 182.451 13.8027 182.394 13.6385C182.336 13.4743 182.242 13.325 182.12 13.2013H182.022C181.959 13.1862 181.892 13.1862 181.828 13.2013M181.828 12.9208C181.932 12.9203 182.036 12.9424 182.13 12.9855L182.281 13.0718C182.441 13.2178 182.565 13.3993 182.642 13.6017C182.718 13.8042 182.747 14.0218 182.724 14.2371V55.4861C182.714 56.0454 182.574 56.5948 182.316 57.0909C182.057 57.5871 181.687 58.0165 181.235 58.3453L131.602 86.9272C131.426 87.0343 131.226 87.0938 131.02 87.0999C130.905 87.1013 130.791 87.0793 130.685 87.0351L130.588 86.9812C130.418 86.8368 130.287 86.6533 130.204 86.4465C130.121 86.2397 130.09 86.0158 130.113 85.7943V44.4482C130.127 43.908 130.259 43.3775 130.502 42.8945C130.733 42.3706 131.107 41.922 131.581 41.5998L181.213 13.0179C181.392 12.9065 181.596 12.8434 181.807 12.8345L181.828 12.9208Z" fill="#37474F"/>
<path d="M136.414 14.1829C136.414 15.359 137.245 15.8337 138.259 15.2619C138.804 14.9097 139.256 14.4318 139.577 13.8684C139.898 13.3051 140.079 12.6729 140.104 12.025C140.104 10.8489 139.284 10.3742 138.259 10.946C137.719 11.3021 137.27 11.7809 136.949 12.3434C136.629 12.9059 136.445 13.5362 136.414 14.1829Z" fill="white"/>
<path d="M129.551 18.4122C129.551 19.5883 130.382 20.0739 131.407 19.4912C131.949 19.137 132.4 18.6587 132.721 18.0958C133.042 17.5329 133.224 16.9016 133.252 16.2543C133.252 15.0782 132.421 14.5927 131.407 15.1753C130.862 15.5283 130.41 16.0062 130.087 16.5691C129.764 17.1321 129.581 17.764 129.551 18.4122Z" fill="white"/>
<path d="M122.702 22.6531C122.702 23.8292 123.523 24.304 124.548 23.7321C125.088 23.376 125.537 22.8972 125.858 22.3347C126.178 21.7722 126.362 21.1419 126.393 20.4952C126.393 19.3191 125.562 18.8444 124.548 19.4162C124.003 19.7684 123.551 20.2463 123.23 20.8097C122.909 21.373 122.728 22.0052 122.702 22.6531Z" fill="white"/>
</svg>
