<svg width="562" height="369" viewBox="0 0 562 369" fill="none" xmlns="http://www.w3.org/2000/svg">
<g opacity="0.1">
<ellipse cx="281" cy="213" rx="281" ry="155.256" fill="#00F0FF" fill-opacity="0.08"/>
<path d="M561.5 213C561.5 255.607 530.237 294.287 479.455 322.344C428.691 350.392 358.528 367.755 281 367.755C203.472 367.755 133.309 350.392 82.5448 322.344C31.7635 294.287 0.5 255.607 0.5 213C0.5 170.393 31.7635 131.712 82.5448 103.655C133.309 75.6075 203.472 58.2441 281 58.2441C358.528 58.2441 428.691 75.6075 479.455 103.655C530.237 131.712 561.5 170.393 561.5 213Z" stroke="#00F0FF" stroke-opacity="0.2"/>
</g>
<g opacity="0.2">
<ellipse cx="281" cy="212.999" rx="239.612" ry="132.388" fill="#00F0FF" fill-opacity="0.08"/>
<path d="M520.112 212.999C520.112 249.292 493.482 282.255 450.19 306.174C406.916 330.084 347.099 344.888 281 344.888C214.901 344.888 155.084 330.084 111.81 306.174C68.5187 282.255 41.8877 249.292 41.8877 212.999C41.8877 176.707 68.5187 143.743 111.81 119.824C155.084 95.9147 214.901 81.1108 281 81.1108C347.099 81.1108 406.916 95.9147 450.19 119.824C493.482 143.743 520.112 176.707 520.112 212.999Z" stroke="#00F0FF" stroke-opacity="0.2"/>
</g>
<g opacity="0.3">
<ellipse cx="281" cy="213.001" rx="202.581" ry="111.928" fill="#00F0FF" fill-opacity="0.08"/>
<path d="M483.082 213.001C483.082 243.643 460.596 271.492 424.005 291.708C387.432 311.915 336.873 324.429 281 324.429C225.127 324.429 174.568 311.915 137.995 291.708C101.405 271.492 78.9189 243.643 78.9189 213.001C78.9189 182.358 101.405 154.51 137.995 134.293C174.568 114.086 225.127 101.572 281 101.572C336.873 101.572 387.432 114.086 424.005 134.293C460.596 154.51 483.082 182.358 483.082 213.001Z" stroke="#00F0FF" stroke-opacity="0.2"/>
</g>
<g opacity="0.4">
<ellipse cx="280.999" cy="213.001" rx="176.442" ry="97.4861" fill="#00F0FF" fill-opacity="0.08"/>
<path d="M456.941 213.001C456.941 239.656 437.381 263.894 405.521 281.497C373.678 299.09 329.654 309.987 280.999 309.987C232.345 309.987 188.321 299.09 156.478 281.497C124.618 263.894 105.058 239.656 105.058 213.001C105.058 186.347 124.618 162.109 156.478 144.506C188.321 126.912 232.345 116.015 280.999 116.015C329.654 116.015 373.678 126.912 405.521 144.506C437.381 162.109 456.941 186.347 456.941 213.001Z" stroke="#00F0FF" stroke-opacity="0.2"/>
</g>
<g opacity="0.5">
<ellipse cx="281" cy="213.002" rx="141.589" ry="78.2296" fill="#00F0FF" fill-opacity="0.08"/>
<path d="M422.089 213.002C422.089 234.339 406.43 253.762 380.877 267.881C355.342 281.989 320.031 290.731 281 290.731C241.97 290.731 206.659 281.989 181.123 267.881C155.57 253.762 139.911 234.339 139.911 213.002C139.911 191.664 155.57 172.241 181.123 158.123C206.659 144.014 241.97 135.272 281 135.272C320.031 135.272 355.342 144.014 380.877 158.123C406.43 172.241 422.089 191.664 422.089 213.002Z" stroke="#00F0FF" stroke-opacity="0.2"/>
</g>
<g opacity="0.6">
<ellipse cx="281.001" cy="212.999" rx="104.558" ry="57.7695" fill="#00F0FF" fill-opacity="0.08"/>
<path d="M385.059 212.999C385.059 228.686 373.544 242.995 354.692 253.411C335.858 263.817 309.805 270.269 281.001 270.269C252.196 270.269 226.143 263.817 207.309 253.411C188.457 242.995 176.942 228.686 176.942 212.999C176.942 197.312 188.457 183.003 207.309 172.587C226.143 162.181 252.196 155.729 281.001 155.729C309.805 155.729 335.858 162.181 354.692 172.587C373.544 183.003 385.059 197.312 385.059 212.999Z" stroke="#00F0FF" stroke-opacity="0.2"/>
</g>
<g opacity="0.7">
<ellipse cx="281" cy="212.999" rx="74.062" ry="40.9201" fill="#00F0FF" fill-opacity="0.08"/>
<path d="M354.563 212.999C354.563 224.033 346.461 234.13 333.128 241.496C319.813 248.853 301.384 253.419 281 253.419C260.617 253.419 242.188 248.853 228.873 241.496C215.54 234.13 207.438 224.033 207.438 212.999C207.438 201.965 215.54 191.869 228.873 184.502C242.188 177.145 260.617 172.579 281 172.579C301.384 172.579 319.813 177.145 333.128 184.502C346.461 191.869 354.563 201.965 354.563 212.999Z" stroke="#00F0FF" stroke-opacity="0.2"/>
</g>
<ellipse cx="281" cy="213" rx="34.8527" ry="19.2565" fill="#00F0FF" fill-opacity="0.08"/>
<path d="M315.353 213C315.353 218.052 311.64 222.732 305.403 226.178C299.183 229.615 290.556 231.756 281 231.756C271.444 231.756 262.817 229.615 256.597 226.178C250.36 222.732 246.647 218.052 246.647 213C246.647 207.948 250.36 203.267 256.597 199.821C262.817 196.384 271.444 194.243 281 194.243C290.556 194.243 299.183 196.384 305.403 199.821C311.64 203.267 315.353 207.948 315.353 213Z" stroke="#00F0FF" stroke-opacity="0.2"/>
<path d="M295.094 144.286C292.938 143.053 283.862 137.804 280.777 136.019C280.164 135.671 279.778 135.444 279.748 135.422C278.214 134.566 276.421 134.298 274.704 134.665C273.229 134.965 271.817 135.515 270.529 136.292C270.317 136.413 270.105 136.556 269.901 136.692C266.415 138.893 263.42 142.357 260.924 147.122C258.382 151.763 257.019 156.957 256.953 162.248C256.953 167.26 258.289 170.776 260.962 172.798C261.232 173 261.515 173.184 261.809 173.35C264.312 174.772 276.867 182.048 277.146 182.207H277.215C276.906 182.038 276.61 181.845 276.33 181.632C273.652 179.615 272.316 176.101 272.321 171.089C272.387 165.798 273.75 160.604 276.292 155.963C278.929 150.921 282.128 147.308 285.889 145.125C289.469 143.058 292.56 142.788 295.162 144.316L295.094 144.286Z" fill="#00F0FF"/>
<path opacity="0.4" d="M295.163 144.331C292.561 142.818 289.47 143.086 285.89 145.133C282.396 147.149 279.384 150.427 276.852 154.965L261.484 146.063C263.859 141.82 266.665 138.696 269.894 136.662C270.099 136.533 270.31 136.382 270.522 136.261C271.809 135.483 273.222 134.936 274.697 134.643C276.414 134.271 278.209 134.54 279.742 135.399L280.77 135.996C283.856 137.774 292.932 143.022 295.087 144.255L295.163 144.331Z" fill="black"/>
<path opacity="0.3" d="M277.215 182.184H277.146C276.867 182.025 264.289 174.749 261.809 173.328C261.515 173.161 261.232 172.977 260.962 172.775C258.289 170.759 256.953 167.244 256.953 162.233C257.017 156.941 258.381 151.747 260.924 147.106C261.105 146.751 261.294 146.403 261.491 146.07L276.852 154.942C276.662 155.275 276.473 155.622 276.292 155.97C273.75 160.612 272.387 165.805 272.321 171.096C272.321 176.108 273.657 179.623 276.33 181.639C276.611 181.842 276.907 182.024 277.215 182.184Z" fill="black"/>
<path d="M288.394 14.5038C295.851 10.1929 302.199 8.36008 307.437 9.00546C309.569 9.26016 311.628 9.94453 313.488 11.0172C313.436 10.9898 313.385 10.9595 313.336 10.9265C311.536 9.91302 300.691 3.65838 298.21 2.19871C296.318 1.09273 294.216 0.392191 292.039 0.141564C286.795 -0.498774 280.445 1.33148 272.988 5.63234C261.391 12.3231 252.063 22.1551 245.004 35.1282C237.946 48.1014 234.454 61.3443 234.53 74.8569L249.89 83.7284C249.784 70.2056 253.276 56.9602 260.365 43.9921C267.454 31.024 276.797 21.1946 288.394 14.5038Z" fill="#00F0FF"/>
<path opacity="0.2" d="M313.366 10.9338C311.534 9.91286 309.52 9.25786 307.437 9.0052C302.203 8.35982 295.855 10.1926 288.393 14.5035C276.797 21.1893 267.469 31.0212 260.41 43.9994C260.115 44.5364 259.828 45.0809 259.548 45.6179L244.149 36.7313C244.429 36.1944 244.717 35.6498 245.012 35.1128C252.101 22.1498 261.428 12.3178 272.995 5.61696C280.462 1.31106 286.813 -0.519196 292.046 0.126184C294.224 0.379355 296.326 1.08246 298.218 2.1909C300.721 3.66569 311.566 9.9279 313.366 10.9338Z" fill="black"/>
<path opacity="0.3" d="M259.51 45.6029C253.001 58.0517 249.797 70.7551 249.898 83.7131L234.537 74.8416C234.441 61.8786 237.646 49.1752 244.15 36.7314L259.51 45.6029Z" fill="black"/>
<path d="M298.83 39.6434C296.042 38.1611 292.318 38.7409 287.659 41.3829C287.502 44.1548 286.931 46.8875 285.965 49.4905C284.8 52.6266 281.412 59.0956 275.8 68.8973C269.987 79.0318 265.782 88.7099 263.185 97.9318C260.61 107.037 259.302 116.453 259.298 125.915L259.373 130.627L269.856 136.677L274.742 139.498L274.658 134.779V134.718C274.675 125.287 275.983 115.902 278.546 106.826C281.142 97.6041 285.35 87.9284 291.169 77.799C296.775 67.9973 300.161 61.5258 301.326 58.3846C302.489 55.2792 303.083 51.9898 303.08 48.6737C303.08 44.1611 301.664 41.151 298.83 39.6434Z" fill="#00F0FF"/>
<path opacity="0.3" d="M299.821 61.7799C298.086 65.39 295.202 70.7195 291.169 77.7682C285.345 87.9027 281.137 97.5809 278.546 106.803C275.98 115.886 274.672 125.279 274.658 134.718V134.839L274.742 139.558L269.856 136.745L259.373 130.694L259.298 125.975C259.302 116.513 260.61 107.097 263.185 97.9918C265.782 88.77 269.987 79.0918 275.8 68.9573C279.834 61.8984 282.723 56.5715 284.468 52.9766L299.821 61.7799Z" fill="black"/>
<path opacity="0.4" d="M303.08 48.6737C303.082 51.9791 302.49 55.258 301.333 58.3544C301.008 59.2393 300.501 60.3813 299.821 61.7804L284.468 52.9166C285.138 51.5149 285.643 50.3728 285.98 49.4905C286.946 46.8875 287.517 44.1548 287.674 41.3829C292.333 38.7409 296.057 38.1611 298.845 39.6434C301.633 41.1258 303.045 44.1359 303.08 48.6737Z" fill="black"/>
<path d="M270.688 71.7029L249.897 83.713C249.791 70.1902 253.283 56.9448 260.372 43.9767C267.461 31.0086 276.789 21.1767 288.355 14.4808C295.812 10.1699 302.16 8.33712 307.399 8.9825C312.637 9.62788 316.83 12.4993 319.976 17.5968C323.127 22.6943 324.703 29.0523 324.703 36.6708C324.672 41.0939 324.165 45.5008 323.19 49.8154C322.012 54.9766 320.421 60.0348 318.433 64.9415C317.163 68.1482 314.12 74.0676 309.305 82.6995C304.701 90.9281 301.817 96.5273 300.652 99.4971C299.36 103.022 298.4 106.661 297.786 110.365C296.87 115.902 296.365 121.499 296.273 127.11L274.772 139.528L274.689 134.809C274.693 125.347 276.001 115.931 278.576 106.826C281.173 97.6038 285.38 87.9281 291.199 77.7987C296.805 67.997 300.191 61.5255 301.356 58.3843C302.509 55.277 303.093 51.9876 303.08 48.6734C303.08 44.1355 301.666 41.1255 298.837 39.6431C296.009 38.1607 292.212 38.7809 287.447 41.5036C282.577 44.3171 278.581 48.5372 275.46 54.1641C272.408 59.5111 270.765 65.5465 270.688 71.7029Z" fill="#00F0FF"/>
<path d="M285.852 145.178C289.709 142.944 293.002 142.805 295.729 144.762C298.457 146.718 299.821 150.2 299.821 155.206C299.738 160.526 298.349 165.744 295.775 170.4C293.082 175.518 289.828 179.179 286.011 181.382C282.194 183.585 278.952 183.676 276.285 181.654C273.613 179.637 272.276 176.121 272.276 171.104C272.342 165.813 273.706 160.619 276.247 155.978C278.894 150.946 282.096 147.346 285.852 145.178Z" fill="#00F0FF"/>
</svg>
