<svg width="301" height="253" viewBox="0 0 301 253" fill="none" xmlns="http://www.w3.org/2000/svg">
<path d="M288.577 213.029C272.869 203.987 247.497 203.987 231.891 213.029C216.286 222.071 216.372 236.75 232.072 245.792C247.772 254.834 273.161 254.843 288.758 245.792C304.354 236.741 304.277 222.08 288.577 213.029Z" fill="#E0E0E0"/>
<path d="M17.8329 222.764L31.4434 223.159L45.0538 222.764C45.6385 231.935 43.8501 241.286 41.3739 245.85C40.7913 247.022 39.8524 247.979 38.6914 248.587C34.6762 250.903 28.1848 250.903 24.1953 248.587C23.0116 247.972 22.063 246.986 21.4956 245.781C19.0194 241.192 17.2482 231.892 17.8329 222.764Z" fill="white"/>
<path d="M21.8476 217.196C16.5169 220.276 16.4825 225.252 21.7874 228.349C27.0923 231.446 35.6988 231.429 41.0381 228.349C46.3774 225.269 46.3946 220.302 41.0983 217.196C35.802 214.091 27.1783 214.125 21.8476 217.196Z" fill="#EBEBEB"/>
<path d="M23.9546 218.423C19.7933 220.817 19.7761 224.703 23.9546 227.105C28.1332 229.507 34.8138 229.499 38.9665 227.105C43.1193 224.712 43.1537 220.817 39.0181 218.423C34.8825 216.03 28.116 216.03 23.9546 218.423Z" fill="#E0E0E0"/>
<g opacity="0.15">
<path d="M23.9546 218.423C19.7933 220.817 19.7761 224.703 23.9546 227.105C28.1332 229.507 34.8138 229.499 38.9665 227.105C43.1193 224.712 43.1537 220.817 39.0181 218.423C34.8825 216.03 28.116 216.03 23.9546 218.423Z" fill="black"/>
</g>
<path d="M9.0625 164.805C39.7398 174.825 40.0149 195.303 33.1366 209.887C31.417 212.838 26.1121 214.425 21.5208 196.29L29.5771 197.319L20.1882 192.566L17.712 185.334L25.536 185.918L15.6055 181.748C13.7785 175.971 11.5933 170.312 9.0625 164.805Z" fill="#00F0FF"/>
<path opacity="0.2" d="M9.0625 164.805C39.7398 174.825 40.0149 195.303 33.1366 209.887C31.417 212.838 26.1121 214.425 21.5208 196.29L29.5771 197.319L20.1882 192.566L17.712 185.334L25.536 185.918L15.6055 181.748C13.7785 175.971 11.5933 170.312 9.0625 164.805Z" fill="black"/>
<path opacity="0.2" d="M9.0625 164.805C39.7398 174.825 40.0149 195.303 33.1366 209.887C31.417 212.838 26.1121 214.425 21.5208 196.29L29.5771 197.319L20.1882 192.566L17.712 185.334L25.536 185.918L15.6055 181.748C13.7785 175.971 11.5933 170.312 9.0625 164.805Z" fill="white"/>
<path d="M17.7383 169.892C33.9109 182.143 35.3725 196.187 30.8071 210.848C32.4235 197.971 34.1688 184.914 17.7383 169.892Z" fill="white"/>
<path d="M61.0453 185.6C30.8065 189.89 27.1352 208.875 31.1504 223.605C32.2854 226.642 36.9368 228.992 44.2364 212.864L36.5585 212.487L46.0936 209.621L49.5327 203.256L42.1299 202.492L52.0777 200.262C54.7633 195.196 57.7581 190.3 61.0453 185.6Z" fill="#00F0FF"/>
<path opacity="0.2" d="M61.0453 185.6C30.8065 189.89 27.1352 208.875 31.1504 223.605C32.2854 226.642 36.9368 228.992 44.2364 212.864L36.5585 212.487L46.0936 209.621L49.5327 203.256L42.1299 202.492L52.0777 200.262C54.7633 195.196 57.7581 190.3 61.0453 185.6Z" fill="white"/>
<path opacity="0.1" d="M61.0453 185.6C30.8065 189.89 27.1352 208.875 31.1504 223.605C32.2854 226.642 36.9368 228.992 44.2364 212.864L36.5585 212.487L46.0936 209.621L49.5327 203.256L42.1299 202.492L52.0777 200.262C54.7633 195.196 57.7581 190.3 61.0453 185.6Z" fill="black"/>
<path d="M52.0862 188.938C34.9764 197.662 31.2794 210.505 33.0935 224.917C33.7383 212.624 34.2886 200.176 52.0862 188.938Z" fill="white"/>
<path d="M0.207031 192.729C27.9438 193.184 33.3863 209.887 31.4173 223.613C30.7381 226.479 26.8089 229.113 18.4173 215.395L25.2957 214.194L16.3796 212.675L12.5278 207.322L19.0966 205.821L9.87965 204.912C6.91129 200.655 3.68086 196.586 0.207031 192.729Z" fill="#00F0FF"/>
<path d="M8.59863 194.771C24.9948 200.725 29.7752 211.929 29.758 225.08C27.8321 214.039 25.9406 202.878 8.59863 194.771Z" fill="white"/>
<path opacity="0.2" d="M0.207031 192.729C27.9438 193.184 33.3863 209.887 31.4173 223.613C30.7381 226.479 26.8089 229.113 18.4173 215.395L25.2957 214.194L16.3796 212.675L12.5278 207.322L19.0966 205.821L9.87965 204.912C6.91129 200.655 3.68086 196.586 0.207031 192.729Z" fill="white"/>
<path d="M180.293 230.331L157.887 243.122C154.668 244.969 151.02 245.94 147.307 245.94C143.594 245.94 139.946 244.969 136.727 243.122L120.107 233.531C119.139 232.974 118.335 232.173 117.775 231.208C117.215 230.243 116.919 229.147 116.918 228.032V216.708L113.479 218.715V228.547C113.478 229.85 113.822 231.13 114.476 232.258C115.129 233.386 116.07 234.322 117.201 234.972L136.977 246.331C140.147 248.146 143.738 249.101 147.393 249.101C151.048 249.101 154.639 248.146 157.809 246.331L180.379 233.463C181.915 232.588 183.138 231.256 183.876 229.653C184.615 228.049 184.832 226.256 184.497 224.523C184.271 225.742 183.776 226.894 183.049 227.899C182.322 228.903 181.38 229.734 180.293 230.331Z" fill="#00F0FF"/>
<path opacity="0.1" d="M180.293 230.331L157.887 243.122C154.668 244.969 151.02 245.94 147.307 245.94C143.594 245.94 139.946 244.969 136.727 243.122L120.107 233.531C119.139 232.974 118.335 232.173 117.775 231.208C117.215 230.243 116.919 229.147 116.918 228.032V216.708L113.479 218.715V228.547C113.478 229.85 113.822 231.13 114.476 232.258C115.129 233.386 116.07 234.322 117.201 234.972L136.977 246.331C140.147 248.146 143.738 249.101 147.393 249.101C151.048 249.101 154.639 248.146 157.809 246.331L180.379 233.463C181.915 232.588 183.138 231.256 183.876 229.653C184.615 228.049 184.832 226.256 184.497 224.523C184.271 225.742 183.776 226.894 183.049 227.899C182.322 228.903 181.38 229.734 180.293 230.331Z" fill="black"/>
<path d="M120.108 233.531L136.736 243.088C139.955 244.934 143.603 245.906 147.316 245.906C151.029 245.906 154.677 244.934 157.896 243.088L180.293 230.331C181.363 229.726 182.287 228.893 182.998 227.893C183.71 226.892 184.192 225.747 184.412 224.54C184.198 223.362 183.732 222.243 183.047 221.261C182.362 220.278 181.472 219.453 180.44 218.844L162.057 207.846C160.957 207.185 160.046 206.252 159.413 205.136C158.781 204.021 158.447 202.762 158.446 201.48V192.755L116.893 216.725V228.049C116.9 229.164 117.201 230.257 117.765 231.219C118.329 232.181 119.138 232.979 120.108 233.531Z" fill="#00F0FF"/>
<path opacity="0.4" d="M104.108 217.531C103.14 216.974 102.336 216.173 101.776 215.208C101.216 214.242 100.92 213.147 100.919 212.032V200.708L97.4795 202.715V212.547C97.4792 213.85 97.8232 215.13 98.4768 216.258C99.1304 217.386 100.071 218.322 101.202 218.972L108.201 223.004V219.856L104.108 217.531Z" fill="black"/>
<path opacity="0.3" d="M104.108 217.531L108.158 219.856L151.543 195.123L146.066 191.846C144.966 191.185 144.055 190.252 143.422 189.137C142.789 188.021 142.456 186.762 142.455 185.48V176.756L100.901 200.725V212.049C100.908 213.163 101.207 214.256 101.77 215.218C102.333 216.18 103.139 216.978 104.108 217.531Z" fill="black"/>
<path d="M55.4273 248.732L55.1005 114.705C55.2146 112.627 55.8193 110.607 56.8653 108.807C57.9112 107.007 59.3688 105.48 61.1191 104.35L228.09 8.41225C229.741 7.46 231.237 7.36563 232.329 7.97474L226.044 4.32013C224.943 3.62524 223.396 3.6853 221.676 4.67187L54.705 100.635C52.9533 101.764 51.4947 103.291 50.4485 105.091C49.4024 106.891 48.7985 108.912 48.6865 110.99L48.9874 245.018C48.9874 246.819 49.5979 248.098 50.5867 248.758C50.6924 248.831 50.8047 248.894 50.922 248.947L57.121 252.55C56.0979 251.924 55.4359 250.611 55.4273 248.732Z" fill="#455A64"/>
<path opacity="0.2" d="M226.043 4.32013C224.943 3.62524 223.395 3.6853 221.675 4.67187L54.7046 100.635C52.7291 101.879 51.1394 103.646 50.1133 105.74L56.5359 109.446C57.564 107.358 59.1499 105.595 61.1186 104.35L228.089 8.41225C229.74 7.46 231.236 7.36563 232.328 7.97474L226.043 4.32013Z" fill="#00F0FF"/>
<path opacity="0.1" d="M48.7119 110.99L49.0128 245.018C49.0128 246.819 49.6233 248.098 50.612 248.758C50.7178 248.831 50.8301 248.894 50.9474 248.947L57.1464 252.55C56.0889 251.915 55.4269 250.603 55.4269 248.724L55.1001 114.705C55.1522 112.866 55.6351 111.065 56.5102 109.446L50.0876 105.74C49.2239 107.358 48.7528 109.157 48.7119 110.99Z" fill="#00F0FF"/>
<path d="M55.1436 122.477L55.4273 248.732C55.4273 250.611 56.0979 251.924 57.1469 252.559L57.2414 252.619C58.3248 253.185 59.8208 253.082 61.4114 252.147L228.434 156.226C230.184 155.096 231.642 153.569 232.688 151.769C233.734 149.97 234.338 147.949 234.452 145.872L234.169 19.4019L55.1436 122.477Z" fill="#455A64"/>
<path d="M63.7588 127.427L225.58 34.2346L225.829 145.872C225.6 147.006 224.994 148.031 224.109 148.78L64.0081 240.805L63.7588 127.427Z" fill="#455A64"/>
<path opacity="0.2" d="M55.1436 122.477L55.4273 248.732C55.4273 250.611 56.0979 251.924 57.1469 252.559L57.2414 252.619C58.3248 253.185 59.8208 253.082 61.4114 252.147L228.434 156.226C230.184 155.096 231.642 153.569 232.688 151.769C233.734 149.97 234.338 147.949 234.452 145.872L234.169 19.4019L55.1436 122.477Z" fill="white"/>
<path d="M227.213 27.8005C228.761 26.9427 230.025 27.6204 230.025 29.4048C229.975 30.3729 229.695 31.3154 229.21 32.1549C228.724 32.9945 228.046 33.7072 227.231 34.2347L84.1015 116.789C82.5625 117.647 81.2986 116.969 81.29 115.194C81.3395 114.224 81.6185 113.28 82.1043 112.439C82.59 111.598 83.2686 110.884 84.0844 110.355L227.213 27.8005Z" fill="#455A64"/>
<g opacity="0.8">
<path d="M227.213 27.8005C228.761 26.9427 230.025 27.6204 230.025 29.4048C229.975 30.3729 229.695 31.3154 229.21 32.1549C228.724 32.9945 228.046 33.7072 227.231 34.2347L84.1015 116.789C82.5625 117.647 81.2986 116.969 81.29 115.194C81.3395 114.224 81.6185 113.28 82.1043 112.439C82.59 111.598 83.2686 110.884 84.0844 110.355L227.213 27.8005Z" fill="white"/>
</g>
<path d="M63.0618 123.918C63.0914 123.905 63.1237 123.897 63.1563 123.897C63.189 123.897 63.2213 123.905 63.2509 123.918C63.3713 123.978 63.3799 124.176 63.2509 124.364L62.3911 126.029L65.4434 124.27C65.5981 124.176 65.7271 124.27 65.7271 124.433C65.7209 124.53 65.692 124.624 65.6427 124.707C65.5934 124.791 65.5251 124.861 65.4434 124.914L62.3911 126.672L63.3025 127.29C63.4143 127.359 63.4057 127.564 63.3025 127.753C63.2555 127.833 63.1908 127.9 63.1134 127.95C63.0831 127.972 63.0471 127.983 63.0102 127.983C62.9733 127.983 62.9373 127.972 62.907 127.95L61.5227 126.998C61.4983 126.98 61.4779 126.956 61.4626 126.93C61.4578 126.893 61.4578 126.855 61.4626 126.818C61.4584 126.781 61.4584 126.744 61.4626 126.707C61.473 126.659 61.4904 126.612 61.5141 126.569L62.8554 124.107C62.9058 124.027 62.9771 123.962 63.0618 123.918Z" fill="#455A64"/>
<path d="M70.7653 119.483C70.7964 119.46 70.8341 119.448 70.8728 119.448C70.9115 119.448 70.9492 119.46 70.9803 119.483L72.3215 120.384L72.3817 120.453C72.3858 120.49 72.3858 120.527 72.3817 120.564C72.3853 120.604 72.3853 120.644 72.3817 120.684L72.3301 120.813L70.9889 123.275C70.941 123.366 70.8698 123.443 70.7825 123.498C70.7522 123.515 70.7182 123.523 70.6836 123.523C70.6491 123.523 70.6151 123.515 70.5848 123.498C70.473 123.447 70.4644 123.241 70.5848 123.052L71.4961 121.388L68.4439 123.146C68.2891 123.241 68.1602 123.146 68.1602 122.992C68.1636 122.893 68.1913 122.797 68.2408 122.712C68.2903 122.627 68.36 122.555 68.4439 122.503L71.4961 120.744L70.5762 120.135C70.473 120.058 70.4816 119.852 70.5762 119.663C70.622 119.588 70.6873 119.525 70.7653 119.483Z" fill="#455A64"/>
<path d="M76.4057 116.232C76.683 116.052 77.0141 115.973 77.3429 116.009C77.3553 115.919 77.3862 115.834 77.4336 115.757C77.4809 115.68 77.5437 115.614 77.618 115.563C77.7728 115.477 77.8931 115.563 77.8845 115.743V116.463C77.8749 116.556 77.8454 116.645 77.7979 116.725C77.7504 116.805 77.6861 116.874 77.6094 116.927L76.999 117.313C76.8528 117.398 76.7238 117.313 76.7238 117.167C76.723 117.082 76.7411 116.998 76.7768 116.921C76.8125 116.844 76.8649 116.775 76.9302 116.721C76.7505 116.728 76.5758 116.781 76.4229 116.875C76.0778 117.097 75.7909 117.398 75.5861 117.754C75.3812 118.109 75.2642 118.508 75.245 118.917C75.245 119.663 75.7781 119.964 76.4315 119.586C76.9136 119.279 77.2796 118.82 77.4718 118.282C77.5156 118.153 77.604 118.043 77.7212 117.973C77.763 117.959 77.8084 117.959 77.8501 117.973C77.9877 117.973 78.0393 118.145 77.9705 118.351C77.6834 119.145 77.1427 119.823 76.4315 120.281C75.4685 120.83 74.7119 120.384 74.7119 119.277C74.7319 118.672 74.8959 118.08 75.1904 117.55C75.485 117.021 75.9015 116.569 76.4057 116.232Z" fill="#455A64"/>
<g opacity="0.7">
<path d="M63.0618 123.918C63.0914 123.905 63.1237 123.897 63.1563 123.897C63.189 123.897 63.2213 123.905 63.2509 123.918C63.3713 123.978 63.3799 124.176 63.2509 124.364L62.3911 126.029L65.4434 124.27C65.5981 124.176 65.7271 124.27 65.7271 124.433C65.7209 124.53 65.692 124.624 65.6427 124.707C65.5934 124.791 65.5251 124.861 65.4434 124.914L62.3911 126.672L63.3025 127.29C63.4143 127.359 63.4057 127.564 63.3025 127.753C63.2555 127.833 63.1908 127.9 63.1134 127.95C63.0831 127.972 63.0471 127.983 63.0102 127.983C62.9733 127.983 62.9373 127.972 62.907 127.95L61.5227 126.998C61.4983 126.98 61.4779 126.956 61.4626 126.93C61.4578 126.893 61.4578 126.855 61.4626 126.818C61.4584 126.781 61.4584 126.744 61.4626 126.707C61.473 126.659 61.4904 126.612 61.5141 126.569L62.8554 124.107C62.9058 124.027 62.9771 123.962 63.0618 123.918Z" fill="white"/>
<path d="M70.7653 119.483C70.7964 119.46 70.8341 119.448 70.8728 119.448C70.9115 119.448 70.9492 119.46 70.9803 119.483L72.3215 120.384L72.3817 120.453C72.3858 120.49 72.3858 120.527 72.3817 120.564C72.3853 120.604 72.3853 120.644 72.3817 120.684L72.3301 120.813L70.9889 123.275C70.941 123.366 70.8698 123.443 70.7825 123.498C70.7522 123.515 70.7182 123.523 70.6836 123.523C70.6491 123.523 70.6151 123.515 70.5848 123.498C70.473 123.447 70.4644 123.241 70.5848 123.052L71.4961 121.388L68.4439 123.146C68.2891 123.241 68.1602 123.146 68.1602 122.992C68.1636 122.893 68.1913 122.797 68.2408 122.712C68.2903 122.627 68.36 122.555 68.4439 122.503L71.4961 120.744L70.5762 120.135C70.473 120.058 70.4816 119.852 70.5762 119.663C70.622 119.588 70.6873 119.525 70.7653 119.483Z" fill="white"/>
<path d="M76.4057 116.232C76.683 116.052 77.0141 115.973 77.3429 116.009C77.3553 115.919 77.3862 115.834 77.4336 115.757C77.4809 115.68 77.5437 115.614 77.618 115.563C77.7728 115.477 77.8931 115.563 77.8845 115.743V116.463C77.8749 116.556 77.8454 116.645 77.7979 116.725C77.7504 116.805 77.6861 116.874 77.6094 116.927L76.999 117.313C76.8528 117.398 76.7238 117.313 76.7238 117.167C76.723 117.082 76.7411 116.998 76.7768 116.921C76.8125 116.844 76.8649 116.775 76.9302 116.721C76.7505 116.728 76.5758 116.781 76.4229 116.875C76.0778 117.097 75.7909 117.398 75.5861 117.754C75.3812 118.109 75.2642 118.508 75.245 118.917C75.245 119.663 75.7781 119.964 76.4315 119.586C76.9136 119.279 77.2796 118.82 77.4718 118.282C77.5156 118.153 77.604 118.043 77.7212 117.973C77.763 117.959 77.8084 117.959 77.8501 117.973C77.9877 117.973 78.0393 118.145 77.9705 118.351C77.6834 119.145 77.1427 119.823 76.4315 120.281C75.4685 120.83 74.7119 120.384 74.7119 119.277C74.7319 118.672 74.8959 118.08 75.1904 117.55C75.485 117.021 75.9015 116.569 76.4057 116.232Z" fill="white"/>
</g>
<path d="M234.126 11.8352C234.126 9.96503 233.455 8.64388 232.406 8.01762H232.363C231.271 7.40852 229.784 7.50289 228.124 8.45514L61.1191 104.35C59.3688 105.48 57.9113 107.007 56.8653 108.807C55.8193 110.607 55.2147 112.627 55.1006 114.705V122.477L234.143 19.4018L234.126 11.8352Z" fill="#455A64"/>
<path opacity="0.3" d="M234.126 11.8352C234.126 9.96503 233.455 8.64388 232.406 8.01762H232.363C231.271 7.40852 229.784 7.50289 228.124 8.45514L61.1191 104.35C59.3688 105.48 57.9113 107.007 56.8653 108.807C55.8193 110.607 55.2147 112.627 55.1006 114.705V122.477L234.143 19.4018L234.126 11.8352Z" fill="black"/>
<g opacity="0.5">
<path d="M63.0789 109.78C63.9387 109.257 64.7211 109.677 64.7211 110.715C64.693 111.282 64.5302 111.833 64.2461 112.324C63.962 112.814 63.5649 113.231 63.0875 113.538C62.1847 114.061 61.4453 113.641 61.4453 112.603C61.4748 112.037 61.6382 111.486 61.9222 110.996C62.2061 110.505 62.6025 110.089 63.0789 109.78Z" fill="white"/>
<path d="M67.5584 107.198C68.4612 106.683 69.2006 107.095 69.2006 108.133C69.1697 108.7 69.0058 109.251 68.722 109.743C68.4383 110.235 68.0426 110.653 67.567 110.964C66.7072 111.479 65.9248 111.067 65.9248 110.029C65.9523 109.462 66.1148 108.909 66.3988 108.417C66.6829 107.924 67.0804 107.507 67.5584 107.198Z" fill="white"/>
<path d="M72.0377 104.624C72.8975 104.101 73.6713 104.521 73.6799 105.559C73.6484 106.125 73.4841 106.675 73.2003 107.165C72.9166 107.655 72.5212 108.072 72.0463 108.382C71.1349 108.905 70.4041 108.485 70.3955 107.447C70.4266 106.88 70.5917 106.329 70.8771 105.839C71.1625 105.348 71.5602 104.932 72.0377 104.624Z" fill="white"/>
</g>
<path d="M63.0789 109.78C63.9387 109.257 64.7211 109.677 64.7211 110.715C64.693 111.282 64.5302 111.833 64.2461 112.324C63.962 112.814 63.5649 113.231 63.0875 113.538C62.1847 114.061 61.4453 113.641 61.4453 112.603C61.4748 112.037 61.6382 111.486 61.9222 110.996C62.2061 110.505 62.6025 110.089 63.0789 109.78Z" fill="#455A64"/>
<path d="M67.5584 107.198C68.4612 106.683 69.2006 107.095 69.2006 108.133C69.1697 108.7 69.0058 109.251 68.722 109.743C68.4383 110.235 68.0426 110.653 67.567 110.964C66.7072 111.479 65.9248 111.067 65.9248 110.029C65.9523 109.462 66.1148 108.909 66.3988 108.417C66.6829 107.924 67.0804 107.507 67.5584 107.198Z" fill="#455A64"/>
<path d="M72.0387 104.624C72.8985 104.101 73.6723 104.521 73.6809 105.559C73.6493 106.125 73.4851 106.675 73.2013 107.165C72.9175 107.655 72.5222 108.072 72.0473 108.382C71.1359 108.905 70.4051 108.485 70.3965 107.447C70.4276 106.88 70.5926 106.329 70.878 105.839C71.1635 105.348 71.5612 104.932 72.0387 104.624Z" fill="#455A64"/>
<path d="M225.699 89.7401L225.596 44.0575C225.596 43.7565 225.516 43.4608 225.365 43.2002C225.214 42.9397 224.997 42.7233 224.736 42.5729C224.474 42.4226 224.178 42.3434 223.876 42.3435C223.574 42.3436 223.278 42.4229 223.017 42.5734L153.193 82.6968C152.54 83.0733 151.997 83.6147 151.62 84.2668C151.243 84.9189 151.044 85.6585 151.044 86.4115V132.145C151.044 132.446 151.124 132.742 151.275 133.003C151.426 133.263 151.643 133.48 151.904 133.63C152.166 133.78 152.462 133.86 152.764 133.859C153.066 133.859 153.362 133.78 153.623 133.63L223.55 93.4461C224.202 93.0704 224.744 92.5303 225.121 91.8798C225.498 91.2294 225.698 90.4915 225.699 89.7401Z" fill="#37474F"/>
<path d="M143.701 88.153L65.9249 132.84C65.2689 133.218 64.7246 133.762 64.3471 134.418C63.9696 135.073 63.7724 135.816 63.7754 136.572L63.8786 182.246C63.8789 182.547 63.9586 182.843 64.1096 183.103C64.2607 183.364 64.4778 183.58 64.7392 183.731C65.0005 183.881 65.2969 183.96 65.5986 183.96C65.9003 183.96 66.1967 183.881 66.458 183.73L144.123 139.12C144.778 138.745 145.322 138.204 145.701 137.552C146.08 136.899 146.28 136.159 146.281 135.405V89.6371C146.28 89.3361 146.201 89.0404 146.05 88.7798C145.899 88.5192 145.682 88.3029 145.42 88.1525C145.159 88.0021 144.862 87.923 144.561 87.9231C144.259 87.9232 143.963 88.0024 143.701 88.153Z" fill="#37474F"/>
<path opacity="0.1" d="M143.701 88.153L65.9249 132.84C65.2689 133.218 64.7246 133.762 64.3471 134.418C63.9696 135.073 63.7724 135.816 63.7754 136.572L63.8786 182.246C63.8789 182.547 63.9586 182.843 64.1096 183.103C64.2607 183.364 64.4778 183.58 64.7392 183.731C65.0005 183.881 65.2969 183.96 65.5986 183.96C65.9003 183.96 66.1967 183.881 66.458 183.73L144.123 139.12C144.778 138.745 145.322 138.204 145.701 137.552C146.08 136.899 146.28 136.159 146.281 135.405V89.6371C146.28 89.3361 146.201 89.0404 146.05 88.7798C145.899 88.5192 145.682 88.3029 145.42 88.1525C145.159 88.0021 144.862 87.923 144.561 87.9231C144.259 87.9232 143.963 88.0024 143.701 88.153Z" fill="white"/>
<path d="M151.044 140.793V187.822C151.043 188.124 151.121 188.421 151.272 188.683C151.422 188.945 151.639 189.162 151.901 189.314C152.162 189.465 152.459 189.545 152.762 189.545C153.064 189.545 153.361 189.466 153.623 189.315L224.126 148.797C225.011 148.048 225.616 147.024 225.846 145.889L225.742 100.841C225.742 100.54 225.662 100.245 225.511 99.9839C225.36 99.7233 225.143 99.507 224.882 99.3566C224.62 99.2062 224.324 99.1271 224.022 99.1272C223.721 99.1273 223.424 99.2065 223.163 99.3571L151.044 140.793Z" fill="#37474F"/>
<path opacity="0.1" d="M151.044 140.793V187.822C151.043 188.124 151.121 188.421 151.272 188.683C151.422 188.945 151.639 189.162 151.901 189.314C152.162 189.465 152.459 189.545 152.762 189.545C153.064 189.545 153.361 189.466 153.623 189.315L224.126 148.797C225.011 148.048 225.616 147.024 225.846 145.889L225.742 100.841C225.742 100.54 225.662 100.245 225.511 99.9839C225.36 99.7233 225.143 99.507 224.882 99.3566C224.62 99.2062 224.324 99.1271 224.022 99.1272C223.721 99.1273 223.424 99.2065 223.163 99.3571L151.044 140.793Z" fill="white"/>
<path d="M63.9043 193.347L63.9989 237.846C64.0007 238.146 64.0815 238.441 64.2332 238.7C64.3848 238.96 64.6021 239.175 64.8632 239.324C65.1243 239.473 65.4201 239.552 65.7211 239.551C66.022 239.551 66.3176 239.472 66.5783 239.321L144.123 194.771C144.779 194.395 145.324 193.853 145.703 193.199C146.082 192.545 146.281 191.803 146.281 191.048V146.498C146.282 146.196 146.203 145.899 146.053 145.638C145.902 145.376 145.685 145.158 145.424 145.007C145.162 144.856 144.865 144.776 144.563 144.775C144.26 144.775 143.963 144.854 143.701 145.005L66.0538 189.615C65.3978 189.993 64.8535 190.538 64.476 191.193C64.0985 191.848 63.9013 192.591 63.9043 193.347Z" fill="#37474F"/>
<path d="M98.5374 143.718L90.2232 149.964C87.8747 151.728 85.931 153.972 84.5224 156.547C83.1137 159.121 82.2726 161.966 82.0553 164.891L81.29 175.186L127.048 148.891L124.563 145.22C123.304 143.356 121.509 141.916 119.415 141.088C117.32 140.259 115.024 140.082 112.827 140.579L108.15 141.642L98.5374 143.718Z" fill="white"/>
<path d="M93.5162 131.562C93.7715 130.947 94.2464 130.449 94.8489 130.164C94.9765 130.097 95.1124 130.048 95.253 130.018C95.6563 129.951 96.07 129.983 96.4581 130.111C96.8462 130.24 97.197 130.461 97.4799 130.756C98.0366 131.358 98.4121 132.104 98.5632 132.909C98.7081 133.711 98.7972 134.522 98.8297 135.337C98.9491 136.781 99.1732 138.215 99.5004 139.626C99.6723 140.392 100.009 141.112 100.487 141.736C100.965 142.359 101.573 142.872 102.269 143.238L102.363 143.289C104.384 144.29 106.586 144.874 108.838 145.005V147.459C110.617 149.878 111.116 154.511 106.413 153.129C101.71 151.748 98.675 148.626 98.675 145.554C98.675 144.259 98.6062 142.595 98.5804 141.11C98.5374 139.103 98.4944 137.43 98.4944 137.43C98.0502 137.922 97.436 138.229 96.7748 138.288C96.477 138.349 96.1699 138.349 95.8721 138.288C95.4398 138.151 95.0397 137.928 94.6955 137.633C94.3513 137.339 94.0702 136.978 93.8688 136.572C93.4708 135.771 93.2509 134.893 93.2239 133.999C93.1278 133.175 93.2279 132.34 93.5162 131.562Z" fill="#8C5C5B"/>
<path d="M95.0377 123.086C95.9871 121.998 97.3078 121.301 98.7434 121.13L118.054 122.915C120.281 127.633 118.51 130.738 118.51 130.738C118.811 137.928 119.06 142.492 115.888 144.001C113.652 144.894 111.232 145.23 108.837 144.979C106.586 144.848 104.384 144.264 102.363 143.264L102.26 143.212C101.564 142.841 100.957 142.325 100.479 141.699C100.001 141.073 99.6642 140.351 99.4914 139.583C99.1677 138.186 98.9464 136.766 98.8294 135.337C98.7968 134.522 98.7077 133.711 98.5628 132.909C98.4117 132.104 98.0362 131.358 97.4795 130.756C97.1966 130.461 96.8459 130.24 96.4578 130.111C96.0697 129.983 95.656 129.951 95.2526 130.018C95.112 130.048 94.9761 130.097 94.8485 130.164C94.2983 126.998 94.1435 124.21 95.0377 123.086Z" fill="#263238"/>
<path d="M102.114 123.635C102.448 124.976 102.361 126.386 101.864 127.676C101.358 128.95 100.947 130.261 100.635 131.596C100.381 132.938 100.568 134.325 101.168 135.551C101.469 136.161 101.901 136.697 102.433 137.121C102.965 137.545 103.584 137.847 104.246 138.005C106.318 138.442 108.347 137.241 110.428 136.838C112.425 136.484 114.484 136.845 116.24 137.859C116.388 137.948 116.557 137.997 116.729 138.002C116.902 138.007 117.073 137.967 117.226 137.887C117.379 137.807 117.508 137.689 117.602 137.544C117.696 137.399 117.751 137.233 117.762 137.061C118.011 132.926 118.003 126.449 117.392 123.404L102.114 123.635Z" fill="#8C5C5B"/>
<path d="M117.065 119.895L119.464 118.231C119.715 119.031 119.762 119.882 119.601 120.706C119.441 121.529 119.077 122.3 118.544 122.949C117.447 124.221 115.96 125.096 114.314 125.437C112.676 125.768 110.997 125.844 109.336 125.66C106.902 125.463 104.494 125.024 102.148 124.347C101.088 124.129 100.11 123.618 99.3277 122.872C98.8394 122.25 98.5614 121.49 98.5336 120.701C98.5057 119.911 98.7296 119.134 99.173 118.479C99.6353 117.838 100.228 117.302 100.913 116.906C101.597 116.51 102.358 116.262 103.145 116.18C104.749 116.053 106.362 116.18 107.926 116.558C109.489 116.936 111.105 117.052 112.706 116.901C113.51 116.817 114.28 116.539 114.952 116.091C115.623 115.642 116.174 115.037 116.558 114.327C117.916 116.549 117.065 119.895 117.065 119.895Z" fill="#263238"/>
<path d="M111.004 130.97L114.529 135.225L111.296 136.366L111.004 130.97Z" fill="#F28F8F"/>
<path d="M111.004 130.97L114.529 135.225L111.296 136.366L111.004 130.97Z" fill="#7D4B4A"/>
<path d="M108.338 138.477L111.055 139.334C110.88 139.652 110.609 139.906 110.28 140.061C109.951 140.215 109.581 140.261 109.224 140.192C108.899 140.054 108.632 139.807 108.471 139.494C108.309 139.181 108.262 138.821 108.338 138.477Z" fill="#F28F8F"/>
<path d="M108.338 138.477L111.055 139.334C110.88 139.652 110.609 139.906 110.28 140.061C109.951 140.215 109.581 140.261 109.224 140.192C108.899 140.054 108.632 139.807 108.471 139.494C108.309 139.181 108.262 138.821 108.338 138.477Z" fill="#7D4B4A"/>
<path d="M110.127 140.107C109.85 140.202 109.553 140.22 109.267 140.158C109.02 140.059 108.807 139.89 108.655 139.672C108.502 139.454 108.416 139.197 108.407 138.931C108.798 138.864 109.2 138.948 109.531 139.167C109.862 139.385 110.096 139.721 110.187 140.107H110.127Z" fill="#F28F8F"/>
<path d="M106.215 131.905C106.227 132.094 106.295 132.276 106.41 132.426C106.525 132.577 106.682 132.691 106.862 132.752C107.042 132.814 107.236 132.821 107.419 132.774C107.603 132.726 107.769 132.625 107.895 132.483C108.021 132.341 108.103 132.166 108.129 131.978C108.156 131.79 108.126 131.599 108.044 131.428C107.962 131.257 107.831 131.115 107.668 131.018C107.504 130.921 107.316 130.875 107.126 130.884C106.999 130.891 106.874 130.923 106.759 130.978C106.644 131.033 106.542 131.11 106.457 131.205C106.372 131.3 106.307 131.411 106.265 131.531C106.224 131.651 106.207 131.778 106.215 131.905Z" fill="#263238"/>
<path d="M114.306 131.159C114.323 131.414 114.44 131.652 114.632 131.822C114.823 131.991 115.073 132.08 115.329 132.068C115.571 132.036 115.793 131.914 115.949 131.727C116.106 131.539 116.185 131.299 116.172 131.055C116.159 130.812 116.055 130.582 115.879 130.412C115.704 130.242 115.47 130.144 115.226 130.138C114.969 130.153 114.728 130.269 114.556 130.46C114.384 130.651 114.294 130.902 114.306 131.159Z" fill="#263238"/>
<path d="M115.045 127.264L117.263 128.628C117.343 128.36 117.338 128.073 117.248 127.808C117.159 127.542 116.99 127.31 116.764 127.144C116.495 127.003 116.191 126.94 115.888 126.961C115.584 126.982 115.292 127.087 115.045 127.264Z" fill="#263238"/>
<path d="M106.757 127.599L104.702 129.186C104.593 128.926 104.567 128.64 104.627 128.365C104.687 128.091 104.83 127.841 105.037 127.65C105.29 127.482 105.585 127.388 105.889 127.379C106.193 127.37 106.494 127.446 106.757 127.599Z" fill="#263238"/>
<path d="M101.065 143.135C100.527 142.446 100.143 141.65 99.9385 140.802C100.439 141.831 101.255 142.676 102.269 143.212L102.363 143.264C104.384 144.264 106.586 144.848 108.837 144.979V146.635C107.521 146.54 106.222 146.284 104.968 145.872C103.434 145.345 102.081 144.396 101.065 143.135Z" fill="#7D4B4A"/>
<path d="M185.969 149.123L177.371 155.609C175.855 156.739 174.608 158.188 173.716 159.853C172.825 161.518 172.311 163.358 172.212 165.243L171.516 179.029L213.499 154.905L207.343 148.857C206.212 147.749 204.821 146.941 203.296 146.51C201.771 146.078 200.162 146.036 198.616 146.386L195.581 147.073L185.969 149.123Z" fill="#00F0FF"/>
<path opacity="0.2" d="M185.969 149.123L177.371 155.609C175.855 156.739 174.608 158.188 173.716 159.853C172.825 161.518 172.311 163.358 172.212 165.243L171.516 179.029L213.499 154.905L207.343 148.857C206.212 147.749 204.821 146.941 203.296 146.51C201.771 146.078 200.162 146.036 198.616 146.386L195.581 147.073L185.969 149.123Z" fill="black"/>
<path d="M203.844 138.588C205.308 137.538 206.326 135.98 206.698 134.22C207.07 132.46 206.77 130.625 205.856 129.074C206.678 128.71 207.351 128.078 207.765 127.281C207.939 126.897 207.993 126.469 207.919 126.054C207.846 125.639 207.648 125.256 207.353 124.955C207.057 124.653 206.678 124.448 206.263 124.366C205.849 124.283 205.419 124.328 205.031 124.493C205.247 123.872 205.248 123.197 205.035 122.575C204.821 121.953 204.405 121.42 203.853 121.061C203.293 120.761 202.647 120.66 202.021 120.776C201.396 120.891 200.829 121.216 200.414 121.696C200.429 121.292 200.312 120.894 200.081 120.561C199.85 120.228 199.517 119.98 199.133 119.852C198.338 119.643 197.497 119.694 196.734 119.998C195.96 120.264 195.229 120.65 194.455 120.856C193.117 121.193 191.743 121.369 190.363 121.379C188.977 121.394 187.617 121.757 186.408 122.434C185.256 123.18 184.232 124.922 184.86 126.432C184.661 126.183 184.412 125.978 184.13 125.83C183.847 125.682 183.536 125.595 183.218 125.574C182.896 125.562 182.575 125.62 182.278 125.744C181.981 125.869 181.715 126.057 181.498 126.295C182.358 126.826 183.218 127.393 184.078 127.925C183.585 127.788 183.061 127.816 182.585 128.005C182.11 128.194 181.71 128.534 181.447 128.971C181.045 129.836 180.887 130.794 180.991 131.742C181.101 135.345 181.742 138.912 182.891 142.329C183.476 144.096 184.327 145.966 186.004 146.781L203.844 138.588Z" fill="#263238"/>
<path d="M194.73 147.09L194.352 151.311C194.332 151.637 194.417 151.961 194.593 152.237C194.827 152.679 194.916 153.184 194.848 153.679C194.78 154.174 194.559 154.636 194.214 155C193.669 155.404 193.01 155.626 192.331 155.634C191.041 155.703 189.751 155.5 188.545 155.037C187.339 154.574 186.244 153.863 185.333 152.949C185.149 152.756 185.006 152.528 184.912 152.279C184.817 152.031 184.773 151.765 184.782 151.499L185.058 140.793L194.73 147.09Z" fill="#FFA8A7"/>
<path d="M185.909 141.351L194.73 147.09L194.395 150.83C192.328 150.476 190.367 149.661 188.66 148.445C187.636 147.593 186.846 146.494 186.364 145.253C185.883 144.012 185.726 142.669 185.909 141.351Z" fill="#F28F8F"/>
<path d="M204.342 129.889C204.989 134.785 204.667 139.76 203.397 144.533C203.147 145.583 202.754 146.593 202.227 147.536C201.694 148.483 200.859 149.226 199.854 149.646C198.565 149.994 197.206 149.994 195.916 149.646C193.518 149.226 191.067 148.788 188.987 147.527C186.906 146.266 185.255 144.001 185.453 141.582C184.862 141.947 184.189 142.159 183.495 142.198C182.801 142.237 182.109 142.102 181.481 141.805C180.867 141.468 180.348 140.984 179.968 140.397C179.588 139.81 179.361 139.139 179.305 138.442C179.223 137.767 179.381 137.085 179.75 136.513C180.118 135.941 180.676 135.516 181.326 135.311C181.738 135.252 182.157 135.282 182.556 135.398C182.955 135.515 183.325 135.717 183.639 135.989C184.267 136.532 184.812 137.165 185.255 137.867C185.462 138.206 185.737 138.498 186.063 138.725C186.226 138.838 186.42 138.899 186.618 138.899C186.816 138.899 187.01 138.838 187.172 138.725C187.31 138.559 187.41 138.365 187.465 138.156C187.52 137.947 187.529 137.728 187.491 137.516L187.353 134.453C187.342 134.218 187.401 133.984 187.522 133.781C187.642 133.579 187.82 133.416 188.032 133.312C188.666 132.967 189.154 132.407 189.408 131.734C189.627 131.141 189.757 130.52 189.795 129.889C189.804 129.771 189.841 129.658 189.902 129.557C189.963 129.456 190.048 129.37 190.148 129.308C190.248 129.245 190.362 129.207 190.48 129.196C190.598 129.185 190.716 129.202 190.826 129.246C195.161 130.827 199.876 131.052 204.342 129.889Z" fill="#FFA8A7"/>
<path d="M197.585 137.319L200.354 141.96L197.061 142.577L197.585 137.319Z" fill="#F28F8F"/>
<path d="M193.879 144.156L196.38 145.374C196.166 145.655 195.865 145.859 195.524 145.955C195.183 146.051 194.819 146.034 194.489 145.906C194.201 145.729 193.983 145.458 193.872 145.139C193.761 144.82 193.763 144.473 193.879 144.156Z" fill="#F28F8F"/>
<path opacity="0.3" d="M193.879 144.156L196.38 145.374C196.166 145.655 195.865 145.859 195.524 145.955C195.183 146.051 194.819 146.034 194.489 145.906C194.201 145.729 193.983 145.458 193.872 145.139C193.761 144.82 193.763 144.473 193.879 144.156Z" fill="black"/>
<path d="M195.358 146.009C195.069 146.066 194.77 146.037 194.498 145.923C194.269 145.795 194.083 145.602 193.964 145.368C193.844 145.134 193.797 144.871 193.827 144.611C194.186 144.61 194.535 144.731 194.816 144.954C195.129 145.221 195.323 145.6 195.358 146.009Z" fill="#F28F8F"/>
<path d="M192.821 137.507C192.805 137.693 192.844 137.879 192.934 138.042C193.024 138.206 193.16 138.339 193.325 138.425C193.491 138.511 193.678 138.547 193.864 138.527C194.05 138.507 194.225 138.433 194.369 138.314C194.512 138.194 194.617 138.035 194.67 137.857C194.723 137.678 194.722 137.488 194.667 137.31C194.612 137.132 194.505 136.974 194.36 136.857C194.215 136.739 194.039 136.667 193.853 136.649C193.728 136.637 193.603 136.65 193.484 136.687C193.364 136.724 193.254 136.784 193.158 136.864C193.062 136.943 192.983 137.041 192.925 137.152C192.867 137.262 192.832 137.383 192.821 137.507Z" fill="#263238"/>
<path d="M200.749 137.996C200.733 138.182 200.772 138.367 200.861 138.53C200.951 138.693 201.087 138.826 201.252 138.913C201.417 138.999 201.604 139.035 201.789 139.016C201.974 138.996 202.15 138.923 202.293 138.804C202.437 138.686 202.542 138.528 202.596 138.35C202.65 138.172 202.65 137.982 202.596 137.804C202.542 137.626 202.437 137.468 202.293 137.35C202.15 137.231 201.974 137.158 201.789 137.138C201.664 137.125 201.538 137.137 201.417 137.174C201.297 137.21 201.185 137.27 201.088 137.35C200.992 137.429 200.912 137.528 200.853 137.639C200.795 137.75 200.759 137.871 200.749 137.996Z" fill="#263238"/>
<path d="M202.038 134.35L203.981 135.997C204.098 135.75 204.136 135.472 204.09 135.202C204.044 134.932 203.916 134.683 203.723 134.487C203.484 134.308 203.199 134.2 202.901 134.175C202.602 134.151 202.303 134.212 202.038 134.35Z" fill="#263238"/>
<path d="M193.999 133.424L191.764 134.659C191.7 134.392 191.719 134.111 191.818 133.855C191.918 133.599 192.094 133.38 192.323 133.226C192.593 133.099 192.893 133.05 193.19 133.085C193.486 133.12 193.767 133.237 193.999 133.424Z" fill="#263238"/>
<path d="M123.325 183.156C122.955 184.013 121.94 184.425 121.45 185.223C121.26 185.532 121.157 185.887 121.153 186.249C121.149 186.612 121.244 186.969 121.428 187.282C121.611 187.595 121.877 187.852 122.196 188.026C122.515 188.2 122.876 188.284 123.239 188.269C123.599 188.249 123.948 188.135 124.25 187.938C124.552 187.74 124.797 187.467 124.958 187.145C125.113 187.9 125.113 188.68 124.958 189.435C124.89 189.821 124.721 190.183 124.469 190.484C124.217 190.785 123.891 191.015 123.523 191.151C124.057 191.703 124.424 192.394 124.58 193.146C124.736 193.897 124.676 194.677 124.406 195.396C124.136 196.114 123.667 196.742 123.054 197.205C122.441 197.669 121.709 197.949 120.943 198.014C121.235 200.099 119.877 202.355 118.149 203.573C116.371 204.733 114.24 205.231 112.13 204.98C110.027 204.719 107.98 204.12 106.069 203.204C103.134 204.319 99.9932 204.787 96.8605 204.577C94.8744 204.388 92.8023 203.856 91.4266 202.415C90.0509 200.974 89.707 198.409 91.1945 197.062C90.7233 197.345 90.1838 197.494 89.6339 197.494C89.0841 197.494 88.5446 197.345 88.0734 197.062C87.6103 196.816 87.2305 196.439 86.982 195.977C86.7334 195.516 86.6273 194.992 86.677 194.471C86.7266 193.95 86.9299 193.455 87.261 193.049C87.5921 192.643 88.0364 192.344 88.5377 192.189C88.1892 191.967 87.9066 191.655 87.7191 191.287C87.5317 190.919 87.4462 190.508 87.4716 190.096C87.537 189.702 87.7095 189.334 87.9703 189.031C88.231 188.729 88.5701 188.504 88.9504 188.38C88.8461 188.719 88.8391 189.08 88.9303 189.423C89.0215 189.766 89.2072 190.076 89.4663 190.319C89.7428 190.525 90.0753 190.644 90.4203 190.659C90.7654 190.675 91.107 190.586 91.4008 190.405C91.6739 190.212 91.9036 189.964 92.0753 189.677C92.247 189.391 92.357 189.072 92.3982 188.74C92.4797 188.077 92.4797 187.405 92.3982 186.741C92.0802 184.451 92.3069 182.117 93.0602 179.93C93.4451 178.839 94.1001 177.862 94.9644 177.091C95.8287 176.32 96.8743 175.78 98.004 175.52C98.8759 172.836 100.719 170.573 103.174 169.172C105.629 167.771 108.518 167.334 111.279 167.945C113.575 168.451 115.802 169.815 116.722 171.969C117.711 171.763 118.721 171.677 119.731 171.711C120.727 171.697 121.693 172.055 122.439 172.715C122.801 173.052 123.052 173.491 123.157 173.974C123.263 174.457 123.22 174.96 123.032 175.417C122.732 176.035 122.095 176.593 122.241 177.262C122.388 177.931 123.032 178.12 123.351 178.617C123.482 178.864 123.55 179.14 123.55 179.419C123.55 179.699 123.482 179.974 123.351 180.222C123.097 180.718 122.773 181.174 122.388 181.577C122.052 181.963 121.691 182.435 121.88 182.941C122.069 183.447 123.024 183.619 123.325 183.156Z" fill="#263238"/>
<path d="M114.426 206.516C113.637 207.061 112.683 207.315 111.726 207.236C109.384 207.233 107.074 206.689 104.977 205.648C102.879 204.606 101.052 203.094 99.6377 201.231L102.32 201V192.404L111.658 195.998V200.974H114.048C114.541 201.579 114.928 202.264 115.191 202.998C115.424 203.595 115.475 204.247 115.339 204.872C115.203 205.498 114.886 206.069 114.426 206.516Z" fill="#F28F8F"/>
<path d="M103.008 192.652C105.802 198.074 107.539 198.186 111.683 198.658V195.981L103.008 192.652Z" fill="#D96E6E"/>
<path d="M119.928 180.136C120.737 184.221 120.787 188.42 120.074 192.523C119.799 194.059 119.352 195.698 118.131 196.676C116.627 197.885 114.469 197.705 112.551 197.465C110.447 197.296 108.377 196.831 106.404 196.084C105.422 195.701 104.533 195.117 103.792 194.369C103.052 193.621 102.477 192.726 102.105 191.743C101.577 192.028 100.969 192.13 100.376 192.034C99.7834 191.938 99.2394 191.648 98.829 191.211C98.0289 190.305 97.5993 189.132 97.6253 187.925C97.5602 187.386 97.6352 186.839 97.843 186.338C98.0507 185.836 98.3844 185.396 98.8118 185.06C99.1391 184.885 99.5016 184.787 99.8724 184.772C100.243 184.757 100.612 184.826 100.953 184.974C101.635 185.269 102.245 185.708 102.741 186.261C102.986 186.546 103.277 186.79 103.601 186.982C103.762 187.078 103.946 187.13 104.134 187.13C104.322 187.13 104.506 187.078 104.667 186.982C104.834 186.822 104.963 186.626 105.042 186.408C105.121 186.191 105.148 185.959 105.123 185.729C105.09 183.835 105.521 181.963 106.378 180.273C107.341 178.651 109.284 177.476 111.107 177.965C111.893 178.323 112.718 178.591 113.566 178.763C114.258 178.727 114.929 178.508 115.509 178.128C115.913 177.856 116.38 177.691 116.865 177.651C117.351 177.61 117.839 177.694 118.283 177.896C118.726 178.097 119.11 178.409 119.399 178.801C119.687 179.193 119.869 179.653 119.928 180.136Z" fill="#F28F8F"/>
<path d="M114.039 185.214L116.524 189.384L113.566 189.933L114.039 185.214Z" fill="#F28F8F"/>
<path d="M114.039 185.214L116.524 189.384L113.566 189.933L114.039 185.214Z" fill="#D96E6E"/>
<path d="M110.712 191.34L112.964 192.429C112.769 192.685 112.496 192.871 112.185 192.958C111.875 193.044 111.545 193.027 111.245 192.91C110.989 192.749 110.796 192.505 110.698 192.219C110.601 191.933 110.606 191.623 110.712 191.34Z" fill="#F28F8F"/>
<path d="M110.712 191.34L112.964 192.429C112.769 192.685 112.496 192.871 112.185 192.958C111.875 193.044 111.545 193.027 111.245 192.91C110.989 192.749 110.796 192.505 110.698 192.219C110.601 191.933 110.606 191.623 110.712 191.34Z" fill="#D96E6E"/>
<path d="M112.036 193.056C111.773 193.113 111.499 193.086 111.253 192.978C111.048 192.863 110.881 192.69 110.774 192.481C110.667 192.272 110.625 192.036 110.651 191.803C110.999 191.793 111.338 191.918 111.596 192.152C111.854 192.385 112.011 192.709 112.036 193.056Z" fill="#F28F8F"/>
<path d="M112.036 193.056C111.773 193.113 111.499 193.086 111.253 192.978C111.048 192.863 110.881 192.69 110.774 192.481C110.667 192.272 110.625 192.036 110.651 191.803C110.999 191.793 111.338 191.918 111.596 192.152C111.854 192.385 112.011 192.709 112.036 193.056Z" fill="#C75555"/>
<path d="M109.757 185.377C109.739 185.547 109.772 185.718 109.851 185.869C109.931 186.019 110.054 186.143 110.204 186.224C110.354 186.305 110.526 186.339 110.696 186.322C110.866 186.306 111.027 186.239 111.159 186.131C111.29 186.022 111.387 185.877 111.436 185.714C111.484 185.55 111.483 185.376 111.433 185.214C111.382 185.051 111.284 184.907 111.151 184.8C111.018 184.693 110.856 184.628 110.685 184.614C110.461 184.595 110.239 184.664 110.065 184.806C109.891 184.949 109.781 185.154 109.757 185.377Z" fill="#263238"/>
<path d="M116.885 185.815C116.863 186.039 116.93 186.262 117.072 186.437C117.213 186.612 117.418 186.724 117.642 186.75C117.867 186.772 118.092 186.704 118.268 186.561C118.443 186.418 118.555 186.211 118.579 185.987C118.602 185.759 118.533 185.532 118.388 185.355C118.243 185.178 118.033 185.066 117.805 185.043C117.577 185.02 117.349 185.089 117.172 185.233C116.995 185.378 116.882 185.587 116.859 185.815H116.885Z" fill="#263238"/>
<path d="M118.046 182.538L119.765 184.022C119.871 183.798 119.906 183.547 119.864 183.303C119.823 183.06 119.707 182.834 119.533 182.658C119.319 182.507 119.068 182.417 118.806 182.395C118.544 182.374 118.282 182.423 118.046 182.538Z" fill="#263238"/>
<path d="M110.815 181.714L108.803 182.812C108.747 182.572 108.766 182.32 108.856 182.09C108.947 181.86 109.105 181.663 109.311 181.525C109.554 181.412 109.824 181.369 110.09 181.402C110.357 181.436 110.608 181.544 110.815 181.714Z" fill="#263238"/>
<path d="M116.395 200.974L117.143 210.273L123.462 206.636C122.164 203.264 120.057 200.974 116.395 200.974Z" fill="#F28F8F"/>
<path d="M116.395 200.974H114.073C114.567 201.579 114.954 202.264 115.217 202.998C115.45 203.595 115.501 204.247 115.365 204.872C115.229 205.498 114.911 206.069 114.452 206.516C113.663 207.061 112.708 207.315 111.752 207.236C109.409 207.233 107.099 206.689 105.002 205.648C102.905 204.606 101.078 203.094 99.6634 201.231L91.6846 201.918C91.6846 201.918 91.8651 218.698 91.8221 221.117C91.7815 222.299 91.8709 223.481 92.0887 224.643L121.622 207.674C120.287 205.152 118.517 202.885 116.395 200.974Z" fill="#00F0FF"/>
<path opacity="0.6" d="M116.395 200.974H114.073C114.567 201.579 114.954 202.264 115.217 202.998C115.45 203.595 115.501 204.247 115.365 204.872C115.229 205.498 114.911 206.069 114.452 206.516C113.663 207.061 112.708 207.315 111.752 207.236C109.409 207.233 107.099 206.689 105.002 205.648C102.905 204.606 101.078 203.094 99.6634 201.231L91.6846 201.918C91.6846 201.918 91.8651 218.698 91.8221 221.117C91.7815 222.299 91.8709 223.481 92.0887 224.643L121.622 207.674C120.287 205.152 118.517 202.885 116.395 200.974Z" fill="white"/>
<path d="M91.6848 201.943C84.0327 204.517 85.8211 211.028 89.7245 217.994C90.6961 219.71 91.8654 221.872 93.0777 224.102L101.314 219.367C98.3568 212.135 94.2986 203.264 91.6848 201.943Z" fill="#F28F8F"/>
<path d="M201.136 99.7516C202.11 101.397 202.949 103.119 203.646 104.899L206.707 103.183L203.913 97.7441C203.396 96.7375 202.56 95.929 201.536 95.4436C200.512 94.9582 199.356 94.823 198.247 95.059L197.275 95.2649C198.805 96.5342 200.11 98.0509 201.136 99.7516Z" fill="#455A64"/>
<path d="M180.148 108.631C179.946 108.106 179.639 107.629 179.244 107.229C178.848 106.829 178.375 106.515 177.852 106.306C177.283 106.143 176.685 106.111 176.101 106.21C175.518 106.31 174.965 106.539 174.482 106.881C174.105 107.128 173.756 107.416 173.442 107.738C172.183 109.77 171.517 112.111 171.516 114.499V123.352L181.601 117.561L180.879 111.891C180.784 110.776 180.538 109.679 180.148 108.631Z" fill="#455A64"/>
<path d="M201.136 99.7515C200.113 98.0386 198.808 96.5101 197.275 95.2305L190.569 96.6717L183.69 99.5113L177.251 103.801C175.699 104.825 174.39 106.174 173.416 107.756C173.731 107.433 174.08 107.146 174.456 106.898C174.939 106.556 175.493 106.327 176.076 106.227C176.659 106.128 177.258 106.16 177.827 106.323C178.349 106.532 178.823 106.846 179.218 107.246C179.613 107.646 179.921 108.123 180.122 108.648C180.513 109.699 180.759 110.799 180.853 111.916L181.575 117.587L203.62 104.916C202.932 103.131 202.101 101.404 201.136 99.7515Z" fill="#455A64"/>
<path opacity="0.3" d="M201.136 99.7516C202.11 101.397 202.949 103.119 203.646 104.899L206.707 103.183L203.913 97.7441C203.396 96.7375 202.56 95.929 201.536 95.4436C200.512 94.9582 199.356 94.823 198.247 95.059L197.275 95.2649C198.805 96.5342 200.11 98.0509 201.136 99.7516Z" fill="white"/>
<path opacity="0.3" d="M180.148 108.631C179.946 108.106 179.639 107.629 179.244 107.229C178.848 106.829 178.375 106.515 177.852 106.306C177.283 106.143 176.685 106.111 176.101 106.21C175.518 106.31 174.965 106.539 174.482 106.881C174.105 107.128 173.756 107.416 173.442 107.738C172.183 109.77 171.517 112.111 171.516 114.499V123.352L181.601 117.561L180.879 111.891C180.784 110.776 180.538 109.679 180.148 108.631Z" fill="white"/>
<path opacity="0.4" d="M201.136 99.7515C200.113 98.0386 198.808 96.5101 197.275 95.2305L190.569 96.6717L183.69 99.5113L177.251 103.801C175.699 104.825 174.39 106.174 173.416 107.756C173.731 107.433 174.08 107.146 174.456 106.898C174.939 106.556 175.493 106.327 176.076 106.227C176.659 106.128 177.258 106.16 177.827 106.323C178.349 106.532 178.823 106.846 179.218 107.246C179.613 107.646 179.921 108.123 180.122 108.648C180.513 109.699 180.759 110.799 180.853 111.916L181.575 117.587L203.62 104.916C202.932 103.131 202.101 101.404 201.136 99.7515Z" fill="white"/>
<path d="M200.808 84.7385C202.184 83.3489 203.037 81.5284 203.223 79.5841C203.41 77.6399 202.918 75.691 201.832 74.0664C202.409 73.8277 202.897 73.413 203.224 72.8814C203.551 72.3499 203.702 71.7287 203.654 71.1067C203.591 70.4847 203.33 69.8991 202.909 69.436C202.489 68.9728 201.93 68.6564 201.316 68.533C200.265 68.4793 199.215 68.6278 198.221 68.9705C196.455 69.288 194.647 69.288 192.881 68.9705C191.11 68.7217 189.356 68.3357 187.576 68.207C185.79 68.0167 183.985 68.2732 182.323 68.9534C181.496 69.2996 180.759 69.8309 180.17 70.5062C179.582 71.1815 179.156 71.9828 178.927 72.8482C177.551 72.4793 175.918 73.3543 175.032 74.4696C174.199 75.6336 173.751 77.0283 173.751 78.4588C173.699 79.8743 173.897 81.2898 173.966 82.7482C174.098 84.1686 173.916 85.6006 173.433 86.9433C172.788 88.4703 171.515 89.7228 171.111 91.3357C170.925 92.0797 170.936 92.8594 171.144 93.5979C171.351 94.3363 171.747 95.0083 172.294 95.5475C172.84 96.0868 173.518 96.4748 174.261 96.6734C175.003 96.872 175.784 96.8744 176.528 96.6803C176.225 95.5623 176.086 94.4065 176.115 93.2488C176.253 94.8101 177.835 96.0283 179.297 96.5516C180.809 96.9854 182.391 97.1252 183.957 96.9634L189.476 96.749L195.916 96.4916C197.064 96.5229 198.206 96.3276 199.278 95.9168C200.17 95.4315 200.917 94.7196 201.444 93.8533C201.971 92.987 202.259 91.9971 202.279 90.9839C202.244 88.8209 201.743 86.6908 200.808 84.7385Z" fill="#263238"/>
<path d="M192.924 93.6862V99.5456C192.924 99.5456 197.73 102.608 195.701 104.23C191.892 107.284 183.716 99.5113 183.716 99.5113V89.7571L192.924 93.6862Z" fill="#FFA8A7"/>
<path d="M183.716 89.7571C185.134 93.9607 190.285 97.1435 192.924 97.7783V93.6862L183.716 89.7571Z" fill="#F28F8F"/>
<path d="M184.817 83.1001C184.945 83.8276 184.98 84.5685 184.92 85.3048C184.845 85.8632 184.588 86.3816 184.189 86.7804C183.996 86.9693 183.759 87.108 183.5 87.1843C183.241 87.2606 182.966 87.2721 182.701 87.2179C182.84 86.4921 182.693 85.7411 182.292 85.1199C181.892 84.4987 181.267 84.0548 180.548 83.8798C179.828 83.7047 179.069 83.812 178.427 84.1793C177.784 84.5467 177.308 85.1461 177.096 85.8539C176.971 86.3665 176.96 86.9002 177.064 87.4175C177.168 87.9347 177.384 88.423 177.697 88.8479C178.337 89.6942 179.164 90.3813 180.114 90.8554C180.655 91.0338 181.242 91.0174 181.773 90.809C182.304 90.6006 182.745 90.2133 183.02 89.7144C185.831 93.266 190.758 95.9255 195.306 95.548C196.563 95.4746 197.774 95.0462 198.797 94.3126C200.516 92.9743 200.654 90.9583 200.877 88.9594C201.201 86.4318 201.181 83.8721 200.817 81.35C200.352 77.8253 198.645 74.5807 196.002 72.1963C194.429 79.7543 187.508 82.5424 184.817 83.1001Z" fill="#FFA8A7"/>
<path d="M194.369 82.2336L197.507 86.0941L194.584 87.0979L194.369 82.2336Z" fill="#F28F8F"/>
<path d="M191.91 88.9766L194.352 89.7487C194.195 90.0368 193.948 90.2658 193.648 90.4006C193.348 90.5354 193.013 90.5685 192.692 90.495C192.406 90.3711 192.172 90.1521 192.029 89.8753C191.887 89.5985 191.844 89.2809 191.91 88.9766Z" fill="#F28F8F"/>
<path opacity="0.3" d="M191.91 88.9766L194.352 89.7487C194.195 90.0368 193.948 90.2658 193.648 90.4006C193.348 90.5354 193.013 90.5685 192.692 90.495C192.406 90.3711 192.172 90.1521 192.029 89.8753C191.887 89.5985 191.844 89.2809 191.91 88.9766Z" fill="black"/>
<path d="M193.526 90.452C193.266 90.5326 192.987 90.5326 192.727 90.452C192.5 90.3674 192.304 90.2166 192.164 90.0192C192.025 89.8217 191.948 89.5869 191.944 89.3453C192.268 89.2918 192.601 89.3558 192.882 89.5255C193.047 89.6272 193.19 89.762 193.301 89.9214C193.412 90.0809 193.489 90.2615 193.526 90.452Z" fill="#F28F8F"/>
<path d="M190.087 83.04C190.098 83.2071 190.156 83.3676 190.257 83.5018C190.357 83.6359 190.495 83.7378 190.652 83.7949C190.81 83.852 190.981 83.8619 191.144 83.8232C191.308 83.7845 191.456 83.699 191.571 83.5772C191.686 83.4554 191.763 83.3027 191.792 83.1378C191.822 82.973 191.802 82.8032 191.736 82.6494C191.669 82.4956 191.559 82.3646 191.419 82.2724C191.279 82.1802 191.115 82.1309 190.947 82.1306C190.83 82.1304 190.714 82.1542 190.606 82.2005C190.498 82.2468 190.401 82.3146 190.32 82.3998C190.24 82.485 190.178 82.5858 190.138 82.6959C190.097 82.806 190.08 82.9231 190.087 83.04Z" fill="#263238"/>
<path d="M197.344 82.4308C197.354 82.598 197.413 82.7585 197.514 82.8926C197.614 83.0268 197.752 83.1287 197.909 83.1858C198.067 83.2429 198.238 83.2527 198.401 83.214C198.564 83.1754 198.713 83.0898 198.828 82.9681C198.943 82.8463 199.02 82.6936 199.049 82.5287C199.078 82.3638 199.059 82.1941 198.992 82.0403C198.926 81.8865 198.816 81.7554 198.676 81.6632C198.536 81.5711 198.372 81.5218 198.204 81.5215C198.087 81.5213 197.971 81.545 197.863 81.5913C197.755 81.6376 197.658 81.7055 197.577 81.7907C197.497 81.8759 197.434 81.9766 197.394 82.0867C197.354 82.1968 197.337 82.3139 197.344 82.4308Z" fill="#263238"/>
<path d="M198.031 78.9563L200.017 80.2003C200.092 79.9594 200.09 79.7012 200.012 79.4615C199.933 79.2218 199.782 79.0123 199.579 78.862C199.338 78.7313 199.065 78.6708 198.791 78.6875C198.518 78.7042 198.254 78.7974 198.031 78.9563Z" fill="#263238"/>
<path d="M190.569 79.1622L188.703 80.5863C188.605 80.3524 188.583 80.094 188.638 79.8467C188.693 79.5993 188.824 79.3752 189.013 79.2051C189.242 79.0533 189.509 78.9688 189.784 78.9613C190.06 78.9537 190.331 79.0233 190.569 79.1622Z" fill="#263238"/>
<path d="M252.783 20.6099C253.124 19.998 253.626 19.4907 254.236 19.143L285.902 1.22167C287.621 0.226521 291.774 1.57341 291.774 4.37871V27.0956C291.775 27.7802 291.594 28.4528 291.249 29.0449C290.905 29.6371 290.41 30.1278 289.814 30.4671L275.068 38.8401L277.106 37.6819L275.825 41.2851C275.817 41.3109 275.804 41.3349 275.787 41.3555C275.77 41.3762 275.748 41.393 275.724 41.4051C275.7 41.4171 275.673 41.4241 275.646 41.4256C275.619 41.4271 275.592 41.4231 275.567 41.4137C275.344 41.2936 274.346 40.7617 273.77 40.3843L273.719 40.3328L273.409 39.8266L258.191 48.3197C257.617 48.6763 256.958 48.8753 256.282 48.8968C255.606 48.9182 254.937 48.7613 254.341 48.4419C253.745 48.1225 253.245 47.6519 252.889 47.0777C252.534 46.5034 252.337 45.8458 252.318 45.1713V22.5402C252.303 21.8675 252.463 21.2024 252.783 20.6099Z" fill="#00F0FF"/>
<path opacity="0.2" d="M273.676 40.35L273.727 40.4015C274.303 40.7789 275.301 41.3108 275.524 41.4309C275.498 41.4265 275.473 41.4166 275.451 41.4018C275.428 41.387 275.41 41.3677 275.395 41.3451L274.166 39.3462L274.407 39.209L273.323 39.8267L273.676 40.35Z" fill="white"/>
<path opacity="0.4" d="M256.652 22.7976C256.904 22.2951 257.258 21.8508 257.693 21.4936C257.841 21.3751 257.999 21.269 258.165 21.1762L289.823 3.25487C290.02 3.14216 290.244 3.08315 290.471 3.08378C290.699 3.08441 290.922 3.14464 291.119 3.25845C291.316 3.37225 291.479 3.53564 291.592 3.73224C291.706 3.92884 291.766 4.15177 291.766 4.37871C291.766 1.57341 287.639 0.226521 285.894 1.22167L254.236 19.1086C253.627 19.4564 253.125 19.9637 252.783 20.5756L256.652 22.7976Z" fill="white"/>
<path opacity="0.2" d="M256.214 47.213V24.539C256.205 24.3847 256.205 24.23 256.214 24.0757C256.278 23.6294 256.417 23.1972 256.626 22.7975L252.757 20.6099C252.428 21.1881 252.254 21.8409 252.25 22.5058V45.1883C252.269 45.8629 252.466 46.5205 252.821 47.0947C253.176 47.669 253.677 48.1396 254.273 48.459C254.868 48.7784 255.538 48.9353 256.214 48.9138C256.89 48.8924 257.548 48.6933 258.122 48.3368C257.926 48.4438 257.706 48.4982 257.482 48.4946C257.259 48.491 257.04 48.4295 256.848 48.3162C256.655 48.2029 256.496 48.0416 256.385 47.8482C256.273 47.6548 256.215 47.4359 256.214 47.213Z" fill="white"/>
<path d="M274.57 20.8159L274.604 31.325L272.008 32.8178L271.999 28.7171L268.457 30.7588L268.474 34.8595L265.886 36.3437L265.86 25.8346L268.44 24.3504L268.457 28.2881L271.991 26.2549L271.982 22.3086L274.57 20.8159Z" fill="white"/>
<path d="M277.545 20.5842C276.634 21.1075 276.023 20.7986 276.015 19.9408C276.052 19.4467 276.21 18.9693 276.476 18.5505C276.741 18.1317 277.105 17.7843 277.536 17.5387C278.448 17.0154 279.058 17.2813 279.058 18.1392C279.032 18.6406 278.879 19.1274 278.615 19.5547C278.35 19.9819 277.983 20.3359 277.545 20.5842Z" fill="white"/>
<path d="M276.324 30.3384L276.298 22.2057L278.791 20.7644L278.817 28.8972L276.324 30.3384Z" fill="white"/>
<path d="M282.575 22.892L280.597 24.0416L280.09 17.6332L283.048 15.9346L282.575 22.892Z" fill="white"/>
<path d="M281.586 24.3161C282.446 23.8013 283.074 24.1102 283.074 25.0024C283.046 25.4972 282.897 25.9777 282.639 26.4012C282.381 26.8247 282.023 27.1782 281.595 27.4302C280.735 27.9363 280.116 27.576 280.107 26.7096C280.136 26.2197 280.287 25.7447 280.545 25.327C280.803 24.9093 281.161 24.562 281.586 24.3161Z" fill="white"/>
<path d="M282.385 104.48L288.102 115.564L282.944 124.289L288.721 133.408L297.448 119.897C298.029 118.978 298.407 117.947 298.555 116.871C298.703 115.795 298.619 114.7 298.308 113.66C296.82 108.39 294.922 103.245 292.633 98.2693L282.385 104.48Z" fill="#FFA8A7"/>
<path opacity="0.2" d="M287.045 101.658L282.385 104.48L286.752 112.896L287.01 102.988C287.028 102.55 287.036 102.104 287.045 101.658Z" fill="black"/>
<path d="M277.785 83.0588C284.406 81.8321 288.189 84.0368 293.786 98.9726C291.499 104.12 281.809 105.973 281.809 105.973L277.785 83.0588Z" fill="#00F0FF"/>
<path opacity="0.2" d="M286.305 94.9836C284.981 90.9173 281.628 87.9575 278.206 85.2981L281.834 105.973C283.596 105.593 285.322 105.062 286.993 104.386C286.993 103.923 286.993 103.451 286.993 102.988C287.088 100.303 287.148 97.5487 286.305 94.9836Z" fill="black"/>
<path d="M267.614 239.598C267.072 240.73 265.353 241.777 263.478 242.086C261.579 242.248 259.667 242.127 257.804 241.725C254.998 241.332 252.157 241.26 249.335 241.511C247.587 241.741 245.827 241.864 244.064 241.88C242.289 241.9 240.553 241.353 239.112 240.318C238.117 239.537 237.453 238.409 237.255 237.161C237.169 237.975 237.295 238.798 237.62 239.549C237.945 240.3 238.459 240.955 239.112 241.451C240.554 242.484 242.289 243.034 244.064 243.021C245.827 242.998 247.587 242.872 249.335 242.643C252.157 242.397 254.998 242.469 257.804 242.858C259.687 243.124 261.733 243.656 263.607 243.347C265.482 243.038 267.201 241.991 267.743 240.859L267.614 239.598Z" fill="#263238"/>
<path d="M247.056 236.252C248.639 236.252 248.054 233.919 249.558 232.357C248.948 232.357 248.329 232.357 247.719 232.357C246.369 234.365 245.973 236.252 247.056 236.252Z" fill="white"/>
<path d="M250.34 236.132C251.931 236.132 251.509 233.352 253.074 231.731C252.713 231.851 252.352 231.954 251.991 232.04C251.681 232.108 251.363 232.16 251.054 232.203C249.661 234.176 249.257 236.132 250.34 236.132Z" fill="white"/>
<path d="M265.98 230.796C265.862 230.278 265.556 229.823 265.12 229.517L256.583 229.303C255.667 230.443 254.435 231.287 253.04 231.731C251.475 233.352 251.897 236.132 250.306 236.132C249.223 236.132 249.627 234.176 251.02 232.203C250.521 232.28 250.022 232.323 249.524 232.357C248.019 233.918 248.604 236.252 247.022 236.252C245.956 236.252 246.334 234.339 247.684 232.4H246.489C246.128 232.4 245.758 232.4 245.397 232.34C242.259 234.811 241.958 237.487 242.396 241.725C242.936 241.818 243.482 241.873 244.03 241.888C245.792 241.872 247.553 241.749 249.3 241.519C252.122 241.269 254.964 241.341 257.769 241.734C259.632 242.135 261.545 242.257 263.444 242.094C265.318 241.785 267.038 240.739 267.579 239.606L265.98 230.796Z" fill="#455A64"/>
<path d="M245.431 232.331C244.008 232.097 242.556 232.097 241.132 232.331C240.256 232.502 239.439 232.899 238.765 233.483C238.09 234.067 237.581 234.818 237.289 235.66C237.166 236.151 237.146 236.662 237.229 237.161C237.427 238.409 238.091 239.537 239.086 240.318C240.058 241.052 241.199 241.533 242.405 241.717C242.018 237.496 242.293 234.802 245.431 232.331Z" fill="white"/>
<path d="M256.376 226.875V230.976C256.376 231.431 256.557 231.867 256.88 232.189C257.202 232.511 257.639 232.692 258.096 232.692H262.394C263.114 232.692 263.806 232.413 264.322 231.913C264.839 231.414 265.141 230.733 265.163 230.015L265.266 226.901L256.376 226.875Z" fill="#FFA8A7"/>
<path d="M284.826 225.048C284.593 225.549 284.232 225.98 283.779 226.298C283.327 226.615 282.798 226.809 282.247 226.858C281.097 226.939 279.951 226.657 278.971 226.052C277.484 225.117 276.908 223.641 275.902 222.311C274.845 221.019 273.645 219.851 272.325 218.828C270.897 217.787 269.721 216.438 268.886 214.882C268.678 214.422 268.542 213.933 268.482 213.432C268.352 214.378 268.492 215.341 268.886 216.212C269.721 217.768 270.897 219.116 272.325 220.158C273.643 221.183 274.843 222.351 275.902 223.641C276.908 224.971 277.484 226.446 278.971 227.381C279.949 227.991 281.097 228.273 282.247 228.188C282.798 228.138 283.327 227.945 283.779 227.627C284.232 227.31 284.593 226.879 284.826 226.378C285.006 225.628 285.061 224.854 284.99 224.087C284.991 224.414 284.936 224.74 284.826 225.048Z" fill="#263238"/>
<path d="M275.128 216.04C274.978 216.243 274.904 216.492 274.921 216.744C274.947 216.863 275.003 216.974 275.085 217.066C275.166 217.158 275.27 217.227 275.386 217.267C275.554 217.31 275.731 217.309 275.899 217.266C276.067 217.222 276.222 217.137 276.349 217.018C276.594 216.777 276.816 216.512 277.011 216.229C277.584 215.506 278.345 214.954 279.212 214.633C279.634 214.476 280.077 214.377 280.527 214.341L279.452 213.372C278.781 213.408 278.122 213.568 277.509 213.844C276.507 214.313 275.675 215.08 275.128 216.04Z" fill="white"/>
<path d="M275.352 212.651C274.355 213.12 273.526 213.884 272.979 214.839C272.824 215.039 272.747 215.29 272.764 215.542C272.793 215.663 272.851 215.775 272.934 215.867C273.016 215.96 273.12 216.031 273.237 216.074C273.404 216.117 273.579 216.117 273.746 216.073C273.913 216.03 274.067 215.945 274.191 215.826C274.44 215.585 274.664 215.32 274.862 215.036C275.431 214.311 276.19 213.756 277.054 213.432C277.745 213.186 278.481 213.089 279.212 213.149L278.155 212.188C277.196 212.091 276.228 212.251 275.352 212.651Z" fill="white"/>
<path d="M277.484 211.588C276.514 210.642 275.377 209.883 274.131 209.348C273.379 209.019 272.55 208.904 271.737 209.016C270.923 209.128 270.157 209.463 269.523 209.983C269.098 210.437 268.785 210.984 268.609 211.58C268.433 212.175 268.398 212.804 268.508 213.415C268.568 213.916 268.705 214.405 268.912 214.865C269.186 215.468 269.542 216.031 269.97 216.538C270.374 212.917 273.572 211.201 277.484 211.588Z" fill="white"/>
<path d="M284.913 221.445C284.923 220.198 284.628 218.967 284.053 217.859L281.981 215.688L280.502 214.342C280.052 214.377 279.61 214.476 279.187 214.633C278.32 214.954 277.559 215.506 276.986 216.229C276.791 216.513 276.569 216.777 276.324 217.018C276.197 217.137 276.043 217.222 275.874 217.266C275.706 217.309 275.529 217.31 275.361 217.267C275.245 217.227 275.141 217.158 275.06 217.066C274.979 216.974 274.922 216.863 274.897 216.744C274.88 216.492 274.953 216.243 275.103 216.04C275.651 215.081 276.483 214.313 277.484 213.844C278.097 213.568 278.756 213.408 279.428 213.372L279.187 213.149C278.455 213.089 277.72 213.186 277.029 213.432C276.164 213.756 275.406 214.311 274.836 215.036C274.639 215.321 274.414 215.585 274.166 215.826C274.041 215.945 273.888 216.03 273.721 216.074C273.554 216.117 273.378 216.117 273.211 216.074C273.095 216.031 272.991 215.96 272.908 215.868C272.826 215.775 272.767 215.663 272.738 215.543C272.722 215.29 272.798 215.04 272.953 214.839C273.501 213.884 274.329 213.121 275.326 212.652C276.203 212.251 277.17 212.091 278.129 212.188L277.493 211.622C273.581 211.202 270.383 212.917 269.979 216.589C270.689 217.417 271.475 218.178 272.326 218.863C273.643 219.889 274.84 221.06 275.894 222.354C276.9 223.684 277.476 225.159 278.963 226.095C279.943 226.7 281.089 226.982 282.239 226.901C282.79 226.852 283.319 226.658 283.772 226.341C284.224 226.023 284.585 225.592 284.818 225.091C284.928 224.782 284.984 224.457 284.982 224.13C285.009 223.234 284.986 222.338 284.913 221.445Z" fill="#455A64"/>
<path d="M277.424 214.959L277.665 219.369C280.45 220.964 283.382 220.098 284.362 219.077L284.543 214.959H277.424Z" fill="#FFA8A7"/>
<path d="M282.944 119.734C282.705 119.26 282.562 118.744 282.523 118.215L282.291 114.432L255.285 116.148C254.932 118.035 254.571 120.351 254.21 123.011C263.864 125.517 274.106 124.349 282.944 119.734Z" fill="#FFA8A7"/>
<path d="M265.421 84.8177L258.19 86.2332C256.6 89.15 254.966 91.8866 253.367 94.812C252.172 97.0082 250.934 99.3417 251.02 101.847C251.076 102.893 251.359 103.915 251.85 104.841C252.342 105.767 253.03 106.575 253.866 107.209C254.305 107.523 254.656 107.944 254.886 108.432C255.117 108.92 255.218 109.459 255.181 109.997L254.519 117.906C265.86 121.338 279.728 118.327 282.78 115.702C283.64 111.575 284.5 107.191 285.36 103.065C286.314 98.664 287.277 94.2201 285.901 89.6218C285.654 88.7937 285.289 88.005 284.818 87.2798C283.878 85.787 282.518 84.6031 280.908 83.8756C279.298 83.148 277.51 82.9087 275.765 83.1877L265.421 84.8177Z" fill="#00F0FF"/>
<path opacity="0.2" d="M253.556 94.4688L253.376 94.8033C252.172 96.9995 250.934 99.333 251.02 101.838C251.076 102.884 251.359 103.906 251.85 104.832C252.342 105.758 253.03 106.566 253.866 107.2C254.305 107.514 254.656 107.935 254.886 108.423C255.117 108.911 255.218 109.45 255.181 109.988L254.958 112.63C257.228 108.186 260.28 101.726 261.569 96.9652L253.556 94.4688Z" fill="black"/>
<path d="M283.331 120.42C283.169 120.205 283.028 119.975 282.91 119.734C274.07 124.343 263.827 125.505 254.175 122.994C252.146 138.11 250.392 163.7 251.467 180.584C252.327 200.246 255.99 228.076 255.99 228.076C260.718 229.492 264.261 228.625 265.602 227.604C267.175 208.105 270.64 194.739 267.966 181.845C269.746 172.828 270.907 161.504 270.907 161.504L272.274 181.424L276.925 216.443C278.225 217.107 279.677 217.418 281.135 217.344C282.593 217.27 284.005 216.814 285.231 216.023C288.593 196 289.857 182.428 286.908 172.494C291.361 139.637 291.593 131.229 283.331 120.42Z" fill="#455A64"/>
<path opacity="0.3" d="M272.892 157.567L275.369 147.195C278.257 146.723 282.78 144.835 285.153 140.881C281.733 143.572 277.523 145.07 273.167 145.144L270.906 161.504L271.388 168.522L271.577 165.948C271.796 163.124 272.236 160.322 272.892 157.567Z" fill="black"/>
<path d="M256.617 65.4379C255.542 63.3964 255.051 61.0992 255.198 58.7978C255.289 57.6524 255.653 56.5451 256.26 55.5689C256.867 54.5928 257.7 53.776 258.689 53.1872C259.701 52.6358 260.87 52.4433 262.005 52.6412C263.141 52.8391 264.175 53.4158 264.94 54.2768C266.776 53.2703 268.851 52.779 270.945 52.8549C273.039 52.9308 275.072 53.5711 276.831 54.7078C278.589 55.8445 280.006 57.4352 280.931 59.3109C281.856 61.1865 282.254 63.2772 282.084 65.3607C281.929 67.7456 281.052 70.0962 281.327 72.4726C281.482 73.8709 282.032 75.2864 281.671 76.6419C281.49 77.2043 281.193 77.7233 280.801 78.1662C280.409 78.609 279.93 78.9663 279.393 79.2156C278.352 79.7646 275.911 79.6188 274.759 79.859C271.233 83.0503 266.814 81.8579 263.994 79.0011C261.174 76.1443 256.617 65.4379 256.617 65.4379Z" fill="#37474F"/>
<path d="M255.886 68.6121L253.685 72.4297L256.092 73.3133L255.886 68.6121Z" fill="#FF9192"/>
<path d="M255.637 66.9134C255.989 63.5591 256.97 60.4106 259.153 58.8064C258.562 62.9805 259.454 67.2295 261.673 70.8168C261.892 69.7124 262.462 68.7077 263.298 67.9515C263.703 67.56 264.211 67.2897 264.762 67.1714C265.314 67.0532 265.888 67.0916 266.419 67.2823C267.15 67.6241 267.716 68.241 267.992 68.9981C268.284 69.72 268.361 70.5101 268.216 71.2748C268.071 72.0394 267.709 72.7464 267.173 73.3119C266.637 73.8773 265.95 74.2774 265.193 74.4647C264.436 74.652 263.641 74.6186 262.902 74.3685C263.206 75.8555 263.937 77.2223 265.005 78.3022C266.074 79.3822 267.434 80.1287 268.921 80.4509C270.876 80.846 272.905 80.6519 274.75 79.8933L275.661 84.4058C271.981 88.3177 265.688 85.6926 265.688 85.6926L264.828 81.2487C257.589 81.6777 256.909 81.5576 256.118 77.577C255.467 74.0615 255.305 70.4731 255.637 66.9134Z" fill="#FFA8A7"/>
<path opacity="0.3" d="M271.663 62.0491C272.687 59.1406 274.734 56.7019 277.424 55.186C278.963 56.3828 280.191 57.9327 281.002 59.704C281.814 61.4753 282.184 63.4157 282.084 65.3606C281.929 67.7455 281.052 70.0961 281.327 72.4725C281.482 73.8708 282.032 75.2863 281.671 76.6418C281.489 77.2043 281.193 77.7232 280.801 78.1661C280.409 78.609 279.929 78.9662 279.393 79.2155C278.352 79.7645 275.91 79.6187 274.758 79.8589C274.604 79.9961 274.449 80.1163 274.294 80.2364C273.065 77.9071 272.105 75.4464 271.431 72.9014C270.438 69.3398 270.519 65.5652 271.663 62.0491Z" fill="black"/>
<path d="M273.675 59.5443C274.241 57.6707 275.391 56.0259 276.958 54.8492C278.524 53.6725 280.427 53.0251 282.388 53.0012C284.349 52.9773 286.266 53.578 287.861 54.7162C289.456 55.8544 290.646 57.4706 291.258 59.3298C293.442 65.9184 287.819 72.9359 289.074 79.7733C289.512 82.2354 290.793 84.4745 291.266 86.9366C291.527 88.3601 291.492 89.8217 291.166 91.2315C290.839 92.6413 290.227 93.9695 289.367 95.1346C288.507 96.2996 287.417 97.2769 286.165 98.0063C284.912 98.7357 283.523 99.2018 282.084 99.376C283.657 97.6602 283.683 94.975 282.789 92.8217C281.895 90.6684 280.295 88.8926 278.92 87.0053C273.366 79.3958 270.907 68.5521 273.675 59.5443Z" fill="#37474F"/>
<path d="M258.19 86.2332C250.452 87.7945 242.654 107.5 242.654 107.5L235.286 86.9109L236.868 79.1899C236.954 78.7455 236.919 78.286 236.764 77.8602L235.045 73.0646C234.961 72.8325 234.795 72.6391 234.578 72.5206C234.361 72.4021 234.108 72.3668 233.867 72.4212C233.731 72.4519 233.603 72.5101 233.49 72.592C233.378 72.6739 233.283 72.7779 233.212 72.8976C233.142 73.0172 233.096 73.1501 233.078 73.288C233.061 73.4259 233.072 73.5659 233.11 73.6994L234.426 78.1004L232.336 74.1455C232.252 73.9846 232.136 73.8422 231.995 73.7266C231.854 73.6111 231.692 73.5249 231.517 73.4729C231.342 73.421 231.159 73.4044 230.978 73.4241C230.797 73.4439 230.621 73.4995 230.462 73.5879L228.777 74.4972C228.464 74.6694 228.231 74.9578 228.13 75.2999C228.029 75.642 228.066 76.0101 228.235 76.3246L230.058 79.7561C227.995 85.6584 229.843 87.3827 229.843 87.3827L233.334 109.267C233.665 111.342 234.641 113.26 236.123 114.752C237.606 116.243 239.52 117.233 241.596 117.58C243.535 117.903 245.526 117.652 247.323 116.858C249.121 116.063 250.645 114.761 251.708 113.111C263.1 95.5155 269.419 84.2343 258.19 86.2332Z" fill="#FFA8A7"/>
<path opacity="0.2" d="M241.485 111.687C241.735 110.27 242.127 108.882 242.654 107.543L241.794 105.038C241.211 106.04 240.879 107.167 240.825 108.325C240.771 109.482 240.998 110.635 241.485 111.687Z" fill="black"/>
<path d="M258.19 86.233C254.751 87.1767 251.02 88.9696 245.706 99.3758C246.299 106.882 257.399 104.995 257.399 104.995C260.331 99.4187 263.486 93.6022 264.106 90.8742C265.146 86.3188 263.065 85.2636 258.19 86.233Z" fill="#00F0FF"/>
</svg>
