<svg width="48" height="48" viewBox="0 0 48 48" fill="none" xmlns="http://www.w3.org/2000/svg">
<path opacity="0.35" d="M30 12H18C18 12 6 18 6 32C6 41.942 14.058 44 24 44C33.942 44 42 41.942 42 32C42 18 30 12 30 12Z" fill="white"/>
<path d="M32 14H16C14.896 14 14 13.106 14 12C14 10.894 14.896 10 16 10H32C33.104 10 34 10.894 34 12C34 13.106 33.104 14 32 14Z" fill="white"/>
<path d="M28.7878 31.392C28.7878 26.178 23.0318 26.89 23.0318 24.172C23.0318 22.572 24.2898 22.404 24.7258 22.404C25.1558 22.404 25.5338 22.506 25.8558 22.652C26.6118 22.994 27.5098 22.676 27.9898 21.998C28.6038 21.128 28.2858 19.906 27.3158 19.47C26.7838 19.23 26.1198 19.038 25.3158 18.962V18.202C25.3158 17.506 24.7518 16.94 24.0538 16.94C23.3558 16.94 22.7918 17.504 22.7918 18.202V19.226C20.6798 19.93 19.3078 21.864 19.3078 24.338C19.3078 29.81 24.9918 28.822 24.9918 31.666C24.9918 32.214 24.7338 33.406 23.3218 33.406C22.6938 33.406 22.1538 33.23 21.7138 32.998C20.9658 32.606 20.0378 32.896 19.5618 33.592L19.5118 33.666C18.9618 34.472 19.1838 35.6 20.0318 36.08C20.7458 36.484 21.6158 36.798 22.6678 36.91V37.796C22.6678 38.492 23.2318 39.058 23.9298 39.058C24.6258 39.058 25.1918 38.494 25.1918 37.796V36.684C27.5278 35.968 28.7878 33.838 28.7878 31.392Z" fill="white"/>
<path opacity="0.35" d="M29.5437 5.106L27.7817 4.754C27.2557 3.158 25.7717 2 23.9997 2C22.2277 2 20.7437 3.158 20.2177 4.754L18.4557 5.106C16.3257 5.532 15.3097 7.984 16.5157 9.792L17.9877 12H20.0137H27.9877H30.0137L31.4857 9.792C32.6897 7.984 31.6737 5.532 29.5437 5.106Z" fill="white"/>
</svg>
