<svg width="300" height="256" viewBox="0 0 300 256" fill="none" xmlns="http://www.w3.org/2000/svg">
<path d="M102.307 204.927L95.2774 146.206L89.5234 145.913L99.4146 204.919C99.4387 205.027 99.485 205.128 99.5505 205.217C99.616 205.306 99.6993 205.38 99.795 205.434C100.106 205.609 100.453 205.708 100.809 205.726C101.165 205.744 101.521 205.68 101.848 205.537C101.973 205.489 102.082 205.405 102.162 205.297C102.242 205.189 102.289 205.061 102.3 204.927H102.307Z" fill="#263238"/>
<path d="M95.2774 146.206L89.5234 145.913L91.2195 157.049C92.3954 156.617 93.5327 156.086 94.6196 155.463C95.242 155.187 95.7706 154.735 96.1413 154.164L95.2774 146.206Z" fill="#263238"/>
<path d="M18.8658 137.599H13.1118L4.73442 193.038C4.73285 193.173 4.77115 193.305 4.8445 193.418C4.91784 193.531 5.02294 193.619 5.14656 193.672C5.46382 193.836 5.81577 193.922 6.17292 193.922C6.53007 193.922 6.88202 193.836 7.19929 193.672C7.29843 193.624 7.38631 193.555 7.45728 193.47C7.52825 193.386 7.58076 193.287 7.61142 193.181L18.8658 137.599Z" fill="#37474F"/>
<path d="M13.1144 137.599L10.7764 153.069C12.1385 154.138 13.6199 155.045 15.1909 155.772L18.8684 137.599H13.1144Z" fill="#263238"/>
<path d="M63.8458 224.606L58.4326 164.894L52.6865 164.601L60.9609 224.598C60.9859 224.706 61.0333 224.808 61.1003 224.897C61.1672 224.986 61.252 225.059 61.3492 225.113C61.6574 225.291 62.0036 225.394 62.3592 225.412C62.7147 225.429 63.0695 225.362 63.394 225.216C63.5208 225.17 63.6312 225.087 63.7115 224.979C63.7918 224.87 63.8385 224.741 63.8458 224.606Z" fill="#37474F"/>
<path d="M59.138 173.494L58.4326 164.894L52.6865 164.601L53.8516 173.874C55.6174 174.198 57.4367 174.067 59.138 173.494Z" fill="#263238"/>
<path d="M50.2926 119.331H44.5307L36.1533 174.77C36.1545 174.905 36.1948 175.037 36.2693 175.15C36.3439 175.262 36.4495 175.351 36.5734 175.404C36.8918 175.565 37.2433 175.648 37.5997 175.648C37.9562 175.648 38.3077 175.565 38.6261 175.404C38.7238 175.355 38.8101 175.285 38.8797 175.201C38.9493 175.116 39.0006 175.018 39.0303 174.913L50.2926 119.331Z" fill="#263238"/>
<path d="M2.40592 70.4528C1.10856 73.6779 0.332711 77.089 0.107495 80.558C-0.550331 88.3092 1.96209 116.952 3.53929 128.167C5.81394 146.911 8.61167 146.943 12.6775 150.081C19.66 155.479 39.7593 166.059 46.3931 168.675C58.4162 173.43 68.2519 166.107 75.5831 162.485C82.3038 159.087 88.7907 155.245 95.0008 150.985C96.8316 149.653 97.7827 148.306 97.7589 146.887C97.7589 146.325 97.7589 144.018 97.7589 143.424C97.7589 141.617 96.1738 139.675 92.7975 137.496C86.5838 133.461 64.1385 120.368 55.4362 115.55C55.4322 115.532 55.4234 115.516 55.4107 115.504C55.3981 115.491 55.3822 115.482 55.3648 115.478C48.6677 111.412 44.7525 80.2409 40.116 65.5469C40.0209 65.2298 39.9178 64.9287 39.8148 64.6354C39.7118 64.3422 39.6563 64.1678 39.577 63.9459C39.2838 63.1533 38.9826 62.4162 38.6656 61.7505" fill="#00F0FF"/>
<path d="M97.7588 143.424C97.7588 141.617 96.1737 139.675 92.7974 137.496C86.5837 133.462 64.1384 120.368 55.4361 115.55C55.4321 115.532 55.4232 115.516 55.4106 115.504C55.398 115.491 55.3821 115.482 55.3647 115.478C48.6676 111.413 44.7523 80.2411 40.1159 65.547C39.8412 64.6298 39.5184 63.7277 39.1489 62.8444C39.1489 62.7731 39.0935 62.7097 39.0618 62.6463L38.8002 62.0439C38.7527 61.9488 38.713 61.8458 38.6655 61.7507C37.9353 60.074 36.8854 58.5557 35.5745 57.2806C35.1178 56.857 34.606 56.497 34.0528 56.2107L31.3264 54.681C26.7771 51.9546 20.817 55.22 13.3828 59.2937C8.76215 61.8299 4.81519 64.8417 2.41373 70.453C1.11637 73.6781 0.340523 77.0892 0.115307 80.5582C-0.542518 88.3094 1.9699 116.953 3.54709 128.167C5.82174 146.911 8.61948 146.943 12.6853 150.082C19.6678 155.479 39.7671 166.06 46.4009 168.675C58.424 173.43 68.2597 166.107 75.5909 162.485C82.3116 159.087 88.7985 155.245 95.0086 150.985C96.8395 149.654 97.7905 148.306 97.7667 146.888C97.7509 146.325 97.7588 144.019 97.7588 143.424Z" fill="#00F0FF"/>
<path opacity="0.25" d="M97.7588 143.424C97.7588 141.617 96.1737 139.675 92.7974 137.496C86.5837 133.462 64.1384 120.368 55.4361 115.55C55.4321 115.532 55.4232 115.516 55.4106 115.504C55.398 115.491 55.3821 115.482 55.3647 115.478C48.6676 111.413 44.7523 80.2411 40.1159 65.547C39.8412 64.6298 39.5184 63.7277 39.1489 62.8444C39.1489 62.7731 39.0935 62.7097 39.0618 62.6463L38.8002 62.0439C38.7527 61.9488 38.713 61.8458 38.6655 61.7507C37.9353 60.074 36.8854 58.5557 35.5745 57.2806C35.1178 56.857 34.606 56.497 34.0528 56.2107L31.3264 54.681C26.7771 51.9546 20.817 55.22 13.3828 59.2937C8.76215 61.8299 4.81519 64.8417 2.41373 70.453C1.11637 73.6781 0.340523 77.0892 0.115307 80.5582C-0.542518 88.3094 1.9699 116.953 3.54709 128.167C5.82174 146.911 8.61948 146.943 12.6853 150.082C19.6678 155.479 39.7671 166.06 46.4009 168.675C58.424 173.43 68.2597 166.107 75.5909 162.485C82.3116 159.087 88.7985 155.245 95.0086 150.985C96.8395 149.654 97.7905 148.306 97.7667 146.888C97.7509 146.325 97.7588 144.019 97.7588 143.424Z" fill="white"/>
<path d="M75.5751 159.006C82.2945 155.603 88.7813 151.759 94.9928 147.498C99.1617 144.471 98.7812 141.372 92.8053 137.496C84.4993 132.115 50.657 112.927 50.657 112.927C50.657 112.927 7.85866 138.17 9.72118 142.838C11.5837 147.506 38.0394 161.923 46.3851 165.204C58.4161 169.92 68.2439 162.62 75.5751 159.006Z" fill="#00F0FF"/>
<path opacity="0.6" d="M75.5751 159.006C82.2945 155.603 88.7813 151.759 94.9928 147.498C99.1617 144.471 98.7812 141.372 92.8053 137.496C84.4993 132.115 50.657 112.927 50.657 112.927C50.657 112.927 7.85866 138.17 9.72118 142.838C11.5837 147.506 38.0394 161.923 46.3851 165.204C58.4161 169.92 68.2439 162.62 75.5751 159.006Z" fill="white"/>
<path d="M34.0124 56.2107C29.5106 53.833 23.6615 57.0666 16.4175 61.0295C11.8207 63.5736 7.85787 66.617 5.48018 72.2204L2.4209 70.453C4.79858 64.8417 8.76139 61.8299 13.3899 59.2937C20.8242 55.22 26.7842 51.9546 31.3335 54.681L34.0124 56.2107Z" fill="#00F0FF"/>
<path opacity="0.5" d="M34.0124 56.2107C29.5106 53.833 23.6615 57.0666 16.4175 61.0295C11.8207 63.5736 7.85787 66.617 5.48018 72.2204L2.4209 70.453C4.79858 64.8417 8.76139 61.8299 13.3899 59.2937C20.8242 55.22 26.7842 51.9546 31.3335 54.681L34.0124 56.2107Z" fill="white"/>
<path d="M40.1174 65.5472C40.0223 65.2301 38.4689 59.8407 35.5681 57.2808C34.2177 56.0651 32.4633 55.3956 30.6463 55.4024C26.6835 55.4024 21.9915 58.002 16.4515 61.0296C15.9919 61.2832 15.5401 61.5447 15.0883 61.8221L14.5732 62.1233C14.3671 62.2501 14.161 62.3769 13.9629 62.5117C13.7648 62.6464 13.6617 62.7019 13.5111 62.8049C12.5344 63.4463 11.6023 64.1533 10.7213 64.921C10.5787 65.0479 10.4439 65.1667 10.3092 65.3015C9.74719 65.8148 9.21779 66.3628 8.72408 66.9421C8.63689 67.053 8.54179 67.1561 8.45461 67.2591L8.14551 67.6475C8.04248 67.7822 7.94737 67.9169 7.83641 68.0517L7.54316 68.4638C7.14484 69.033 6.7771 69.6229 6.4415 70.2312C6.39395 70.3105 6.3464 70.3897 6.30677 70.469L6.04522 70.9683L5.68857 71.7133C4.25503 75.0766 3.40796 78.6606 3.18408 82.3098C2.10619 95.0384 6.35432 140.658 10.7372 144.28C10.7372 144.28 10.0635 140.167 18.8689 134.627C24.8527 130.862 29.0533 127.7 35.4413 124.561C50.9993 116.921 55.3663 115.486 55.3663 115.486C48.6692 111.413 44.7539 80.2412 40.1174 65.5472Z" fill="#00F0FF"/>
<path opacity="0.4" d="M40.1174 65.5472C40.0223 65.2301 38.4689 59.8407 35.5681 57.2808C34.2177 56.0651 32.4633 55.3956 30.6463 55.4024C26.6835 55.4024 21.9915 58.002 16.4515 61.0296C15.9919 61.2832 15.5401 61.5447 15.0883 61.8221L14.5732 62.1233C14.3671 62.2501 14.161 62.3769 13.9629 62.5117C13.7648 62.6464 13.6617 62.7019 13.5111 62.8049C12.5344 63.4463 11.6023 64.1533 10.7213 64.921C10.5787 65.0479 10.4439 65.1667 10.3092 65.3015C9.74719 65.8148 9.21779 66.3628 8.72408 66.9421C8.63689 67.053 8.54179 67.1561 8.45461 67.2591L8.14551 67.6475C8.04248 67.7822 7.94737 67.9169 7.83641 68.0517L7.54316 68.4638C7.14484 69.033 6.7771 69.6229 6.4415 70.2312C6.39395 70.3105 6.3464 70.3897 6.30677 70.469L6.04522 70.9683L5.68857 71.7133C4.25503 75.0766 3.40796 78.6606 3.18408 82.3098C2.10619 95.0384 6.35432 140.658 10.7372 144.28C10.7372 144.28 10.0635 140.167 18.8689 134.627C24.8527 130.862 29.0533 127.7 35.4413 124.561C50.9993 116.921 55.3663 115.486 55.3663 115.486C48.6692 111.413 44.7539 80.2412 40.1174 65.5472Z" fill="white"/>
<path opacity="0.1" d="M97.751 146.887C97.751 148.298 96.8237 149.653 94.9929 150.985C88.7855 155.259 82.2983 159.111 75.5751 162.516C71.7629 164.403 67.277 167.272 62.157 168.936C49.8644 161.724 28.6713 149.122 23.4563 144.945C20.6665 142.718 18.9863 138.985 17.9876 135.189C16.9503 130.968 16.4549 126.632 16.5135 122.286C13.5813 121.311 10.961 119.574 8.92072 117.253C5.84559 113.861 5.02925 102.837 3.80078 77.7679C4.1929 75.6832 4.82591 73.6512 5.68708 71.7127L6.04373 70.9677C6.13091 70.8013 6.2181 70.6348 6.3132 70.4684C6.35095 70.3868 6.39328 70.3074 6.44001 70.2306C6.77381 69.6213 7.14161 69.0312 7.54167 68.4632L7.83492 68.0511C7.94588 67.9084 8.03306 67.7737 8.14402 67.6469L8.45312 67.2585C8.5403 67.1555 8.62748 67.0445 8.72258 66.9494C9.21827 66.3694 9.74756 65.8189 10.3077 65.3009C10.4424 65.1661 10.5851 65.0473 10.7198 64.9204C11.6008 64.1527 12.5329 63.4457 13.5097 62.8043C13.6534 62.6964 13.8044 62.5985 13.9614 62.5111C14.1596 62.3763 14.3577 62.2495 14.5717 62.1306C14.7377 62.0184 14.9097 61.9152 15.0869 61.8215C15.5307 61.56 15.9904 61.2905 16.4501 61.029C21.998 58.0093 26.7058 55.4097 30.6448 55.4097C32.3194 55.4038 33.9472 55.9622 35.2655 56.9948C35.3701 57.074 35.4681 57.1615 35.5587 57.2564C36.5797 58.2117 37.4295 59.3349 38.0711 60.5772C38.1662 60.7595 38.2693 60.9418 38.3564 61.1241C38.3806 61.162 38.4018 61.2017 38.4198 61.243C38.507 61.4015 38.5784 61.56 38.6576 61.7264L38.7448 61.9087L38.7924 62.0197C38.8399 62.1148 38.8875 62.2257 38.9271 62.3208C39.0935 62.6775 39.2362 63.0262 39.3551 63.3432L39.4502 63.5652C39.5453 63.8188 39.6325 64.0565 39.7038 64.2705L39.7751 64.4687C39.7998 64.5335 39.821 64.5997 39.8385 64.6668C39.8617 64.7179 39.8803 64.7709 39.894 64.8253C39.894 64.8808 39.894 64.9284 39.9495 64.9839C40.005 65.0393 39.997 65.1186 40.0129 65.1741C40.0287 65.2295 40.0129 65.2692 40.0129 65.3009L40.0842 65.5149C44.7207 80.2169 48.636 111.396 55.3331 115.446C55.3505 115.45 55.3664 115.459 55.379 115.472C55.3916 115.484 55.4004 115.5 55.4044 115.518C64.1226 120.336 86.5521 133.429 92.7658 137.456C96.1341 139.643 97.7193 141.585 97.7272 143.4C97.7589 144.018 97.743 146.324 97.751 146.887Z" fill="black"/>
<path d="M126.608 53.7144C124.856 54.3326 117.525 57.9467 113.879 57.7802C112.294 57.7168 111.953 57.4077 112.08 56.9877C112.246 56.4646 113.332 55.7909 113.665 55.4026C114.188 54.7051 117.105 51.8994 116.431 50.1003C115.758 48.3012 114.696 49.7595 112.112 51.5903C110.59 52.6682 108.886 53.4291 107.269 54.3564C106.389 54.8636 103.235 55.9415 101.452 59.6428C99.6686 63.344 99.1692 65.7693 97.8219 67.7665C95.5789 71.3013 92.052 76.0012 87.9862 81.6522C87.9862 81.6522 73.7835 63.7403 71.0809 60.3957C68.3782 57.0511 63.0126 51.7489 57.75 50.4966L64.9227 76.3658C64.9227 76.3658 72.6422 87.1605 80.7739 96.1798C87.3125 103.471 91.5844 104.153 95.7216 97.9789C96.1395 97.3814 96.5258 96.7624 96.8787 96.1243C100.96 88.8645 102.649 83.7208 106.81 74.6697C107.376 73.325 108.08 72.0423 108.91 70.8417C111.406 68.5908 116.114 68.1945 118.476 67.2593C121.963 65.8723 123.786 64.3427 125.403 62.0522C126.925 59.9043 126.441 57.7802 127.345 56.5042C128.248 55.2282 128.367 53.0962 126.608 53.7144Z" fill="#FFA8A7"/>
<path d="M55.3633 49.7041C62.4963 49.7041 65.4922 52.9615 69.883 58.2083C72.6094 61.4657 87.9851 80.6932 87.9851 80.6932L91.6229 76.453C91.6229 76.453 91.4248 82.1674 93.8183 85.298C96.2119 88.4286 100.397 89.2608 100.397 89.2608C100.397 89.2608 97.6306 96.3146 94.9834 100.103C92.3362 103.891 88.5716 104.383 83.6022 100.016C78.6329 95.6489 62.9164 80.0909 62.9164 80.0909L55.3633 49.7041Z" fill="#00F0FF"/>
<path opacity="0.35" d="M55.3633 49.7041C62.4963 49.7041 65.4922 52.9615 69.883 58.2083C72.6094 61.4657 87.9851 80.6932 87.9851 80.6932L91.6229 76.453C91.6229 76.453 91.4248 82.1674 93.8183 85.298C96.2119 88.4286 100.397 89.2608 100.397 89.2608C100.397 89.2608 97.6306 96.3146 94.9834 100.103C92.3362 103.891 88.5716 104.383 83.6022 100.016C78.6329 95.6489 62.9164 80.0909 62.9164 80.0909L55.3633 49.7041Z" fill="black"/>
<path opacity="0.2" d="M87.9854 80.6932C84.6408 84.7194 83.3252 90.8538 83.4678 93.073C83.4678 93.073 82.0492 87.0495 86.6381 79.0288L87.9854 80.6932Z" fill="black"/>
<path d="M92.8994 74.5903L90.0303 78.3154C90.0303 78.3154 90.3473 83.4512 93.4066 86.5184C95.2037 88.3422 97.4734 89.6293 99.9611 90.2355L101.736 86.3836C101.736 86.3836 94.2943 82.0404 92.8994 74.5903Z" fill="#37474F"/>
<path d="M114.202 62.6536C111.032 60.0065 106.721 61.3776 104.811 63.6364C105.281 62.709 105.98 61.9164 106.841 61.3328C107.702 60.7492 108.697 60.3937 109.732 60.2997C111.413 60.1095 113.235 61.2746 114.202 62.6774V62.6536Z" fill="#F28F8F"/>
<path d="M71.2618 220.167C71.1483 220.812 71.2029 221.476 71.4203 222.093C71.7848 222.973 74.2418 224.598 75.5099 225.264C76.9617 226.078 78.1269 227.321 78.8466 228.822C80.3524 231.477 82.635 234.323 85.5199 235.694C89.3932 237.419 93.6993 237.928 97.868 237.152C103.059 236.288 103.519 233.245 103.519 233.245C103.519 233.245 103.836 230.384 102.552 229.908C101.268 229.433 71.2618 220.167 71.2618 220.167Z" fill="#263238"/>
<path d="M70.589 216.625C70.5467 217.84 70.7712 219.049 71.2469 220.168C72.7369 222.3 76.3351 223.045 78.3799 225.961C80.4247 228.878 82.8341 233.356 89.5867 234.791C96.3393 236.225 101.523 234.149 102.799 232.239C104.075 230.328 102.965 228.498 98.6536 226.088C94.0647 223.544 88.6991 216.815 88.6991 216.807C86.9237 214.509 86.1787 211.481 85.1959 208.779C85.1008 208.517 84.9502 208.216 84.6728 208.2C84.3954 208.184 84.1815 208.604 83.9992 208.89C83.6753 209.301 83.2138 209.583 82.6994 209.682C82.1128 209.886 81.5147 210.056 80.9082 210.189C79.6961 210.462 78.4572 210.598 77.2148 210.594C77.0104 210.562 76.8016 210.572 76.6013 210.624C76.401 210.676 76.2133 210.768 76.0498 210.895C75.9445 211.042 75.8699 211.21 75.8304 211.387C75.7909 211.564 75.7874 211.747 75.8199 211.925C75.8463 212.383 75.9046 212.839 75.9943 213.288C76.0456 213.507 76.0456 213.735 75.9943 213.954C75.935 214.114 75.826 214.25 75.6832 214.343C75.5405 214.436 75.3717 214.48 75.2017 214.469C74.8707 214.457 74.5498 214.352 74.2744 214.168C73.7234 213.897 73.2402 213.505 72.8603 213.022C72.4804 212.539 72.2134 211.978 72.079 211.378C72.079 211.378 72.0394 210.689 71.9681 210.063C71.5714 210.265 71.2698 210.615 71.128 211.038C71.0012 211.553 71.0408 212.115 70.9615 212.623C70.7367 213.945 70.6122 215.283 70.589 216.625Z" fill="#455A64"/>
<path d="M103.971 209.991C103.931 210.646 104.056 211.3 104.336 211.893C104.795 212.726 107.419 214.073 108.742 214.58C110.066 215.087 111.12 215.951 112.444 217.75C114.227 220.223 116.803 222.815 119.814 223.869C123.855 225.165 128.194 225.204 132.258 223.98C137.322 222.561 137.449 219.486 137.449 219.486C137.449 219.486 137.449 216.601 136.125 216.276C134.802 215.951 103.971 209.991 103.971 209.991Z" fill="#263238"/>
<path d="M102.964 206.536C103.048 207.75 103.4 208.93 103.995 209.991C105.714 211.949 109.36 212.298 111.706 214.977C114.052 217.655 116.929 221.848 123.801 222.553C130.672 223.259 135.594 220.628 136.664 218.591C137.734 216.554 136.418 214.85 131.869 212.924C127.05 210.879 120.971 204.776 120.963 204.768C118.958 202.668 117.888 199.744 116.62 197.168C116.501 196.914 116.311 196.629 116.034 196.645C115.756 196.661 115.59 197.096 115.447 197.398C115.17 197.848 114.739 198.183 114.234 198.341C113.672 198.604 113.095 198.837 112.507 199.038C111.331 199.44 110.113 199.706 108.877 199.831C108.672 199.822 108.467 199.854 108.275 199.927C108.083 199.999 107.908 200.109 107.759 200.251C107.67 200.409 107.612 200.584 107.59 200.765C107.569 200.946 107.583 201.13 107.632 201.305C107.714 201.758 107.822 202.205 107.957 202.644C108.044 202.852 108.076 203.078 108.052 203.302C108.006 203.461 107.913 203.602 107.786 203.708C107.659 203.814 107.504 203.88 107.339 203.897C107.007 203.918 106.676 203.85 106.38 203.698C105.818 203.477 105.312 203.132 104.9 202.689C104.489 202.246 104.182 201.716 104.003 201.139C103.913 200.707 103.799 200.281 103.662 199.862C103.289 200.107 103.027 200.489 102.933 200.924C102.861 201.456 102.933 202.002 102.933 202.51C102.842 203.851 102.853 205.196 102.964 206.536Z" fill="#455A64"/>
<path d="M20.3249 114.678L36.1761 112.958L68.4096 114.694C68.4096 114.694 87.7639 127.081 101.816 136.957C105.898 139.834 110.225 142.972 110.946 148.996C111.961 157.532 117.564 199.292 117.564 199.292C115.583 204.388 105.327 205.236 102.823 203.754C101.38 197.897 101 196.716 98.408 188.695C96.5138 182.83 95.1664 177.742 93.5972 172.947C92.026 167.651 91.0713 162.191 90.7519 156.676L70.2562 143.828C74.7738 148.425 76.248 149.915 78.6178 152.301C80.6943 154.401 82.0654 157.056 82.6757 163.833C83.8883 177.306 85.9965 207.59 86.1471 211.703C84.451 214.081 76.1608 216.99 70.7239 214.255C69.2497 206.504 67.5536 200.655 65.3582 189.955C62.9251 178.154 62.402 170.339 62.719 166.083C62.719 166.083 52.7486 159.941 41.3832 152.467C36.5486 149.297 29.693 145.921 26.3246 142.243C20.6736 135.926 20.103 126.21 20.3249 114.678Z" fill="#37474F"/>
<path d="M70.2882 143.82L58.7168 130.68C58.7168 130.68 64.8988 128.603 68.1245 120.583C68.1245 120.583 67.4033 128.183 62.854 131.52L68.2672 138.867L90.7838 156.668L70.2882 143.82Z" fill="#263238"/>
<path d="M20.3013 120.131C20.3013 120.131 19.6197 124.149 20.6817 125.917C25.4846 128.374 32.9664 129.372 47.185 127.367C64.6213 124.918 68.275 116.454 68.7426 115.606C69.2102 114.758 68.806 112.697 68.3146 110.604L20.3013 120.131Z" fill="#00F0FF"/>
<g opacity="0.35">
<path d="M20.3003 120.131C20.3003 120.131 19.6187 124.149 20.6807 125.917C25.4837 128.374 32.9654 129.372 47.184 127.367C64.6203 124.918 68.274 116.454 68.7416 115.606C69.2093 114.758 68.805 112.697 68.3137 110.604L20.3003 120.131Z" fill="black"/>
</g>
<path d="M66.2304 66.5532C64.1064 53.9595 59.1766 49.5845 52.2972 49.2279L36.8343 48.7603C33.569 49.743 23.1627 51.8275 18.7243 53.3333C14.286 54.8392 14.7615 65.6814 16.0851 72.3072C17.4087 78.933 17.8446 84.1957 17.9318 95.1409C18.1378 105.769 17.5751 117.42 20.3094 120.13C30.1213 125.869 58.7249 123.808 68.3228 110.62C70.5578 106.49 68.3941 100.142 68.0058 93.6034C67.3004 81.8972 66.9279 70.73 66.2304 66.5532Z" fill="#00F0FF"/>
<path opacity="0.2" d="M66.2304 66.5532C64.1064 53.9595 59.1766 49.5845 52.2972 49.2279L36.8343 48.7603C33.569 49.743 23.1627 51.8275 18.7243 53.3333C14.286 54.8392 14.7615 65.6814 16.0851 72.3072C17.4087 78.933 17.8446 84.1957 17.9318 95.1409C18.1378 105.769 17.5751 117.42 20.3094 120.13C30.1213 125.869 58.7249 123.808 68.3228 110.62C70.5578 106.49 68.3941 100.142 68.0058 93.6034C67.3004 81.8972 66.9279 70.73 66.2304 66.5532Z" fill="black"/>
<path d="M30.5898 50.2978C32.7694 49.6717 35.7415 49.0852 36.8352 48.7603L47.1385 49.0773C50.1423 50.7337 54.2161 54.7916 49.5955 57.2724C44.9748 59.7531 37.1681 57.8351 34.0216 54.8947C32.5254 53.66 31.3483 52.0833 30.5898 50.2978Z" fill="#37474F"/>
<path d="M61.1415 11.0903C61.1275 9.89531 60.7281 8.73679 60.0027 7.78713C59.2772 6.83747 58.2645 6.14744 57.1153 5.81974C55.3131 5.46691 53.4646 5.41869 51.6466 5.67708C48.2386 5.97825 44.8385 5.24117 41.4463 4.82111C39.1768 4.4763 36.8681 4.4763 34.5986 4.82111C32.5886 5.13964 30.6853 5.93902 29.0507 7.15125C26.8394 8.97414 26.1499 10.591 26.0944 13.8405C23.9941 15.1086 23.5186 17.621 23.4552 20.4425C23.3839 23.9377 25.175 27.1396 26.6254 30.2227C26.6254 30.2227 30.2474 38.0532 31.0955 39.5828C32.0862 41.3661 32.958 42.864 32.958 42.864L32.3636 36.2699C34.7413 35.9688 36.7068 36.6345 38.9577 35.7072C41.0729 34.8143 43.1136 33.7542 45.0604 32.537C47.0982 31.2697 49.0593 29.8829 50.9333 28.3839C51.8685 27.6389 52.7799 26.8543 53.6993 26.0855C54.2878 25.4459 54.9294 24.8573 55.6173 24.326C56.1768 24.053 56.7605 23.8327 57.361 23.6682C58.7461 23.2488 59.9583 22.3924 60.8165 21.2271C61.3851 20.3202 61.6617 19.2607 61.6091 18.1916C61.514 16.8126 60.769 15.2274 59.4771 14.736C60.2697 14.4507 61.189 12.3663 61.1415 11.0903Z" fill="#E0E0E0"/>
<path d="M37.478 14.8235C37.5493 16.8842 35.7106 20.6013 32.8811 23.2485C33.4145 25.5248 33.5565 27.8753 33.3012 30.1992C33.2405 30.6995 33.0787 31.1821 32.8257 31.6179C32.6975 31.8289 32.5246 32.0092 32.3192 32.1462C32.1138 32.2831 31.8809 32.3733 31.6368 32.4105C30.9631 32.4897 30.6699 32.0855 30.448 31.5704C30.1269 30.9072 29.7615 30.2664 29.3542 29.6524C29.1778 29.3834 28.9673 29.1383 28.7281 28.9232C27.674 28.0118 24.6068 26.9735 23.3229 30.2389C21.9914 33.631 24.8287 37.9426 27.2857 38.537C31.5338 39.5515 32.3422 36.6586 32.3422 36.6586L32.7702 50.5522C34.0779 54.0315 40.6958 57.2097 45.9505 56.3458C51.2051 55.4819 49.3902 52.383 47.1789 50.2906L47.2741 45.456C49.1335 45.5736 51.0003 45.435 52.822 45.0439C54.9857 44.5446 56.7055 42.4364 57.4902 39.0838C58.9802 32.6958 58.362 23.724 57.4109 19.785C56.4598 15.8459 54.2407 13.3573 53.0597 12.8184C53.1311 13.6664 52.505 15.7429 48.3044 16.4879C43.866 17.2963 40.7513 16.0362 37.478 14.8235Z" fill="#FFA8A7"/>
<path d="M38.1738 27.5281C38.166 27.4942 38.166 27.459 38.1738 27.4251C38.1738 27.4251 38.2293 27.3776 38.2531 27.3459C38.2768 27.3141 38.4829 27.2745 38.5622 27.2666H38.8158H39.3151C39.6386 27.2884 39.9595 27.3388 40.2741 27.4172C40.4247 27.4568 40.3851 27.7897 40.2741 27.758C39.9423 27.6779 39.6002 27.6485 39.2596 27.6708C39.0932 27.6708 38.9267 27.6708 38.7603 27.7104H38.5067C38.4195 27.7104 38.3086 27.7738 38.2293 27.7104C38.2061 27.6868 38.1889 27.6578 38.1792 27.6261C38.1696 27.5943 38.1677 27.5607 38.1738 27.5281Z" fill="#F28F8F"/>
<path d="M39.5615 28.4396C39.6951 28.4003 39.8345 28.3843 39.9736 28.392H40.1242C40.1897 28.427 40.2509 28.4695 40.3065 28.5188C40.3699 28.5585 40.3699 28.7408 40.3065 28.7645L39.934 28.8755C39.8309 28.8755 39.72 28.9151 39.6169 28.9468H39.5298C39.4676 28.9632 39.4086 28.99 39.3554 29.0261L39.2365 29.0895C39.1623 29.1168 39.0809 29.1168 39.0067 29.0895C38.971 29.0781 38.9397 29.0561 38.917 29.0263C38.8943 28.9965 38.8814 28.9605 38.8799 28.9231C38.7689 28.6774 39.2761 28.4951 39.5615 28.4396Z" fill="#F28F8F"/>
<path d="M39.5145 30.072C39.7498 29.7903 40.0604 29.5814 40.4101 29.4697C40.4242 29.4605 40.4407 29.4556 40.4576 29.4556C40.4745 29.4556 40.491 29.4605 40.5052 29.4697C40.5166 29.5031 40.5166 29.5393 40.5052 29.5727C40.5052 29.644 40.5052 29.7629 40.4101 29.7946C40.3358 29.8224 40.2642 29.8569 40.1961 29.8977L40.0851 29.9531H40.0376C39.9733 29.999 39.9124 30.0493 39.8553 30.1037L39.673 30.2702C39.6628 30.2849 39.6491 30.2969 39.6333 30.3052C39.6174 30.3135 39.5998 30.3178 39.5818 30.3178C39.5639 30.3178 39.5463 30.3135 39.5304 30.3052C39.5145 30.2969 39.5009 30.2849 39.4907 30.2702C39.4811 30.2372 39.4782 30.2027 39.4823 30.1687C39.4864 30.1346 39.4973 30.1017 39.5145 30.072Z" fill="#F28F8F"/>
<path d="M56.5849 26.1968L56.6879 26.1175L56.8226 26.0462L57.0842 25.9114C57.2243 25.8388 57.3736 25.7854 57.528 25.7529C57.639 25.7529 57.7103 25.8163 57.7182 25.9194C57.7222 25.9793 57.7095 26.0392 57.6815 26.0924C57.6536 26.1455 57.6114 26.1899 57.5597 26.2205C57.4011 26.3056 57.2298 26.3645 57.0525 26.3949L56.8068 26.4345H56.6086C56.5531 26.4345 56.5294 26.3711 56.5214 26.3315C56.5135 26.2919 56.5294 26.1968 56.5849 26.1968Z" fill="#F28F8F"/>
<path d="M56.7428 27.4485C56.7347 27.4824 56.7347 27.5177 56.7428 27.5515C56.7541 27.568 56.7697 27.5811 56.7878 27.5895C56.8059 27.5978 56.826 27.6012 56.8458 27.5991H56.9964H57.0915H57.0361L57.1391 27.6387H57.1946C57.2484 27.6579 57.3075 27.6564 57.3602 27.6344C57.413 27.6124 57.4556 27.5716 57.4799 27.5198C57.5136 27.47 57.5353 27.413 57.5433 27.3534C57.5474 27.3239 57.5453 27.2938 57.5371 27.2651C57.5289 27.2365 57.5148 27.2098 57.4958 27.1869C57.4521 27.1277 57.3912 27.0834 57.3214 27.0601C57.2585 27.0483 57.194 27.0483 57.1312 27.0601C57.0125 27.0678 56.8978 27.106 56.7983 27.1711C56.7587 27.1972 56.7261 27.2326 56.7032 27.2741C56.702 27.3346 56.7156 27.3944 56.7428 27.4485Z" fill="#F28F8F"/>
<path d="M43.1889 35.4932C43.2458 35.298 43.3469 35.1185 43.4843 34.9687C43.6218 34.8189 43.7919 34.7028 43.9815 34.6293C44.161 34.5872 44.349 34.6011 44.5204 34.669C44.5838 34.669 44.6552 34.7086 44.6552 34.772C44.6552 34.8354 44.5759 34.8829 44.5046 34.8988C44.2661 34.9008 44.0338 34.9754 43.8388 35.1128C43.7662 35.1998 43.705 35.2957 43.6565 35.3981C43.6011 35.4853 43.395 35.8023 43.2603 35.7072C43.2271 35.6838 43.2023 35.6504 43.1894 35.6119C43.1766 35.5734 43.1764 35.5318 43.1889 35.4932Z" fill="#F28F8F"/>
<path d="M47.2722 45.4796C43.3807 45.2656 40.2105 44.8455 37.9913 43.7755C36.3587 42.983 34.8766 40.4072 34.4248 39.4878C34.4248 39.4878 34.6626 43.086 36.8817 45.0357C40.052 47.7542 47.2326 47.4847 47.2326 47.4847L47.2722 45.4796Z" fill="#F28F8F"/>
<path d="M45.2121 27.4648C45.3627 28.2574 44.372 27.1636 43.627 27.3063C42.882 27.449 42.2321 28.8914 42.0419 28.0989C42.0074 27.6955 42.1287 27.2942 42.3807 26.9774C42.6327 26.6605 42.9964 26.4521 43.3972 26.3949C43.7794 26.3025 44.1826 26.3626 44.5213 26.5623C44.8601 26.762 45.1078 27.0857 45.2121 27.4648Z" fill="#263238"/>
<path d="M55.1744 26.149C55.325 26.9416 54.3343 25.8399 53.5893 25.9905C52.8442 26.1411 52.1943 27.5756 52.0041 26.7831C51.9791 26.3817 52.1038 25.9853 52.3541 25.6705C52.6045 25.3557 52.9627 25.145 53.3594 25.0791C53.7418 24.9847 54.1459 25.0438 54.4852 25.2438C54.8244 25.4438 55.0719 25.7688 55.1744 26.149Z" fill="#263238"/>
<path d="M43.2854 23.3196L39.9408 24.8572C39.7463 24.3994 39.7348 23.8844 39.9088 23.4184C40.0828 22.9524 40.4291 22.5709 40.8761 22.3527C41.0969 22.2517 41.3359 22.1967 41.5787 22.1909C41.8215 22.1852 42.0628 22.2289 42.2882 22.3193C42.5135 22.4097 42.7182 22.5451 42.8896 22.717C43.061 22.889 43.1957 23.094 43.2854 23.3196Z" fill="#455A64"/>
<path d="M44.5076 36.0718L49.0569 37.752C48.9605 38.0577 48.8034 38.3407 48.5949 38.5841C48.3865 38.8275 48.1309 39.0262 47.8437 39.1684C47.5564 39.3105 47.2434 39.3931 46.9235 39.4112C46.6035 39.4293 46.2832 39.3825 45.9817 39.2737C45.3714 39.0321 44.8776 38.5645 44.603 37.9682C44.3285 37.3718 44.2943 36.6927 44.5076 36.0718Z" fill="#B16668"/>
<path d="M55.7127 23.4304L52.3047 22.2495C52.3777 22.0287 52.4942 21.8248 52.6472 21.6498C52.8003 21.4747 52.9868 21.332 53.1958 21.2301C53.4048 21.1282 53.632 21.0691 53.8642 21.0563C54.0963 21.0436 54.3287 21.0774 54.5476 21.1557C55.0001 21.3081 55.3751 21.6312 55.5927 22.0561C55.8104 22.481 55.8534 22.9742 55.7127 23.4304Z" fill="#455A64"/>
<path d="M48.9586 33.4561L53.3969 31.4668L47.6191 23.5649L48.9586 33.4561Z" fill="#F28F8F"/>
<path d="M47.1996 39.3685C47.1729 38.805 46.9247 38.2749 46.5091 37.8935C46.0936 37.512 45.5442 37.3101 44.9805 37.3316C44.7944 37.3414 44.6105 37.376 44.4336 37.4347C44.5144 37.8469 44.6986 38.232 44.969 38.5536C45.2393 38.8752 45.5869 39.1229 45.9791 39.2734C46.37 39.4141 46.7916 39.4469 47.1996 39.3685Z" fill="#F28F8F"/>
<path d="M45.9476 56.369C45.3532 54.3242 44.6478 53.1988 42.0878 52.8342C38.9731 52.3666 34.3921 49.3549 32.6484 46.7632L32.7673 50.5754C32.7673 50.5754 33.3776 53.4524 38.4183 55.6716C40.7891 56.7023 43.4278 56.9467 45.9476 56.369Z" fill="#E0E0E0"/>
<path d="M45.9473 56.3691C46.5734 53.3653 47.1123 53.3336 47.675 52.4063C48.2378 51.479 47.1757 50.3298 47.1757 50.3298L47.2233 47.8174C47.2233 47.8174 49.1334 49.6561 49.2364 51.0748C49.3394 52.4935 51.3129 55.5686 45.9473 56.3691Z" fill="#E0E0E0"/>
<path d="M44.5208 53.7616C42.4919 52.9056 39.7654 59.6503 39.7654 59.6503C39.7654 59.6503 34.0669 58.0652 31.6417 55.8857C28.1624 52.7154 27.9404 50.9084 27.9404 50.9084C27.9404 50.9084 31.5862 44.7898 32.5294 44.5679L32.5928 46.3828C33.6446 48.1632 35.1849 49.6045 37.0311 50.5359C40.4074 52.4618 43.6965 52.7313 44.5208 53.7616Z" fill="#FAFAFA"/>
<path d="M46.7959 53.6741C47.2952 52.937 48.4603 52.9608 49.3321 54.2051C49.8552 54.958 51.6305 58.1679 51.6305 58.1679C52.093 55.9762 51.9394 53.6993 51.1867 51.5896C49.9344 48.142 48.5792 46.3112 47.2239 46.2319L47.1446 50.3216C47.3721 50.893 47.3973 51.525 47.216 52.1127C47.0452 52.6244 46.9049 53.1458 46.7959 53.6741Z" fill="#FAFAFA"/>
<path d="M19.8958 52.9614C22.3606 53.4528 26.6008 62.7971 26.4265 72.3712L27.219 102.489L44.4255 109.836C41.3028 111.651 38.8776 118.395 38.6795 123.151C36.3018 122.889 23.4306 120.702 15.1404 116.992C11.2965 115.273 9.22789 113.941 8.63347 103.138C7.96772 91.1866 6.62037 78.0222 7.32575 68.9474C8.09453 59.4366 10.6783 55.561 19.8958 52.9614Z" fill="#00F0FF"/>
<path opacity="0.35" d="M19.8958 52.9614C22.3606 53.4528 26.6008 62.7971 26.4265 72.3712L27.219 102.489L44.4255 109.836C41.3028 111.651 38.8776 118.395 38.6795 123.151C36.3018 122.889 23.4306 120.702 15.1404 116.992C11.2965 115.273 9.22789 113.941 8.63347 103.138C7.96772 91.1866 6.62037 78.0222 7.32575 68.9474C8.09453 59.4366 10.6783 55.561 19.8958 52.9614Z" fill="black"/>
<path opacity="0.2" d="M27.2516 102.449C23.6217 101.752 19.5321 103.424 17.2178 105.619C18.2973 103.617 20.0868 102.09 22.2347 101.34C25.8646 100.064 27.204 100.642 27.204 100.642L27.2516 102.449Z" fill="black"/>
<path d="M43.521 109.463C43.521 109.463 46.4059 110.43 48.5537 111.381C46.5446 112.28 44.8085 113.693 43.521 115.478C41.3176 118.506 41.389 123.658 41.389 123.658L36.7446 122.865C36.2494 119.891 36.7188 116.836 38.084 114.147C40.3507 109.907 43.521 109.463 43.521 109.463Z" fill="#37474F"/>
<path d="M86.6715 122.445C85.443 122.231 83.3428 126.242 80.8858 125.734C78.4289 125.227 74.0539 124.839 71.6129 125.417C69.1718 125.996 65.7321 127.676 62.7362 127.319C60.2158 127.018 56.3957 126.527 51.9573 125.663C47.519 124.799 44.3646 124.236 41.4163 123.658C41.4163 123.658 41.345 118.514 43.5483 115.487C44.8342 113.698 46.5706 112.282 48.581 111.381L60.6042 115.994C65.3041 116.232 68.0146 114.718 70.9947 113.038C71.6446 112.673 72.3262 112.332 72.9998 112.015C73.7604 111.725 74.564 111.565 75.3775 111.54C77.137 111.349 78.7063 111.373 80.6243 111.088C80.7597 111.068 80.8981 111.09 81.0206 111.151C81.3376 111.334 81.2663 111.825 81.0998 112.15C80.6423 112.95 79.9622 113.6 79.1422 114.02C78.3193 114.408 77.4721 114.741 76.606 115.019C77.2448 115.054 77.8803 115.134 78.5081 115.257C81.2187 115.637 84.7852 117.975 87.2659 119.671C89.7467 121.367 87.9079 122.659 86.6715 122.445Z" fill="#FFA8A7"/>
<path d="M111.192 173.67V250.263L108.934 248.955V172.362L111.192 173.67Z" fill="#00F0FF"/>
<path opacity="0.4" d="M111.192 173.67V250.263L108.934 248.955V172.362L111.192 173.67Z" fill="black"/>
<path d="M111.191 173.67V250.263L113.458 248.955V172.362L111.191 173.67Z" fill="#00F0FF"/>
<path opacity="0.25" d="M111.191 173.67V250.263L113.458 248.955V172.362L111.191 173.67Z" fill="black"/>
<path d="M41.3527 133.345V209.938L39.0859 208.63V132.037L41.3527 133.345Z" fill="#00F0FF"/>
<path opacity="0.4" d="M41.3527 133.345V209.938L39.0859 208.63V132.037L41.3527 133.345Z" fill="black"/>
<path d="M41.3535 133.345V209.938L43.6202 208.63V132.037L41.3535 133.345Z" fill="#00F0FF"/>
<path opacity="0.25" d="M41.3535 133.345V209.938L43.6202 208.63V132.037L41.3535 133.345Z" fill="black"/>
<path d="M227.636 106.445V183.038L225.369 181.73V105.137L227.636 106.445Z" fill="#00F0FF"/>
<path d="M227.635 106.445V183.038L229.894 181.73V105.137L227.635 106.445Z" fill="#00F0FF"/>
<path d="M111.193 161.576V177.696L39.0939 136.071L39.0859 119.942L111.193 161.576Z" fill="#00F0FF"/>
<path opacity="0.4" d="M111.193 161.576V177.696L39.0939 136.071L39.0859 119.942L111.193 161.576Z" fill="black"/>
<path d="M111.191 177.696L229.893 109.163L229.901 101.103L111.191 169.635V177.696Z" fill="#00F0FF"/>
<path opacity="0.25" d="M111.191 177.696L229.893 109.163L229.901 101.103L111.191 169.635V177.696Z" fill="black"/>
<path d="M111.193 169.636L32.1035 123.976L157.796 51.4092L236.877 97.0686L111.193 169.636Z" fill="#00F0FF"/>
<path opacity="0.6" d="M111.193 169.636L32.1035 123.976L157.796 51.4092L236.877 97.0686L111.193 169.636Z" fill="white"/>
<path d="M32.1035 123.976V128.002L111.193 173.67V169.636L32.1035 123.976Z" fill="#00F0FF"/>
<path opacity="0.25" d="M32.1035 123.976V128.002L111.193 173.67V169.636L32.1035 123.976Z" fill="white"/>
<path d="M111.193 173.67L236.878 101.103V97.0688L111.193 169.636V173.67Z" fill="#00F0FF"/>
<path opacity="0.4" d="M111.193 173.67L236.878 101.103V97.0688L111.193 169.636V173.67Z" fill="white"/>
<path d="M141.328 93.1454V93.9379C141.331 94.0707 141.368 94.2005 141.434 94.3154C141.501 94.4303 141.595 94.5267 141.709 94.5957L184.443 119.252C184.566 119.316 184.702 119.35 184.84 119.35C184.978 119.35 185.114 119.316 185.236 119.252L215.853 101.57C215.963 101.498 216.055 101.401 216.121 101.287C216.188 101.173 216.226 101.044 216.233 100.912V100.12C216.225 99.9883 216.186 99.8605 216.12 99.7464C216.054 99.6323 215.962 99.535 215.853 99.4621L173.11 74.7896C172.988 74.7257 172.852 74.6924 172.714 74.6924C172.576 74.6924 172.44 74.7257 172.317 74.7896L141.709 92.4638C141.594 92.5376 141.5 92.6383 141.433 92.7572C141.367 92.876 141.331 93.0093 141.328 93.1454Z" fill="#00F0FF"/>
<path opacity="0.5" d="M215.869 99.5259C216.027 99.6448 216.012 99.8191 215.821 99.9301L185.205 117.604C185.086 117.663 184.956 117.693 184.824 117.691V119.34C184.956 119.34 185.086 119.31 185.205 119.253L215.821 101.571C215.933 101.501 216.026 101.404 216.091 101.289C216.156 101.174 216.191 101.045 216.194 100.913V100.12C216.183 100.004 216.149 99.8915 216.093 99.7892C216.037 99.687 215.961 99.5973 215.869 99.5259Z" fill="black"/>
<path opacity="0.6" d="M141.644 92.5352L141.597 92.5906C141.497 92.7084 141.432 92.8508 141.407 93.0028C141.402 93.0317 141.402 93.061 141.407 93.0899V93.8825C141.41 94.0152 141.446 94.1451 141.513 94.26C141.579 94.3749 141.674 94.4713 141.787 94.5403L184.443 119.252C184.561 119.311 184.691 119.341 184.823 119.34V117.691C184.691 117.692 184.561 117.662 184.443 117.604L141.708 92.9314C141.643 92.8986 141.59 92.8458 141.557 92.7808C141.545 92.7442 141.543 92.705 141.551 92.6673C141.56 92.6296 141.578 92.5949 141.605 92.5669L141.644 92.5352Z" fill="black"/>
<g opacity="0.3">
<path d="M141.351 92.9551C141.349 93.0026 141.349 93.0502 141.351 93.0977C141.344 93.0505 141.344 93.0024 141.351 92.9551Z" fill="black"/>
<path d="M215.819 99.9299L185.202 117.604C185.08 117.667 184.944 117.699 184.806 117.699C184.668 117.699 184.532 117.667 184.41 117.604L141.675 92.9316C141.61 92.901 141.559 92.8473 141.532 92.781C141.517 92.7453 141.513 92.7061 141.52 92.668C141.527 92.63 141.545 92.5949 141.572 92.567L141.635 92.5194L172.244 74.8453C172.366 74.7814 172.502 74.748 172.64 74.748C172.778 74.748 172.914 74.7814 173.036 74.8453L215.779 99.5177H215.827C216.025 99.6525 216.001 99.8189 215.819 99.9299Z" fill="black"/>
</g>
<path d="M152.899 82.2156C152.899 82.9051 153.858 83.6263 154.119 84.2366C154.144 84.288 154.165 84.341 154.183 84.3951C154.048 84.831 153.644 85.1322 153.556 85.4175C153.549 85.486 153.549 85.5551 153.556 85.6236C153.556 85.7266 153.556 86.1308 153.556 86.2022C153.556 86.2735 153.556 86.4479 153.612 86.6064C153.591 86.7486 153.559 86.8891 153.517 87.0264C153.433 87.261 153.385 87.5068 153.374 87.7556V88.3183C153.362 88.4252 153.384 88.5331 153.437 88.6269C153.489 88.7207 153.57 88.7957 153.667 88.8414L155.379 89.8321L168.211 82.4216V81.851L166.491 80.8603C166.208 80.7229 165.889 80.6785 165.58 80.7335H165.469C165.183 80.7335 164.803 80.7335 164.296 80.8127C163.654 80.888 163.007 80.9039 162.362 80.8603H161.87C161.752 80.8526 161.633 80.8526 161.514 80.8603C160.546 81.15 159.534 81.2628 158.526 81.1932H158.478C157.424 81.0426 156.18 80.4878 154.991 80.4878H154.872C154.396 80.4886 153.929 80.6143 153.517 80.8524C153.057 81.1139 152.883 81.3992 152.883 81.6449L152.899 82.2156ZM154.848 82.6119C154.918 82.482 155.026 82.3768 155.157 82.3107C155.257 82.2517 155.363 82.2063 155.474 82.176C156.284 81.9873 157.134 82.1149 157.852 82.5326C158.146 82.6801 158.387 82.9156 158.542 83.2063C158.47 83.3323 158.362 83.4343 158.233 83.4995C157.686 83.7504 157.068 83.7982 156.489 83.6343C156.163 83.5641 155.85 83.4438 155.562 83.2776C155.26 83.1362 155.01 82.9032 154.848 82.6119Z" fill="#263238"/>
<path d="M165.58 80.7335H165.469C165.183 80.7335 164.803 80.7335 164.296 80.8127C163.654 80.888 163.007 80.9039 162.362 80.8603H161.87C161.752 80.8526 161.633 80.8526 161.514 80.8603C160.546 81.15 159.534 81.2628 158.526 81.1932H158.478C157.424 81.0426 156.18 80.4878 154.991 80.4878H154.872C154.396 80.4886 153.929 80.6143 153.517 80.8524C151.932 81.7559 153.731 82.8496 154.103 83.7135C154.476 84.5774 153.667 85.0371 153.541 85.4651C153.414 85.8931 153.763 86.1308 153.469 87.0502C153.176 87.9696 153.398 88.1677 153.62 88.2945L155.332 89.2852L168.163 81.8748L166.444 80.8841C166.177 80.7484 165.876 80.6959 165.58 80.7335ZM155.966 87.9458C155.852 87.9858 155.731 87.9994 155.612 87.9857C155.492 87.9719 155.378 87.9312 155.276 87.8665C155.054 87.7318 155.007 87.5495 155.173 87.4544C155.288 87.4095 155.411 87.3919 155.533 87.4029C155.656 87.4139 155.774 87.4533 155.879 87.5178C156.069 87.6288 156.148 87.8111 155.982 87.9062L155.966 87.9458ZM158.185 83.5391C157.638 83.79 157.02 83.8378 156.441 83.6739C156.116 83.6037 155.803 83.4834 155.514 83.3172C154.674 82.8338 154.508 82.1442 155.142 81.7797C155.241 81.7206 155.347 81.6753 155.459 81.6449C156.268 81.4603 157.117 81.5877 157.836 82.0016C158.661 82.4454 158.835 83.1112 158.201 83.4995L158.185 83.5391ZM165.865 82.2314C165.751 82.2775 165.628 82.2964 165.506 82.2868C165.383 82.2771 165.265 82.2392 165.16 82.176C164.938 82.0412 164.89 81.8589 165.057 81.7638C165.171 81.719 165.294 81.7013 165.417 81.7123C165.539 81.7234 165.657 81.7627 165.762 81.8272C166 81.9144 166.047 82.0967 165.881 82.1918L165.865 82.2314Z" fill="#37474F"/>
<path d="M183.634 114.917L210.272 99.5335C210.339 99.4919 210.394 99.4349 210.434 99.3673C210.474 99.2997 210.497 99.2236 210.502 99.1452V98.844C210.497 98.7645 210.474 98.6873 210.434 98.6184C210.394 98.5496 210.339 98.4911 210.272 98.4477L175.09 78.1265C175.019 78.0914 174.94 78.0732 174.86 78.0732C174.781 78.0732 174.702 78.0914 174.631 78.1265L147.985 93.5101C147.918 93.553 147.862 93.6113 147.822 93.6803C147.782 93.7492 147.759 93.8267 147.755 93.9063V94.2075C147.759 94.2871 147.782 94.3646 147.822 94.4336C147.862 94.5025 147.918 94.5609 147.985 94.6038L183.182 114.925C183.253 114.959 183.331 114.976 183.409 114.974C183.488 114.973 183.565 114.953 183.634 114.917Z" fill="#FAFAFA"/>
<path d="M210.328 98.4951C210.399 98.5585 210.383 98.6536 210.28 98.7091L183.634 114.093C183.564 114.132 183.485 114.152 183.404 114.148V114.941C183.485 114.944 183.564 114.925 183.634 114.885L210.272 99.5017C210.339 99.46 210.394 99.403 210.434 99.3354C210.474 99.2679 210.497 99.1917 210.502 99.1133V98.8121C210.495 98.7504 210.477 98.6905 210.447 98.6361C210.417 98.5816 210.376 98.5337 210.328 98.4951Z" fill="#F0F0F0"/>
<path d="M147.937 93.542C147.914 93.5611 147.893 93.5823 147.874 93.6054V93.645C147.843 93.6797 147.819 93.7201 147.803 93.7639C147.799 93.7928 147.799 93.8221 147.803 93.8511C147.799 93.8694 147.799 93.8883 147.803 93.9066V94.2077C147.807 94.2873 147.829 94.3649 147.869 94.4338C147.909 94.5027 147.965 94.5611 148.033 94.604L183.23 114.925C183.298 114.964 183.374 114.983 183.452 114.981V114.188C183.374 114.191 183.298 114.171 183.23 114.133L147.985 93.7718C147.874 93.7084 147.858 93.6133 147.937 93.542Z" fill="#E0E0E0"/>
<path d="M157.013 89.8245V90.4031C157.021 90.6937 157.127 90.9729 157.314 91.1957L173.007 82.1446V81.5264C172.535 81.2777 172.01 81.1446 171.477 81.1381C171.117 81.1362 170.761 81.2091 170.431 81.3521C169.297 81.8752 168.957 82.0337 168.267 82.3269C168.09 82.3921 167.9 82.4125 167.713 82.3863C167.526 82.36 167.349 82.2879 167.197 82.1763L166.722 81.7483L165.453 80.5674C165.371 80.4961 165.276 80.4424 165.172 80.4097C165.068 80.377 164.959 80.3659 164.851 80.3772C164.751 80.371 164.65 80.371 164.55 80.3772C164.119 80.4441 163.681 80.4441 163.25 80.3772C162.736 80.3266 162.246 80.1376 161.831 79.8303C161.225 79.3109 160.45 79.0293 159.652 79.0378H159.589C159.085 79.0346 158.588 79.1514 158.138 79.3786C157.814 79.5155 157.544 79.7565 157.372 80.0637C157.2 80.3708 157.135 80.7265 157.187 81.0747C157.137 81.3457 157.161 81.6252 157.258 81.8835C157.354 82.1417 157.519 82.3689 157.734 82.5409C157.922 82.7171 158.045 82.9517 158.083 83.2067C158.047 83.473 157.94 83.7249 157.774 83.9358C157.675 84.0393 157.616 84.1739 157.607 84.3162V84.8869C157.607 84.9423 157.62 84.9969 157.645 85.0464C157.67 85.0959 157.705 85.139 157.75 85.1722L159.216 86.5196L159.692 86.9555L159.739 87.0109C159.706 87.0636 159.669 87.1139 159.628 87.1615L157.655 88.6595C157.47 88.7956 157.316 88.9702 157.206 89.1714C157.095 89.3726 157.029 89.5954 157.013 89.8245ZM161.205 81.2173C161.099 81.4747 160.902 81.6837 160.651 81.8038C160.134 82.0456 159.543 82.0796 159.002 81.8989C158.773 81.8171 158.56 81.6935 158.376 81.5343C158.244 81.4139 158.141 81.2648 158.075 81.0984C158.181 80.8411 158.378 80.6321 158.63 80.5119L158.844 80.4168C159.189 80.2958 159.56 80.265 159.92 80.3274C160.281 80.3898 160.62 80.5434 160.904 80.7735C161.035 80.8981 161.138 81.0495 161.205 81.2173Z" fill="#37474F"/>
<path d="M171.476 81.1703C171.117 81.1685 170.76 81.2413 170.43 81.3843C169.297 81.9074 168.956 82.0659 168.267 82.3591C168.09 82.4244 167.899 82.4448 167.713 82.4185C167.526 82.3922 167.349 82.3201 167.197 82.2086L166.721 81.7806L165.453 80.5997C165.371 80.5284 165.275 80.4747 165.172 80.4419C165.068 80.4092 164.959 80.3982 164.851 80.4094C164.75 80.4032 164.65 80.4032 164.549 80.4094C164.119 80.4764 163.68 80.4764 163.25 80.4094C162.736 80.3588 162.246 80.1698 161.831 79.8626C161.224 79.3432 160.45 79.0615 159.651 79.07H159.588C159.084 79.0668 158.587 79.1836 158.138 79.4108C157.886 79.5025 157.664 79.6601 157.493 79.867C157.323 80.0739 157.212 80.3227 157.171 80.5873C157.129 80.852 157.16 81.1229 157.259 81.3718C157.358 81.6207 157.522 81.8385 157.733 82.0025C157.96 82.2779 158.088 82.6217 158.095 82.9784C158.102 83.3351 157.989 83.6838 157.773 83.968C157.408 84.404 157.773 84.6338 157.773 84.6338L159.239 85.9891L159.715 86.4171C160.064 86.742 159.651 87.2096 159.651 87.2096L157.654 88.66C156.862 89.3971 156.862 89.9994 157.305 90.5859L173.006 81.527C172.531 81.2892 172.007 81.167 171.476 81.1703ZM160.904 80.2113C161.03 80.314 161.127 80.448 161.185 80.5999C161.243 80.7519 161.26 80.9164 161.234 81.077C161.208 81.2376 161.141 81.3886 161.038 81.5149C160.936 81.6411 160.802 81.7382 160.65 81.7964C160.133 82.0382 159.543 82.0722 159.002 81.8915C158.772 81.8097 158.56 81.6861 158.375 81.527C158.249 81.4243 158.152 81.2903 158.094 81.1383C158.036 80.9864 158.019 80.8218 158.045 80.6613C158.071 80.5007 158.138 80.3497 158.241 80.2234C158.343 80.0971 158.477 80 158.629 79.9418L158.843 79.8467C159.189 79.729 159.56 79.7007 159.92 79.7644C160.28 79.8282 160.619 79.9819 160.904 80.2113Z" fill="#455A64"/>
<path opacity="0.1" d="M160.103 98.2185L168.433 103.029C168.517 103.068 168.609 103.089 168.702 103.089C168.795 103.089 168.887 103.068 168.972 103.029L180.464 96.3877C180.614 96.3005 180.614 96.1658 180.464 96.0786L172.142 91.2678C172.057 91.2246 171.964 91.2021 171.869 91.2021C171.774 91.2021 171.68 91.2246 171.595 91.2678L160.103 97.9015C160.069 97.9123 160.04 97.9334 160.019 97.9619C159.999 97.9904 159.987 98.0248 159.987 98.06C159.987 98.0953 159.999 98.1297 160.019 98.1581C160.04 98.1866 160.069 98.2078 160.103 98.2185Z" fill="#00F0FF"/>
<path d="M168.702 101.721L162.361 98.0597L162.805 97.814L169.138 101.468L168.702 101.721Z" fill="#00F0FF"/>
<path d="M169.043 102.03L169.677 101.666L169.867 101.776L169.233 102.141L169.043 102.03Z" fill="#455A64"/>
<path d="M169.533 101.238L164.461 98.3137L164.897 98.0601L169.969 100.993L169.533 101.238Z" fill="#00F0FF"/>
<path d="M169.875 101.547L170.509 101.183L170.699 101.294L170.065 101.666L169.875 101.547Z" fill="#455A64"/>
<path d="M170.803 100.508L165.295 97.3303L165.731 97.0767L171.239 100.255L170.803 100.508Z" fill="#00F0FF"/>
<path d="M171.143 100.818L171.777 100.454L171.967 100.565L171.333 100.929L171.143 100.818Z" fill="#455A64"/>
<path d="M171.626 100.025L167.077 97.4016L167.513 97.1479L172.07 99.7793L171.626 100.025Z" fill="#00F0FF"/>
<path d="M171.968 100.334L172.602 99.9692L172.8 100.08L172.166 100.453L171.968 100.334Z" fill="#455A64"/>
<path d="M172.903 99.2956L170.359 97.8293L170.795 97.5757L173.339 99.0419L172.903 99.2956Z" fill="#00F0FF"/>
<path d="M173.235 99.6048L173.869 99.2402L174.06 99.3512L173.433 99.7158L173.235 99.6048Z" fill="#455A64"/>
<path d="M173.728 98.8204L170.843 97.156L171.287 96.9023L174.164 98.5667L173.728 98.8204Z" fill="#00F0FF"/>
<path d="M174.068 99.1292L174.702 98.7646L174.893 98.8756L174.259 99.2402L174.068 99.1292Z" fill="#455A64"/>
<path d="M174.996 98.0835L171.524 96.0783L171.96 95.8247L175.432 97.8299L174.996 98.0835Z" fill="#00F0FF"/>
<path d="M175.344 98.3924L175.978 98.0278L176.168 98.1388L175.534 98.5034L175.344 98.3924Z" fill="#455A64"/>
<path d="M175.828 97.6082L173.569 96.3005L174.005 96.0469L176.264 97.3546L175.828 97.6082Z" fill="#00F0FF"/>
<path d="M176.178 97.9169L176.812 97.5444L177.002 97.6633L176.368 98.0279L176.178 97.9169Z" fill="#455A64"/>
<path d="M177.097 96.8705L176.106 96.2999L176.542 96.0542L177.533 96.6248L177.097 96.8705Z" fill="#00F0FF"/>
<path d="M168.702 101.721L162.361 98.0597L162.805 97.814L169.138 101.468L168.702 101.721Z" fill="#00F0FF"/>
<path d="M170.803 100.508L165.295 97.3303L165.731 97.0767L171.239 100.255L170.803 100.508Z" fill="#00F0FF"/>
<path d="M172.903 99.2956L170.359 97.8293L170.795 97.5757L173.339 99.0419L172.903 99.2956Z" fill="#00F0FF"/>
<path d="M174.996 98.0835L171.524 96.0783L171.96 95.8247L175.432 97.8299L174.996 98.0835Z" fill="#00F0FF"/>
<path d="M177.097 96.8705L176.106 96.2999L176.542 96.0542L177.533 96.6248L177.097 96.8705Z" fill="#00F0FF"/>
<path d="M177.437 97.18L178.071 96.8154L178.269 96.9264L177.635 97.291L177.437 97.18Z" fill="#455A64"/>
<path d="M177.928 96.3949L177.437 96.1096L177.872 95.856L178.364 96.1413L177.928 96.3949Z" fill="#00F0FF"/>
<path d="M178.268 96.704L178.902 96.3315L179.1 96.4504L178.466 96.815L178.268 96.704Z" fill="#455A64"/>
<path d="M168.48 94.271L168.005 94.5484L168.48 94.8258L168.956 94.5484L168.48 94.271Z" fill="#00F0FF"/>
<path opacity="0.25" d="M168.48 94.271L168.005 94.5484L168.48 94.8258L168.956 94.5484L168.48 94.271Z" fill="black"/>
<path d="M172.222 92.1864L168.83 94.1519C168.759 94.1915 168.759 94.2549 168.83 94.2946L168.917 94.3501C168.956 94.3696 169 94.3798 169.044 94.3798C169.088 94.3798 169.131 94.3696 169.171 94.3501L172.563 92.3845C172.634 92.3845 172.634 92.2815 172.563 92.2419L172.468 92.1864C172.43 92.1669 172.388 92.1567 172.345 92.1567C172.302 92.1567 172.26 92.1669 172.222 92.1864Z" fill="#455A64"/>
<path d="M169.272 94.7305L168.797 95.0079L169.272 95.2773L169.748 95.0079L169.272 94.7305Z" fill="#00F0FF"/>
<path d="M173.014 92.6224L169.614 94.58C169.598 94.5852 169.584 94.5953 169.575 94.6088C169.565 94.6223 169.56 94.6386 169.56 94.6553C169.56 94.672 169.565 94.6882 169.575 94.7018C169.584 94.7153 169.598 94.7254 169.614 94.7306L169.701 94.7781C169.741 94.7977 169.784 94.8079 169.828 94.8079C169.872 94.8079 169.915 94.7977 169.955 94.7781L173.347 92.8205C173.418 92.7809 173.418 92.7175 173.347 92.6779L173.252 92.6224C173.215 92.6042 173.174 92.5947 173.133 92.5947C173.092 92.5947 173.051 92.6042 173.014 92.6224Z" fill="#455A64"/>
<path d="M168.702 101.721L162.361 98.0597L162.805 97.814L169.138 101.468L168.702 101.721Z" fill="#00F0FF"/>
<path d="M170.803 100.508L165.295 97.3303L165.731 97.0767L171.239 100.255L170.803 100.508Z" fill="#00F0FF"/>
<path d="M172.903 99.2956L170.359 97.8293L170.795 97.5757L173.339 99.0419L172.903 99.2956Z" fill="#00F0FF"/>
<path d="M174.996 98.0835L171.524 96.0783L171.96 95.8247L175.432 97.8299L174.996 98.0835Z" fill="#00F0FF"/>
<path d="M168.702 101.721L162.361 98.0597L162.805 97.814L169.138 101.468L168.702 101.721Z" fill="#00F0FF"/>
<path d="M170.803 100.508L165.295 97.3303L165.731 97.0767L171.239 100.255L170.803 100.508Z" fill="#00F0FF"/>
<path d="M172.903 99.2956L170.359 97.8293L170.795 97.5757L173.339 99.0419L172.903 99.2956Z" fill="#00F0FF"/>
<path d="M174.996 98.0835L171.524 96.0783L171.96 95.8247L175.432 97.8299L174.996 98.0835Z" fill="#00F0FF"/>
<path d="M177.097 96.8705L176.106 96.2999L176.542 96.0542L177.533 96.6248L177.097 96.8705Z" fill="#00F0FF"/>
<path opacity="0.25" d="M168.702 101.721L162.361 98.0597L162.805 97.814L169.138 101.468L168.702 101.721Z" fill="black"/>
<path opacity="0.25" d="M170.803 100.508L165.295 97.3303L165.731 97.0767L171.239 100.255L170.803 100.508Z" fill="black"/>
<path opacity="0.25" d="M172.903 99.2956L170.359 97.8293L170.795 97.5757L173.339 99.0419L172.903 99.2956Z" fill="black"/>
<path opacity="0.25" d="M174.996 98.0835L171.524 96.0783L171.96 95.8247L175.432 97.8299L174.996 98.0835Z" fill="black"/>
<path opacity="0.25" d="M177.097 96.8705L176.106 96.2999L176.542 96.0542L177.533 96.6248L177.097 96.8705Z" fill="black"/>
<path opacity="0.1" d="M171.801 104.971L182.77 111.311C182.88 111.367 183.003 111.396 183.126 111.396C183.25 111.396 183.372 111.367 183.483 111.311L194.809 104.772C195.007 104.661 195.007 104.479 194.809 104.36L183.84 98.0198C183.729 97.9641 183.607 97.9351 183.483 97.9351C183.359 97.9351 183.237 97.9641 183.126 98.0198L171.801 104.558C171.759 104.575 171.724 104.603 171.699 104.64C171.674 104.677 171.661 104.72 171.661 104.765C171.661 104.809 171.674 104.852 171.699 104.889C171.724 104.926 171.759 104.954 171.801 104.971Z" fill="#00F0FF"/>
<path d="M173.742 104.408L173.116 104.764L173.742 105.129L174.368 104.764L173.742 104.408Z" fill="#00F0FF"/>
<path d="M176.217 103.163L174.148 104.36C174.093 104.36 174.093 104.439 174.148 104.471L174.314 104.566C174.345 104.582 174.379 104.59 174.414 104.59C174.448 104.59 174.482 104.582 174.513 104.566L176.581 103.377C176.637 103.377 176.637 103.29 176.581 103.266L176.407 103.163C176.377 103.148 176.345 103.14 176.312 103.14C176.279 103.14 176.246 103.148 176.217 103.163Z" fill="#455A64"/>
<path d="M177.286 102.355L176.66 102.72L177.286 103.077L177.912 102.72L177.286 102.355Z" fill="#00F0FF"/>
<path opacity="0.25" d="M177.286 102.355L176.66 102.72L177.286 103.077L177.912 102.72L177.286 102.355Z" fill="black"/>
<path d="M179.79 101.119L177.729 102.316C177.674 102.316 177.674 102.395 177.729 102.427L177.896 102.53C177.959 102.553 178.03 102.553 178.094 102.53L180.162 101.341C180.172 101.335 180.18 101.327 180.186 101.318C180.192 101.308 180.195 101.297 180.195 101.285C180.195 101.274 180.192 101.263 180.186 101.253C180.18 101.243 180.172 101.235 180.162 101.23L179.988 101.127C179.925 101.101 179.855 101.098 179.79 101.119Z" fill="#455A64"/>
<path d="M180.838 100.31L180.212 100.667L180.838 101.031L181.464 100.667L180.838 100.31Z" fill="#00F0FF"/>
<path opacity="0.4" d="M180.838 100.31L180.212 100.667L180.838 101.031L181.464 100.667L180.838 100.31Z" fill="black"/>
<path d="M183.373 99.0819L181.312 100.271C181.257 100.271 181.257 100.358 181.312 100.382L181.479 100.485C181.509 100.5 181.543 100.508 181.578 100.508C181.612 100.508 181.646 100.5 181.677 100.485L183.737 99.288C183.793 99.288 183.793 99.2087 183.737 99.177L183.571 99.0819C183.54 99.0666 183.506 99.0586 183.472 99.0586C183.437 99.0586 183.404 99.0666 183.373 99.0819Z" fill="#455A64"/>
<path d="M187.342 102.926L187.176 102.846L187.033 102.791C186.653 102.645 186.26 102.533 185.86 102.458L185.472 102.395C185.209 102.355 184.945 102.331 184.679 102.323H184.275H183.958H183.696L183.308 102.363H183.078H182.944L182.745 102.403C182.515 102.449 182.287 102.51 182.064 102.585L181.826 102.664L181.549 102.775C181.459 102.812 181.372 102.855 181.287 102.902L181.033 103.037C179.187 104.099 179.187 105.826 181.033 106.888C182.068 107.412 183.211 107.685 184.37 107.685C185.529 107.685 186.673 107.412 187.707 106.888C189.553 105.826 189.553 104.099 187.707 103.037C187.588 102.992 187.466 102.955 187.342 102.926ZM186.978 106.548C186.226 106.948 185.388 107.161 184.537 107.166H184.109C183.278 107.163 182.46 106.953 181.731 106.556C180.288 105.723 180.288 104.376 181.731 103.544C181.894 103.449 182.063 103.367 182.238 103.298L182.658 103.148L182.88 103.092H183.062L183.284 103.044H183.49H183.554H183.839H184.449C184.803 103.053 185.156 103.09 185.503 103.155C186.01 103.245 186.497 103.419 186.946 103.671C188.42 104.376 188.42 105.723 186.978 106.556V106.548Z" fill="#00F0FF"/>
<path opacity="0.25" d="M185.861 102.466L185.536 103.029C185.188 102.964 184.836 102.926 184.482 102.918H183.872H183.586H183.523H183.317L183.095 102.965H182.913L182.691 103.021L182.271 103.171C182.094 103.237 181.924 103.319 181.763 103.417L181.034 102.997L181.288 102.862C181.373 102.815 181.46 102.773 181.549 102.735L181.827 102.624L182.064 102.545C182.288 102.47 182.515 102.41 182.746 102.363L182.944 102.323H183.079H183.309L183.697 102.284H183.959H184.276H184.68C184.945 102.291 185.21 102.315 185.473 102.355L185.861 102.466Z" fill="black"/>
<path opacity="0.4" d="M187.708 103.124L186.979 103.544C186.53 103.293 186.042 103.119 185.536 103.029L185.861 102.466C186.261 102.541 186.654 102.653 187.034 102.799L187.177 102.855L187.343 102.934C187.469 102.989 187.59 103.053 187.708 103.124Z" fill="black"/>
<path d="M157.369 96.5698L179.893 83.5638L177.603 82.2402L155.078 95.2462L157.369 96.5698Z" fill="#00F0FF"/>
<g opacity="0.3">
<path d="M174.535 90.8236C174.501 90.8231 174.468 90.8142 174.439 90.7975C174.41 90.7809 174.386 90.7572 174.368 90.7285C174.345 90.6852 174.34 90.6346 174.353 90.5874C174.366 90.5401 174.397 90.4998 174.439 90.4749L183.316 85.355C183.337 85.3421 183.36 85.3336 183.384 85.3298C183.408 85.3261 183.433 85.3272 183.456 85.3331C183.48 85.339 183.502 85.3496 183.522 85.3642C183.541 85.3789 183.558 85.3973 183.57 85.4184C183.582 85.4402 183.591 85.4643 183.594 85.4893C183.597 85.5143 183.596 85.5397 183.589 85.5641C183.582 85.5884 183.571 85.6112 183.555 85.6311C183.54 85.651 183.52 85.6676 183.498 85.6799L174.63 90.7998C174.6 90.815 174.568 90.8232 174.535 90.8236Z" fill="#455A64"/>
<path d="M176.064 91.7114C176.032 91.712 175.999 91.7034 175.971 91.6866C175.943 91.6698 175.921 91.6454 175.906 91.6163C175.893 91.595 175.884 91.5713 175.88 91.5466C175.876 91.5219 175.877 91.4967 175.883 91.4724C175.889 91.4481 175.9 91.4252 175.915 91.405C175.929 91.3848 175.948 91.3677 175.969 91.3547L184.846 86.2348C184.867 86.2223 184.891 86.2142 184.915 86.211C184.939 86.2078 184.964 86.2096 184.988 86.2163C185.012 86.223 185.034 86.2343 185.053 86.2498C185.072 86.2652 185.088 86.2844 185.099 86.3061C185.112 86.3268 185.121 86.3499 185.125 86.374C185.128 86.3981 185.127 86.4227 185.121 86.4463C185.115 86.47 185.105 86.4922 185.09 86.5117C185.076 86.5312 185.057 86.5475 185.036 86.5598L176.159 91.6876C176.13 91.7028 176.097 91.7109 176.064 91.7114Z" fill="#455A64"/>
<path d="M177.593 92.6229C177.562 92.6234 177.53 92.6156 177.503 92.6003C177.475 92.5851 177.452 92.5628 177.435 92.5357C177.422 92.5139 177.414 92.4898 177.411 92.4648C177.408 92.4397 177.409 92.4143 177.416 92.39C177.423 92.3657 177.434 92.3429 177.449 92.323C177.465 92.3031 177.484 92.2865 177.506 92.2742L186.375 87.1542C186.396 87.1405 186.42 87.1314 186.444 87.1276C186.469 87.1237 186.494 87.1252 186.518 87.132C186.542 87.1388 186.565 87.1506 186.584 87.1668C186.603 87.1829 186.618 87.2029 186.629 87.2255C186.642 87.2463 186.65 87.2693 186.654 87.2934C186.658 87.3175 186.656 87.3421 186.651 87.3657C186.645 87.3894 186.634 87.4116 186.619 87.4311C186.605 87.4506 186.586 87.4669 186.565 87.4792L177.689 92.5991C177.66 92.6164 177.627 92.6247 177.593 92.6229Z" fill="#455A64"/>
<path d="M179.131 93.4789C179.091 93.4769 179.052 93.4623 179.021 93.4371C178.99 93.412 178.967 93.3776 178.957 93.339C178.946 93.3003 178.948 93.2593 178.962 93.2218C178.977 93.1843 179.002 93.1523 179.036 93.1302L187.904 88.0023C187.926 87.9898 187.95 87.9818 187.975 87.9786C188 87.9754 188.026 87.9772 188.05 87.9838C188.074 87.9904 188.097 88.0018 188.117 88.0172C188.137 88.0326 188.153 88.0518 188.166 88.0736C188.178 88.0955 188.186 88.1196 188.19 88.1446C188.193 88.1695 188.191 88.1949 188.184 88.2192C188.178 88.2435 188.166 88.2662 188.151 88.2861C188.136 88.306 188.116 88.3227 188.095 88.3352L179.226 93.4551L179.131 93.4789Z" fill="#455A64"/>
<path d="M180.637 94.3582C180.604 94.3579 180.572 94.3499 180.543 94.3347C180.514 94.3196 180.489 94.2977 180.47 94.2711C180.447 94.2266 180.441 94.1748 180.454 94.1262C180.467 94.0776 180.499 94.0359 180.542 94.0095L189.41 88.8896C189.432 88.8769 189.456 88.8687 189.481 88.8654C189.506 88.8621 189.532 88.8638 189.556 88.8705C189.58 88.8771 189.603 88.8885 189.623 88.904C189.643 88.9196 189.66 88.9389 189.672 88.9609C189.695 89.0042 189.701 89.0548 189.687 89.1021C189.674 89.1493 189.643 89.1896 189.601 89.2145L180.732 94.3345L180.637 94.3582Z" fill="#455A64"/>
</g>
<g opacity="0.3">
<path d="M186.789 97.893C186.757 97.8936 186.724 97.885 186.696 97.8681C186.668 97.8513 186.646 97.827 186.631 97.7979C186.618 97.7771 186.609 97.754 186.606 97.73C186.602 97.7059 186.603 97.6813 186.609 97.6576C186.615 97.634 186.625 97.6118 186.64 97.5923C186.655 97.5728 186.673 97.5565 186.694 97.5442L195.571 92.4243C195.592 92.4115 195.615 92.4029 195.639 92.3992C195.663 92.3954 195.687 92.3965 195.711 92.4024C195.735 92.4083 195.757 92.4189 195.776 92.4336C195.796 92.4482 195.812 92.4666 195.825 92.4877C195.838 92.509 195.846 92.5327 195.85 92.5574C195.854 92.5821 195.853 92.6073 195.847 92.6316C195.841 92.6559 195.831 92.6788 195.816 92.699C195.801 92.7192 195.782 92.7362 195.761 92.7492L186.884 97.8692L186.789 97.893Z" fill="#455A64"/>
<path d="M188.318 98.7807C188.285 98.7813 188.253 98.7727 188.225 98.7559C188.197 98.7391 188.174 98.7147 188.16 98.6856C188.147 98.6638 188.139 98.6397 188.135 98.6147C188.132 98.5897 188.134 98.5643 188.141 98.5399C188.147 98.5156 188.159 98.4928 188.174 98.4729C188.19 98.453 188.209 98.4364 188.231 98.4241L197.1 93.3041C197.121 93.2916 197.144 93.2835 197.169 93.2803C197.193 93.2772 197.218 93.279 197.242 93.2856C197.265 93.2923 197.288 93.3037 197.307 93.3191C197.326 93.3346 197.342 93.3537 197.353 93.3755C197.366 93.3962 197.375 93.4193 197.378 93.4433C197.382 93.4674 197.381 93.492 197.375 93.5157C197.369 93.5393 197.359 93.5615 197.344 93.581C197.329 93.6005 197.311 93.6168 197.29 93.6291L188.413 98.7569C188.385 98.7742 188.351 98.7825 188.318 98.7807Z" fill="#455A64"/>
<path d="M189.856 99.6604C189.816 99.6583 189.778 99.6437 189.747 99.6186C189.716 99.5934 189.693 99.5591 189.682 99.5204C189.672 99.4818 189.674 99.4408 189.688 99.4033C189.702 99.3658 189.728 99.3337 189.761 99.3116L198.63 94.2075C198.651 94.1945 198.675 94.1858 198.7 94.182C198.724 94.1781 198.75 94.1792 198.774 94.185C198.798 94.1909 198.821 94.2016 198.841 94.2163C198.861 94.231 198.879 94.2496 198.892 94.2709C198.915 94.3154 198.921 94.3672 198.908 94.4158C198.894 94.4644 198.863 94.5061 198.82 94.5325L189.951 99.6524L189.856 99.6604Z" fill="#455A64"/>
<path d="M191.386 100.548C191.353 100.547 191.32 100.538 191.291 100.522C191.262 100.505 191.237 100.481 191.22 100.453C191.198 100.408 191.193 100.357 191.206 100.309C191.22 100.26 191.25 100.219 191.291 100.191L200.16 95.0712C200.182 95.0585 200.206 95.0503 200.231 95.047C200.256 95.0437 200.281 95.0455 200.306 95.0521C200.33 95.0587 200.353 95.0702 200.373 95.0857C200.393 95.1012 200.409 95.1205 200.422 95.1425C200.445 95.1858 200.45 95.2364 200.437 95.2837C200.424 95.331 200.393 95.3713 200.35 95.3962L191.481 100.548H191.386Z" fill="#455A64"/>
<path d="M192.916 101.428C192.883 101.427 192.85 101.418 192.821 101.402C192.792 101.385 192.767 101.361 192.75 101.333C192.727 101.289 192.721 101.239 192.735 101.191C192.748 101.144 192.779 101.104 192.821 101.079L201.69 95.959C201.711 95.946 201.735 95.9373 201.76 95.9334C201.784 95.9296 201.81 95.9306 201.834 95.9365C201.858 95.9424 201.881 95.953 201.901 95.9678C201.922 95.9825 201.939 96.0011 201.952 96.0224C201.964 96.0442 201.973 96.0683 201.976 96.0934C201.979 96.1184 201.977 96.1438 201.971 96.1681C201.964 96.1925 201.953 96.2152 201.937 96.2351C201.922 96.255 201.902 96.2716 201.88 96.284L193.012 101.404C192.982 101.419 192.95 101.427 192.916 101.428Z" fill="#455A64"/>
<path d="M194.445 102.315C194.411 102.315 194.378 102.306 194.349 102.289C194.32 102.273 194.296 102.249 194.278 102.22C194.255 102.177 194.25 102.126 194.263 102.079C194.276 102.032 194.307 101.991 194.35 101.967L203.218 96.8387C203.263 96.8135 203.315 96.8069 203.364 96.8202C203.413 96.8336 203.455 96.8659 203.48 96.9101C203.505 96.9542 203.512 97.0065 203.498 97.0556C203.485 97.1046 203.453 97.1464 203.409 97.1716L194.54 102.292C194.51 102.307 194.478 102.315 194.445 102.315Z" fill="#455A64"/>
</g>
<path opacity="0.2" d="M137.451 112.825L96.7129 136.348L129.224 155.116L169.858 131.656L137.451 112.825Z" fill="black"/>
<path d="M168.203 130.34C168.335 130.293 168.45 130.206 168.531 130.091C168.612 129.976 168.656 129.839 168.656 129.699C168.656 129.558 168.612 129.421 168.531 129.306C168.45 129.191 168.335 129.104 168.203 129.057L136.905 110.828L96.1592 134.39L127.537 152.524C127.88 152.696 128.258 152.786 128.642 152.786C129.026 152.786 129.405 152.696 129.748 152.524L153.017 139.09L156.917 139.82C157.164 139.869 157.42 139.826 157.638 139.701L167.299 134.153C167.424 134.08 167.533 133.982 167.619 133.866C167.705 133.749 167.767 133.617 167.8 133.476C167.833 133.335 167.838 133.189 167.813 133.047C167.788 132.904 167.735 132.768 167.656 132.647L166.634 131.244L168.203 130.34Z" fill="#00F0FF"/>
<path opacity="0.15" d="M168.203 130.34C168.335 130.293 168.45 130.206 168.531 130.091C168.612 129.976 168.656 129.839 168.656 129.699C168.656 129.558 168.612 129.421 168.531 129.306C168.45 129.191 168.335 129.104 168.203 129.057L136.905 110.828L96.1592 134.39L127.537 152.524C127.88 152.696 128.258 152.786 128.642 152.786C129.026 152.786 129.405 152.696 129.748 152.524L153.017 139.09L156.917 139.82C157.164 139.869 157.42 139.826 157.638 139.701L167.299 134.153C167.424 134.08 167.533 133.982 167.619 133.866C167.705 133.749 167.767 133.617 167.8 133.476C167.833 133.335 167.838 133.189 167.813 133.047C167.788 132.904 167.735 132.768 167.656 132.647L166.634 131.244L168.203 130.34Z" fill="black"/>
<path d="M136.905 110.868L97.5381 133.598L128.678 151.582L169.312 128.122L136.905 110.868Z" fill="#F0F0F0"/>
<path d="M96.1592 134.391L127.537 148.95C127.9 149.096 128.289 149.163 128.68 149.146C129.071 149.13 129.454 149.031 129.803 148.855L168.227 126.663C168.837 126.307 168.813 125.783 168.179 125.482L136.905 110.852L96.1592 134.391Z" fill="#00F0FF"/>
<path opacity="0.1" d="M135.582 107.182L106.844 90.5858C106.593 90.4419 106.309 90.3662 106.019 90.3662C105.73 90.3662 105.446 90.4419 105.195 90.5858L55.3351 119.38C55.281 119.413 55.2364 119.46 55.2054 119.515C55.1745 119.571 55.1582 119.633 55.1582 119.697C55.1582 119.76 55.1745 119.823 55.2054 119.878C55.2364 119.934 55.281 119.98 55.3351 120.014L84.3429 136.76L135.582 107.182Z" fill="black"/>
<path d="M133.442 103.718V104.36C133.442 104.827 133.319 105.285 133.085 105.689C132.851 106.092 132.515 106.427 132.11 106.659L85.674 133.439C85.271 133.67 84.8146 133.79 84.3504 133.788C83.8813 133.79 83.4197 133.67 83.011 133.439L57.6966 118.872C57.2955 118.637 56.9625 118.301 56.7304 117.898C56.4984 117.495 56.3752 117.039 56.373 116.574V115.678C56.373 115.737 56.3883 115.795 56.4175 115.847C56.4466 115.898 56.4887 115.941 56.5395 115.971L84.3425 132.021L133.442 103.718Z" fill="#37474F"/>
<path d="M84.3496 132.029V133.836C84.8144 133.835 85.2708 133.712 85.6732 133.479L132.109 106.667C132.514 106.435 132.85 106.1 133.084 105.696C133.318 105.293 133.441 104.835 133.441 104.368V103.718L84.3496 132.029Z" fill="#263238"/>
<path d="M133.441 103.718L105.908 87.8671C105.667 87.728 105.393 87.6548 105.115 87.6548C104.837 87.6548 104.564 87.728 104.323 87.8671L56.5549 115.448C56.5004 115.478 56.455 115.523 56.4233 115.576C56.3917 115.63 56.375 115.691 56.375 115.753C56.375 115.816 56.3917 115.877 56.4233 115.931C56.455 115.984 56.5004 116.028 56.5549 116.059L84.35 132.108L133.441 103.718Z" fill="#455A64"/>
<path d="M84.0958 129.691L69.2432 121.123L112.668 96.0547L127.599 104.575L84.0958 129.691Z" fill="#37474F"/>
<path d="M127.599 104.575L127.029 104.9L112.668 96.7046L69.8059 121.456L69.2432 121.123L112.668 96.0547L127.599 104.575Z" fill="#263238"/>
<path d="M76.7891 105.858L77.0665 106.017L84.3422 110.225L97.2926 102.744L97.5621 102.593L90.009 98.2339L76.7891 105.858Z" fill="#263238"/>
<path d="M77.0664 106.017L84.3421 110.225L97.2926 102.744L90.0089 98.543L77.0664 106.017Z" fill="#37474F"/>
<path d="M75.2661 97.8533C74.0678 98.0156 72.9158 98.423 71.8818 99.05C73.4401 98.8613 75.0155 98.8613 76.5738 99.05C77.4404 98.7737 78.2876 98.4401 79.11 98.0514C79.8287 97.6789 80.444 97.1344 80.9012 96.4663C79.6965 97.6076 76.9622 97.7265 75.2661 97.8533Z" fill="#F28F8F"/>
<path d="M85.0947 132.417C85.5335 132.586 86.0044 132.655 86.4732 132.619C86.942 132.584 87.397 132.444 87.8053 132.211L134.043 105.518C134.444 105.285 134.788 104.966 135.053 104.586C135.317 104.205 135.495 103.771 135.573 103.314L140.629 73.1336C140.661 72.961 140.677 72.786 140.677 72.6105C140.673 71.7711 140.337 70.9673 139.742 70.3755L91.6968 98.1151C91.4022 98.2885 91.1484 98.5235 90.9528 98.8039C90.7572 99.0842 90.6244 99.4035 90.5634 99.7399L85.0947 132.417Z" fill="#37474F"/>
<path d="M84.3496 132.029L84.6587 132.211C84.7985 132.291 84.9442 132.36 85.0946 132.417L90.5633 99.7477C90.6243 99.4114 90.7571 99.0921 90.9527 98.8117C91.1483 98.5313 91.402 98.2964 91.6967 98.123L139.742 70.3834C139.55 70.1944 139.334 70.0318 139.1 69.8999L90.9596 97.695C90.665 97.8684 90.4112 98.1033 90.2156 98.3837C90.02 98.6641 89.8872 98.9834 89.8262 99.3198L84.3496 132.029Z" fill="#455A64"/>
<path d="M91.015 98.7415L90.27 98.3135C90.0434 98.6055 89.8911 98.9482 89.8262 99.3121L84.3496 132.029L84.6587 132.211C84.7985 132.291 84.9442 132.36 85.0946 132.417L90.5633 99.748C90.6274 99.38 90.7827 99.034 91.015 98.7415Z" fill="#263238"/>
<path d="M111.137 104.551C111.47 102.53 113.562 99.8511 115.797 98.5593C118.032 97.2674 119.57 97.8618 119.229 99.8829C118.888 101.904 116.804 104.591 114.569 105.875C112.334 107.159 110.796 106.572 111.137 104.551Z" fill="#00F0FF"/>
<path d="M188.276 197.521C188.276 197.521 188.276 193.947 190.805 192.766C191.027 192.635 191.282 192.57 191.541 192.578C191.799 192.587 192.049 192.668 192.263 192.814C192.263 192.814 189.885 193.408 189.497 197.632C189.497 197.632 189.394 197.918 188.855 197.878C188.673 197.846 188.276 197.815 188.276 197.521Z" fill="#FAFAFA"/>
<path d="M186.08 194.415C182.172 194.462 180.017 193.963 175.348 194.042C171.821 194.106 170.538 198.401 174.794 201.92C176.653 203.314 178.703 204.432 180.88 205.241C186.428 206.937 190.391 205.97 193.324 206.311C197.128 206.763 198.119 207.833 201.249 208.063C205.323 208.364 206.797 207.722 207.883 206.478C209.159 203.529 208.351 202.459 208.787 199.004C209.032 197.094 208.897 196.285 208.691 196.309C207.4 196.158 187.982 194.399 186.08 194.415Z" fill="#455A64"/>
<path d="M208.574 196.594C209.176 194.692 211.007 186.861 211.007 186.861C211.007 186.861 208.463 188.676 203.708 188.042C201.29 187.717 199.666 181.424 199.666 181.424L198.287 191.894C197.343 194.272 192.739 194.414 188.213 194.462C187.421 194.462 186.676 194.462 185.883 194.406H185.843C183.418 194.581 181.191 196.324 183.941 198.06C186.691 199.796 190.916 200.057 194.799 200.263C199.468 200.485 207.163 201.016 208.574 196.594Z" fill="#F28F8F"/>
<path d="M203.62 138.872C202.233 149.374 198.801 187.06 198.801 187.06C198.801 187.06 204.872 191.815 210.61 188.994C215.278 171.557 224.448 152.377 223.14 140.108L203.62 138.872Z" fill="#263238"/>
<path d="M165.22 206.668C161.313 206.715 159.149 206.208 154.481 206.295C150.962 206.359 149.678 210.654 153.934 214.173C155.795 215.564 157.844 216.682 160.021 217.494C165.569 219.182 169.532 218.223 172.464 218.564C176.268 219.016 177.259 220.086 180.39 220.316C184.463 220.617 185.938 219.975 187.023 218.731C188.299 215.79 187.491 214.72 187.927 211.265C188.173 209.355 188.038 208.546 187.832 208.57C186.54 208.411 167.162 206.644 165.22 206.668Z" fill="#455A64"/>
<path d="M187.713 208.839C188.316 206.945 190.147 199.114 190.147 199.114C190.147 199.114 187.602 200.929 182.847 200.287C180.43 199.962 178.805 193.677 178.805 193.677L177.466 204.147C176.522 206.525 171.918 206.667 167.392 206.715C166.6 206.715 165.847 206.715 165.062 206.659H165.014C162.597 206.826 160.37 208.569 163.12 210.305C165.87 212.041 170.095 212.302 173.978 212.516C178.607 212.77 186.303 213.261 187.713 208.839Z" fill="#F28F8F"/>
<path d="M183.869 150.713C182.133 158.678 179.431 188.51 177.64 200.097C181.291 202.066 185.483 202.792 189.584 202.166C192.318 193.376 205.324 162.165 202.336 152.361C200.45 146.171 193.76 148.7 193.76 148.7L183.869 150.713Z" fill="#37474F"/>
<path d="M288.098 234.13L280.83 173.483L274.894 173.182L285.102 234.122C285.126 234.234 285.173 234.339 285.242 234.431C285.31 234.523 285.398 234.598 285.498 234.653C285.817 234.838 286.175 234.945 286.543 234.964C286.911 234.983 287.278 234.915 287.614 234.764C287.746 234.716 287.86 234.63 287.943 234.518C288.027 234.405 288.075 234.27 288.082 234.13H288.098Z" fill="#263238"/>
<path d="M206.711 167.991H200.767L192.112 225.254C192.112 225.393 192.152 225.53 192.228 225.647C192.304 225.764 192.412 225.856 192.54 225.912C192.87 226.076 193.234 226.162 193.602 226.162C193.971 226.162 194.335 226.076 194.664 225.912C194.768 225.861 194.858 225.789 194.931 225.7C195.004 225.611 195.056 225.508 195.084 225.396L206.711 167.991Z" fill="#37474F"/>
<path d="M200.768 167.991L198.391 183.969C199.8 185.071 201.332 186.008 202.956 186.759L206.713 167.991H200.768Z" fill="#263238"/>
<path d="M248.368 254.467L242.82 192.798L236.876 192.497L245.412 254.459C245.438 254.57 245.487 254.674 245.555 254.766C245.624 254.857 245.71 254.933 245.808 254.99C246.129 255.17 246.487 255.273 246.854 255.291C247.221 255.309 247.588 255.241 247.924 255.094C248.054 255.045 248.167 254.96 248.25 254.849C248.333 254.738 248.382 254.606 248.392 254.467H248.368Z" fill="#37474F"/>
<path d="M243.596 201.81L242.804 192.798L236.859 192.497L238.207 202.246C239.507 202.65 241.86 202.364 243.596 201.81Z" fill="#263238"/>
<path d="M239.166 149.12H233.222L224.567 206.383C224.567 206.522 224.607 206.659 224.683 206.776C224.759 206.893 224.868 206.985 224.995 207.04C225.325 207.205 225.689 207.291 226.057 207.291C226.426 207.291 226.79 207.205 227.119 207.04C227.223 206.99 227.314 206.918 227.386 206.829C227.459 206.74 227.511 206.636 227.539 206.525L239.166 149.12Z" fill="#263238"/>
<path d="M197.104 166.81C196.264 162.118 200.092 158.456 207.28 153.606C213.94 149.22 220.9 145.308 228.109 141.9C234.116 139.142 240.274 139.395 247.97 143.35C258.67 148.851 290.856 168.371 290.856 168.371C290.856 168.371 242.731 195.54 233.474 194.32C224.217 193.099 201.066 178.056 199.236 172.746C197.405 167.436 197.104 166.81 197.104 166.81Z" fill="#00F0FF"/>
<g opacity="0.6">
<path d="M197.103 166.81C196.263 162.118 200.091 158.456 207.279 153.606C213.939 149.22 220.899 145.308 228.108 141.9C234.115 139.142 240.273 139.395 247.969 143.35C258.669 148.851 290.855 168.371 290.855 168.371C290.855 168.371 242.73 195.54 233.473 194.32C224.216 193.099 201.065 178.056 199.235 172.746C197.404 167.436 197.103 166.81 197.103 166.81Z" fill="white"/>
</g>
<path d="M238.119 188.598C231.215 194.851 223.987 189.469 212.566 182.059C199.64 173.666 197.104 166.802 197.104 166.802C197.104 166.802 197.104 171.946 198.063 174.355C199.022 176.765 201.122 179.499 210.442 185.927C219.763 192.354 226.523 195.58 232.793 196.769L237.738 196.087" fill="#00F0FF"/>
<path opacity="0.25" d="M212.566 182.067C199.64 173.674 197.104 166.811 197.104 166.811C197.104 166.811 197.104 171.954 198.063 174.364C199.022 176.773 201.122 179.507 210.442 185.935C219.763 192.363 226.523 195.588 232.793 196.777L237.738 196.096L238.119 188.606C231.215 194.859 223.987 189.478 212.566 182.067Z" fill="white"/>
<path d="M266.834 142.011C266.834 142.011 247.107 136.32 233.649 133.293C222.292 130.765 216.855 129.956 213.55 130.994C210.245 132.033 208.359 134.458 206.131 138.785C204.253 142.439 202.533 146.378 202.533 146.378C202.533 146.378 225.914 157.894 238.666 159.384C251.418 160.874 266.834 142.011 266.834 142.011Z" fill="#263238"/>
<path d="M267.5 142.011C271.661 154.018 270.995 165.502 263.719 172.271C259.543 176.155 240.006 187.116 227.262 182.891C214.7 178.73 191.232 156.737 188.624 154.811C186.017 152.885 183.631 151.546 183.869 150.713C187.38 139.063 192.524 138.151 202.034 140.252C213.669 142.811 236.646 155.889 236.646 155.889L267.5 142.011Z" fill="#37474F"/>
<path d="M219.67 77.8451L223.316 92.5709L239.65 87.3796L234.99 71.457L219.67 77.8451Z" fill="#F28F8F"/>
<path d="M209.405 64.6251C208.555 64.6251 207.725 64.3731 207.019 63.9011C206.312 63.4291 205.762 62.7582 205.436 61.9733C205.111 61.1883 205.026 60.3246 205.192 59.4913C205.358 58.658 205.767 57.8926 206.368 57.2919C206.968 56.6911 207.734 56.282 208.567 56.1162C209.4 55.9505 210.264 56.0356 211.049 56.3607C211.834 56.6858 212.505 57.2364 212.977 57.9428C213.449 58.6492 213.701 59.4798 213.701 60.3294C213.699 61.468 213.245 62.5594 212.44 63.3646C211.635 64.1697 210.544 64.623 209.405 64.6251ZM209.405 56.8263C208.71 56.8263 208.031 57.0324 207.454 57.4185C206.876 57.8047 206.426 58.3535 206.161 58.9955C205.895 59.6375 205.826 60.3439 205.962 61.0252C206.098 61.7065 206.433 62.3321 206.925 62.8228C207.417 63.3135 208.043 63.6473 208.725 63.7818C209.407 63.9164 210.113 63.8458 210.754 63.5788C211.396 63.3118 211.943 62.8606 212.328 62.2822C212.713 61.7037 212.918 61.0241 212.916 60.3294C212.916 59.8687 212.825 59.4125 212.649 58.987C212.472 58.5614 212.213 58.1749 211.887 57.8495C211.561 57.5241 211.174 57.2662 210.748 57.0906C210.322 56.9151 209.866 56.8252 209.405 56.8263Z" fill="#263238"/>
<path d="M208.312 61.9067C208.312 61.9067 205.395 66.8285 205.839 67.312C206.283 67.7955 208.375 68.2076 208.375 68.2076L208.312 61.9067Z" fill="#B16668"/>
<path d="M241.869 45.7861C241.838 45.3456 241.739 44.9126 241.576 44.5022C241.172 43.6803 240.618 42.9412 239.943 42.3226C238.621 41.0868 237.043 40.1561 235.322 39.5962C232.653 38.7185 229.829 38.4054 227.032 38.6768C224.345 38.9067 221.857 39.5804 219.107 39.2396C217.073 38.8696 215.014 38.6523 212.948 38.5896C210.88 38.6531 208.716 39.3267 207.4 40.9673C206.477 42.1788 206.034 43.689 206.156 45.2075C206.276 46.7147 206.722 48.1777 207.464 49.4953C205.538 51.0408 205.245 54.005 206.235 56.2638C207.591 59.3547 210.745 61.0984 213.329 63.0322C215.358 64.554 217.307 66.1734 219.178 67.8906C220.105 68.6909 220.991 69.5374 221.833 70.4268L221.984 70.617C221.308 70.7661 220.607 70.7497 219.939 70.5695C219.939 70.5695 220.66 76.696 225.859 78.7091C225.859 78.7091 232.477 80.0485 237.129 77.124C238.088 74.9048 241.029 72.1863 243.303 67.8669C247.837 59.22 246.418 50.4622 241.869 45.7861Z" fill="#263238"/>
<path d="M224.473 68.8734C224.198 69.3165 223.836 69.6985 223.408 69.9957C222.98 70.2929 222.495 70.499 221.984 70.6012C221.309 70.7547 220.608 70.7411 219.939 70.5616C219.939 70.5616 221.112 75.3169 224.544 78.0434C223.647 78.6502 222.667 79.1253 221.635 79.4541C218.782 80.4924 213.187 80.4448 212.053 79.5017C210.357 78.0751 207.512 74.2232 208.265 62.6043C208.566 57.8489 209.652 54.536 211.039 52.1504C211.21 52.9623 211.582 53.7184 212.121 54.3497C212.659 54.981 213.347 55.4674 214.122 55.7645C213.737 56.3588 213.489 57.0307 213.394 57.7322C213.3 58.4337 213.362 59.1475 213.575 59.8224C214.09 61.4075 215.398 62.636 216.65 63.7852C216.72 63.858 216.808 63.9124 216.904 63.9437C217.258 63.9794 217.614 63.9076 217.926 63.7376C218.861 62.1525 220.169 60.3375 222.983 61.0905C226.24 61.9227 226.304 65.83 224.473 68.8734Z" fill="#F28F8F"/>
<path d="M205.567 59.7775L205.476 60.4609L218.241 62.171L218.332 61.4875L205.567 59.7775Z" fill="#263238"/>
<path d="M212.338 79.6842C213.685 80.3261 217.41 80.4133 220.153 79.8506L219.598 77.7979C218.584 78.4152 217.487 78.8849 216.34 79.1928C215.039 79.5586 213.689 79.7243 212.338 79.6842Z" fill="#B16668"/>
<path d="M216.664 67.8351C216.323 67.7395 216.004 67.5768 215.726 67.3565C215.448 67.1363 215.217 66.8629 215.046 66.5523C214.874 66.2417 214.767 65.9001 214.729 65.5475C214.691 65.1949 214.724 64.8382 214.826 64.4984C215.04 63.8095 215.517 63.2326 216.153 62.8929C216.79 62.5532 217.534 62.4779 218.226 62.6835L216.664 67.8351Z" fill="#263238"/>
<path d="M247.004 34.5159C245.46 34.2436 243.87 34.397 242.407 34.9598C241.63 34.0687 240.574 33.4678 239.411 33.2558C238.099 33.008 236.741 33.2693 235.615 33.9865C234.488 34.7036 233.677 35.8229 233.346 37.1168C233.015 38.4107 233.189 39.782 233.832 40.9522C234.476 42.1223 235.541 43.0034 236.811 43.4164C236.886 45.2712 237.55 47.054 238.707 48.5051C239.865 49.9563 241.455 51.0001 243.247 51.4847C243.342 52.2788 243.617 53.0408 244.051 53.7125C244.485 54.3843 245.067 54.9481 245.752 55.361C246.437 55.7739 247.207 56.025 248.004 56.0952C248.8 56.1654 249.602 56.0528 250.349 55.766C251.096 55.4792 251.767 55.0257 252.312 54.4402C252.856 53.8546 253.26 53.1525 253.493 52.3872C253.725 51.6219 253.78 50.8137 253.652 50.0241C253.525 49.2345 253.219 48.4844 252.758 47.831C253.537 46.6287 254.009 45.2528 254.13 43.825C254.251 42.3973 254.019 40.9616 253.453 39.6451C252.887 38.3286 252.006 37.1719 250.886 36.2773C249.767 35.3826 248.444 34.7777 247.036 34.5159H247.004Z" fill="#263238"/>
<path d="M237.446 79.8662C246.069 75.1583 254.447 79.4778 257.49 85.4141C261.318 92.9038 260.724 104.618 260.724 104.618C256.206 100.172 237.446 79.8662 237.446 79.8662Z" fill="#B16668"/>
<path d="M238.121 82.1405L237.447 79.8659C247.18 75.2373 253.497 81.451 258.751 94.6155C261.779 102.2 260.495 112.131 261.454 123.425C262.143 131.565 265.861 132.738 269.498 147.289C269.498 147.289 264.212 155.595 252.062 158.575C239.912 161.555 223.149 158.924 220.201 149.516C220.201 149.516 220.098 141.591 219.702 134.561C219.361 128.537 216.009 119.256 213.068 112.408C210.294 105.933 206.625 93.8942 214.178 89.4242C216.389 88.1165 218.656 87.2367 221.675 85.7943C228.515 88.061 239.009 84.867 238.121 82.1405Z" fill="#00F0FF"/>
<path d="M203.002 150.389C199.269 148.962 196.97 144.746 196.511 142.011C196.051 139.277 197.303 134.799 198.73 132.302C200.157 129.806 203.002 150.389 203.002 150.389Z" fill="#B16668"/>
<path d="M198.666 132.738C199.736 126.144 201.48 115.952 203.667 105.205C205.799 94.7586 207.551 92.7931 212.995 90.5264C226.215 98.3965 219.716 116.261 219.716 116.261C219.716 116.261 214.652 136.978 211.933 143.549C210.166 147.821 206.687 152.616 202.034 149.889C197.382 147.163 197.588 139.324 198.666 132.738Z" fill="#F28F8F"/>
<path d="M237.74 196.095C241.703 195.897 244.754 193.004 254.107 189.113C271.377 181.916 284.335 176.154 289.265 167.111C294.194 158.068 297.697 117.497 296.461 106.187C296.345 104.906 296.063 103.646 295.621 102.438L296.834 102.256L293.663 99.5771C290.438 96.9458 285.183 99.2918 281.228 101.448C269.918 107.598 261.073 113.582 254.083 135.171C248.828 151.411 245.365 180.68 238.097 188.598" fill="#00F0FF"/>
<path opacity="0.25" d="M295.62 102.438L296.833 102.256L293.663 99.5771C290.437 96.9458 285.182 99.2918 281.227 101.448C269.918 107.598 261.073 113.582 254.082 135.171C248.828 151.411 245.364 180.68 238.096 188.598L237.716 196.087C241.679 195.889 244.73 192.996 254.082 189.105C271.352 181.908 284.31 176.146 289.24 167.103C294.17 158.06 297.673 117.489 296.437 106.179C296.328 104.902 296.053 103.645 295.62 102.438Z" fill="white"/>
<path d="M284.24 102.906C272.938 109.064 262.31 115.793 256.326 137.922C250.398 159.828 246.57 193.076 232.795 196.777C232.795 196.777 239.024 199.25 258.109 191.182C264.188 188.614 271.583 183.93 276.394 181.211C285.904 175.885 291.635 171.526 292.546 169.893C297.563 160.89 300.979 120.271 299.743 108.969C298.506 97.6674 289.907 99.831 284.24 102.906Z" fill="#00F0FF"/>
<g opacity="0.4">
<path d="M284.24 102.906C272.938 109.064 262.31 115.793 256.326 137.922C250.398 159.828 246.57 193.076 232.795 196.777C232.795 196.777 239.024 199.25 258.109 191.182C264.188 188.614 271.583 183.93 276.394 181.211C285.904 175.885 291.635 171.526 292.546 169.893C297.563 160.89 300.979 120.271 299.743 108.969C298.506 97.6674 289.907 99.831 284.24 102.906Z" fill="white"/>
</g>
<path d="M270.601 48.9404C270.486 49.0878 270.319 49.185 270.134 49.2116C269.949 49.2382 269.761 49.1922 269.61 49.0831L266.963 47.1255C266.813 47.0147 266.713 46.8493 266.685 46.6651C266.657 46.481 266.702 46.2932 266.812 46.1427L268.397 44.0107C268.453 43.936 268.523 43.8731 268.602 43.8255C268.682 43.7778 268.771 43.7465 268.863 43.7332C268.955 43.72 269.049 43.7251 269.139 43.7482C269.229 43.7713 269.314 43.8121 269.388 43.8681L272.035 45.8257C272.185 45.9364 272.285 46.1019 272.313 46.286C272.341 46.4701 272.296 46.658 272.186 46.8085L270.601 48.9404ZM273.945 44.4149C273.89 44.4893 273.82 44.5516 273.739 44.5979C273.659 44.6443 273.57 44.6737 273.478 44.6844C273.386 44.7013 273.293 44.6988 273.203 44.6769C273.112 44.6551 273.028 44.6144 272.955 44.5576L270.299 42.6C270.225 42.5464 270.163 42.4778 270.116 42.3986C270.07 42.3195 270.04 42.2315 270.03 42.1403C270.012 42.0491 270.014 41.9551 270.036 41.8648C270.058 41.7745 270.099 41.69 270.157 41.6172L276.854 32.5424C276.908 32.4662 276.978 32.4022 277.059 32.3544C277.139 32.3066 277.229 32.2762 277.322 32.265C277.413 32.248 277.507 32.2506 277.597 32.2724C277.687 32.2943 277.771 32.335 277.845 32.3918L280.492 34.3494C280.568 34.4038 280.632 34.4735 280.68 34.554C280.728 34.6345 280.758 34.7241 280.769 34.817C280.784 34.9083 280.781 35.0016 280.759 35.0914C280.737 35.1813 280.698 35.2659 280.642 35.3401L273.945 44.4149Z" fill="#00F0FF"/>
<path d="M272.749 57.722C272.575 57.7872 272.383 57.7842 272.211 57.7137C272.039 57.6431 271.9 57.5102 271.822 57.3416L270.553 54.2982C270.482 54.1246 270.482 53.93 270.553 53.7564C270.625 53.5829 270.761 53.4444 270.934 53.3709L273.367 52.3564C273.541 52.2851 273.735 52.2851 273.909 52.3563C274.082 52.4275 274.221 52.5642 274.294 52.7368L275.562 55.7803C275.6 55.8652 275.619 55.957 275.619 56.0497C275.619 56.1425 275.6 56.2342 275.562 56.3192C275.53 56.4056 275.48 56.4845 275.416 56.5512C275.352 56.6179 275.275 56.6711 275.19 56.7075L272.749 57.722ZM277.94 55.5583C277.768 55.6297 277.574 55.6297 277.401 55.5583C277.316 55.5237 277.238 55.4721 277.172 55.4068C277.107 55.3414 277.055 55.2636 277.021 55.1779L275.753 52.1345C275.714 52.05 275.693 51.9581 275.693 51.865C275.693 51.7719 275.714 51.68 275.753 51.5955C275.784 51.5084 275.834 51.4289 275.898 51.362C275.962 51.2952 276.039 51.2424 276.125 51.2072L286.539 46.8719C286.712 46.8005 286.906 46.8005 287.078 46.8719C287.252 46.9439 287.391 47.0802 287.467 47.2523L288.735 50.2957C288.772 50.3807 288.791 50.4725 288.791 50.5652C288.791 50.6579 288.772 50.7497 288.735 50.8347C288.702 50.9211 288.652 51 288.588 51.0667C288.524 51.1334 288.447 51.1866 288.362 51.223L277.94 55.5583Z" fill="#00F0FF"/>
<g opacity="0.2">
<path d="M272.749 57.7215C272.575 57.7867 272.383 57.7837 272.211 57.7132C272.039 57.6427 271.9 57.5098 271.822 57.3411L270.553 54.2977C270.482 54.1241 270.482 53.9295 270.553 53.7559C270.625 53.5824 270.761 53.4439 270.934 53.3704L273.367 52.3559C273.541 52.2846 273.735 52.2846 273.909 52.3558C274.082 52.427 274.221 52.5637 274.294 52.7363L275.562 55.7798C275.6 55.8648 275.619 55.9565 275.619 56.0492C275.619 56.142 275.6 56.2337 275.562 56.3187C275.53 56.4051 275.48 56.484 275.416 56.5507C275.352 56.6174 275.275 56.6706 275.19 56.7071L272.749 57.7215ZM277.94 55.5578C277.768 55.6292 277.574 55.6292 277.401 55.5578C277.316 55.5232 277.238 55.4716 277.172 55.4063C277.107 55.3409 277.055 55.2631 277.021 55.1774L275.753 52.134C275.714 52.0495 275.693 51.9576 275.693 51.8645C275.693 51.7714 275.714 51.6795 275.753 51.595C275.784 51.5079 275.834 51.4284 275.898 51.3616C275.962 51.2947 276.039 51.2419 276.125 51.2067L286.539 46.8714C286.712 46.8 286.906 46.8 287.078 46.8714C287.252 46.9434 287.391 47.0797 287.467 47.2518L288.735 50.2952C288.772 50.3802 288.791 50.472 288.791 50.5647C288.791 50.6574 288.772 50.7492 288.735 50.8342C288.702 50.9206 288.652 50.9995 288.588 51.0662C288.524 51.1329 288.447 51.1861 288.362 51.2225L277.94 55.5578Z" fill="black"/>
</g>
<path d="M226.218 26.344C226.209 26.6466 226.11 26.9396 225.935 27.1865C225.76 27.4333 225.515 27.6229 225.233 27.7315C224.95 27.8402 224.642 27.863 224.346 27.7971C224.051 27.7312 223.782 27.5795 223.572 27.3612C223.362 27.1428 223.222 26.8674 223.168 26.5695C223.114 26.2716 223.15 25.9644 223.27 25.6865C223.39 25.4087 223.589 25.1724 223.843 25.0074C224.097 24.8423 224.394 24.7559 224.696 24.7589C224.901 24.7598 225.104 24.8019 225.292 24.8827C225.481 24.9635 225.651 25.0813 225.793 25.2292C225.935 25.377 226.046 25.5519 226.119 25.7434C226.192 25.9349 226.225 26.1392 226.218 26.344Z" fill="#37474F"/>
<path d="M222.841 26.4073C221.826 25.805 221.842 24.8222 222.841 24.2832C223.41 23.9924 224.04 23.8408 224.68 23.8408C225.319 23.8408 225.949 23.9924 226.518 24.2832C227.525 24.8777 227.517 25.8684 226.518 26.4073C225.948 26.6944 225.318 26.844 224.68 26.844C224.041 26.844 223.411 26.6944 222.841 26.4073Z" fill="#455A64"/>
<path d="M222.794 25.8522C221.748 25.234 221.756 24.2671 222.794 23.6648C223.383 23.3661 224.033 23.2104 224.693 23.2104C225.352 23.2104 226.003 23.3661 226.591 23.6648C227.629 24.275 227.621 25.2499 226.591 25.8522C226.002 26.1503 225.352 26.3056 224.693 26.3056C224.033 26.3056 223.383 26.1503 222.794 25.8522Z" fill="#37474F"/>
<path d="M222.739 25.2815C221.669 24.6475 221.677 23.633 222.739 23.0227C223.344 22.7157 224.014 22.5557 224.693 22.5557C225.371 22.5557 226.041 22.7157 226.646 23.0227C227.716 23.6568 227.708 24.6713 226.646 25.2815C226.041 25.5886 225.371 25.7486 224.693 25.7486C224.014 25.7486 223.344 25.5886 222.739 25.2815Z" fill="#455A64"/>
<path d="M222.685 24.6874C221.583 24.0375 221.591 22.9913 222.685 22.3652C223.313 22.0551 224.006 21.8971 224.706 21.904C225.407 21.9109 226.097 22.0825 226.719 22.4048C227.82 23.0627 227.812 24.1009 226.719 24.735C226.09 25.0457 225.397 25.2033 224.696 25.1951C223.995 25.1868 223.306 25.0129 222.685 24.6874Z" fill="#37474F"/>
<path d="M222.645 24.0698C221.512 23.404 221.527 22.342 222.645 21.6921C223.286 21.3758 223.992 21.2145 224.706 21.2214C225.421 21.2283 226.124 21.4031 226.758 21.7317C227.884 22.4054 227.876 23.4674 226.758 24.1094C226.118 24.4289 225.412 24.5918 224.697 24.5849C223.982 24.5781 223.278 24.4015 222.645 24.0698Z" fill="#455A64"/>
<path d="M224.895 6.22895C223.935 6.21849 222.983 6.39716 222.093 6.75475C221.202 7.11235 220.391 7.64187 219.705 8.31307C219.019 8.98428 218.472 9.78404 218.095 10.6667C217.718 11.5493 217.519 12.4975 217.508 13.4571C217.445 19.2587 222.264 20.2731 222.2 22.6112C222.218 22.8335 222.296 23.047 222.424 23.2295C222.552 23.412 222.727 23.557 222.93 23.6494C223.48 23.9343 224.089 24.0863 224.708 24.0932C225.328 24.1001 225.94 23.9617 226.496 23.6891C226.7 23.6001 226.876 23.4585 227.007 23.2789C227.138 23.0992 227.219 22.8879 227.241 22.6667C227.241 20.3286 232.068 19.4092 232.123 13.6077C232.134 12.6484 231.955 11.6965 231.597 10.8064C231.24 9.91626 230.71 9.10536 230.039 8.42007C229.367 7.73477 228.568 7.18851 227.685 6.81255C226.802 6.43658 225.854 6.23827 224.895 6.22895Z" fill="#00F0FF"/>
<g opacity="0.6">
<path d="M224.896 6.22895C223.936 6.21849 222.984 6.39716 222.094 6.75475C221.203 7.11235 220.392 7.64187 219.706 8.31307C219.02 8.98428 218.473 9.78404 218.096 10.6667C217.719 11.5493 217.52 12.4975 217.509 13.4571C217.446 19.2587 222.265 20.2731 222.201 22.6112C222.219 22.8335 222.297 23.047 222.425 23.2295C222.553 23.412 222.728 23.557 222.931 23.6494C223.481 23.9343 224.09 24.0863 224.709 24.0932C225.328 24.1001 225.941 23.9617 226.497 23.6891C226.701 23.6001 226.877 23.4585 227.008 23.2789C227.139 23.0992 227.22 22.8879 227.242 22.6667C227.242 20.3286 232.069 19.4092 232.124 13.6077C232.135 12.6484 231.956 11.6965 231.598 10.8064C231.241 9.91626 230.711 9.10536 230.04 8.42007C229.368 7.73477 228.569 7.18851 227.686 6.81255C226.803 6.43658 225.855 6.23827 224.896 6.22895Z" fill="white"/>
</g>
<path d="M223.373 23.3317C223.198 23.2918 223.042 23.1936 222.93 23.0532C222.818 22.9128 222.757 22.7385 222.757 22.5589C222.757 22.3793 222.818 22.2051 222.93 22.0647C223.042 21.9243 223.198 21.8261 223.373 21.7862C223.788 21.5753 224.247 21.4653 224.713 21.4653C225.178 21.4653 225.637 21.5753 226.052 21.7862C226.262 21.7862 226.464 21.8697 226.613 22.0183C226.761 22.1669 226.845 22.3685 226.845 22.5787C226.845 22.7889 226.761 22.9905 226.613 23.1392C226.464 23.2878 226.262 23.3713 226.052 23.3713C225.634 23.5761 225.173 23.6792 224.708 23.6724C224.242 23.6655 223.785 23.5487 223.373 23.3317Z" fill="#00F0FF"/>
<path d="M225.696 22.4048C225.631 22.4028 225.57 22.3763 225.524 22.3306C225.479 22.285 225.452 22.2236 225.45 22.1591C225.473 20.7522 225.662 19.3529 226.013 17.9902C226.114 17.5973 226.238 17.2109 226.386 16.8331C226.168 16.7466 225.958 16.6404 225.759 16.5161C225.401 16.2996 225.075 16.0327 224.792 15.7235C224.508 16.0335 224.179 16.3004 223.818 16.5161C223.619 16.6407 223.406 16.7418 223.184 16.8172C223.322 17.1987 223.438 17.5877 223.532 17.9823C223.853 19.3539 224.009 20.7585 224 22.167C223.989 22.2256 223.959 22.2786 223.913 22.3168C223.867 22.355 223.81 22.376 223.75 22.376C223.691 22.376 223.633 22.355 223.587 22.3168C223.542 22.2786 223.511 22.2256 223.501 22.167C223.513 20.8038 223.362 19.444 223.049 18.117C222.958 17.7208 222.838 17.3314 222.692 16.952C222.445 17 222.191 16.9868 221.95 16.9136C221.71 16.8403 221.491 16.7093 221.313 16.5319C221.179 16.4005 221.095 16.2255 221.078 16.0382C221.06 15.8509 221.11 15.6635 221.218 15.5095C221.291 15.4006 221.395 15.316 221.516 15.2666C221.638 15.2172 221.771 15.2051 221.9 15.2321C222.288 15.3114 222.692 15.7235 222.985 16.3813C223.186 16.31 223.38 16.2198 223.564 16.1118C223.914 15.9002 224.228 15.6324 224.491 15.3193C224.342 15.1226 224.234 14.8973 224.176 14.6573C224.117 14.4173 224.108 14.1678 224.15 13.9244C224.187 13.7786 224.274 13.6503 224.396 13.562C224.517 13.4736 224.666 13.4308 224.816 13.4409C224.968 13.4347 225.117 13.4809 225.238 13.5719C225.359 13.6629 225.446 13.793 225.482 13.9402C225.516 14.1851 225.5 14.4344 225.434 14.6728C225.369 14.9113 225.256 15.1339 225.102 15.3272C225.365 15.6378 225.675 15.9052 226.021 16.1198C226.2 16.2353 226.392 16.331 226.592 16.4051C226.924 15.7473 227.313 15.351 227.701 15.2797C227.83 15.256 227.963 15.2712 228.083 15.3235C228.203 15.3757 228.304 15.4626 228.375 15.5729C228.478 15.7289 228.522 15.9162 228.501 16.1019C228.479 16.2875 228.392 16.4594 228.256 16.5874C228.073 16.7584 227.851 16.8835 227.61 16.9524C227.369 17.0213 227.115 17.032 226.869 16.9837C226.718 17.3585 226.591 17.7423 226.489 18.1329C226.151 19.4545 225.971 20.8111 225.95 22.1749C225.951 22.2079 225.945 22.2407 225.933 22.2714C225.921 22.3021 225.903 22.3302 225.881 22.3538C225.858 22.3775 225.83 22.3963 225.8 22.4091C225.769 22.422 225.737 22.4286 225.704 22.4286L225.696 22.4048ZM221.733 15.6759C221.704 15.678 221.676 15.687 221.651 15.7022C221.626 15.7174 221.606 15.7383 221.591 15.7631C221.472 15.9296 221.591 16.1118 221.654 16.1594C221.758 16.2608 221.882 16.3383 222.019 16.3862C222.156 16.4342 222.302 16.4514 222.446 16.4368C222.185 15.9454 221.931 15.7156 221.773 15.6442L221.733 15.6759ZM227.083 16.4685C227.226 16.4863 227.372 16.4721 227.509 16.4268C227.646 16.3816 227.771 16.3065 227.876 16.207C227.931 16.1607 227.968 16.0966 227.981 16.0257C227.994 15.9547 227.982 15.8815 227.947 15.8186C227.883 15.7235 227.82 15.7156 227.773 15.7235C227.725 15.7314 227.4 16.0009 227.107 16.4843L227.083 16.4685ZM224.792 13.8768C224.749 13.8699 224.705 13.8801 224.67 13.9053C224.634 13.9305 224.61 13.9687 224.602 14.0116C224.567 14.288 224.629 14.568 224.777 14.8041C224.938 14.5731 225.008 14.2911 224.975 14.0116C225.022 13.9482 224.943 13.9006 224.816 13.8927L224.792 13.8768Z" fill="white"/>
<path d="M224.966 3.43972C224.924 3.44805 224.881 3.44805 224.839 3.43972C224.713 3.43972 224.592 3.38962 224.503 3.30044C224.413 3.21126 224.363 3.0903 224.363 2.96418V0.475541C224.363 0.349421 224.413 0.228461 224.503 0.139281C224.592 0.0501007 224.713 0 224.839 0C224.965 0 225.086 0.0501007 225.175 0.139281C225.264 0.228461 225.314 0.349421 225.314 0.475541V2.96418C225.318 3.07112 225.286 3.17624 225.223 3.26253C225.159 3.34882 225.069 3.41126 224.966 3.43972Z" fill="#E0E0E0"/>
<path d="M219.647 4.84248C219.547 4.87 219.44 4.86311 219.344 4.8229C219.247 4.78269 219.167 4.71147 219.116 4.62057L217.888 2.45688C217.837 2.40562 217.799 2.34356 217.776 2.27537C217.753 2.20718 217.746 2.13465 217.755 2.06324C217.764 1.99182 217.789 1.92339 217.828 1.86311C217.868 1.80283 217.92 1.75227 217.982 1.71523C218.044 1.6782 218.113 1.65565 218.185 1.64931C218.256 1.64297 218.329 1.65299 218.396 1.67861C218.463 1.70424 218.524 1.7448 218.573 1.79724C218.622 1.84968 218.659 1.91262 218.68 1.98134L219.917 4.14504C219.949 4.19887 219.97 4.25866 219.979 4.32085C219.988 4.38304 219.984 4.44634 219.968 4.507C219.951 4.56765 219.923 4.62441 219.884 4.67388C219.846 4.72334 219.797 4.76452 219.742 4.79493L219.647 4.84248Z" fill="#E0E0E0"/>
<path d="M215.748 8.68622C215.687 8.70381 215.623 8.70866 215.561 8.70048C215.498 8.69229 215.437 8.67125 215.383 8.63867L213.235 7.38642C213.159 7.31155 213.111 7.21335 213.098 7.10757C213.084 7.00179 213.107 6.89458 213.162 6.80315C213.216 6.71172 213.3 6.64137 213.4 6.60341C213.5 6.56546 213.609 6.56209 213.711 6.59386L215.867 7.8461C215.975 7.91194 216.054 8.01783 216.085 8.14091C216.116 8.26399 216.097 8.39439 216.033 8.50393C215.965 8.59878 215.863 8.66397 215.748 8.68622Z" fill="#E0E0E0"/>
<path d="M214.306 14.0205H214.179H211.69C211.574 14.0055 211.467 13.9485 211.389 13.8603C211.311 13.772 211.269 13.6585 211.269 13.541C211.269 13.4235 211.311 13.31 211.389 13.2218C211.467 13.1335 211.574 13.0765 211.69 13.0615H214.179C214.305 13.0656 214.425 13.1181 214.513 13.2081C214.602 13.2981 214.652 13.4187 214.654 13.545C214.658 13.6519 214.626 13.757 214.563 13.8433C214.499 13.9296 214.409 13.992 214.306 14.0205Z" fill="#E0E0E0"/>
<path d="M236.252 20.6623C236.191 20.6799 236.127 20.6847 236.065 20.6765C236.002 20.6684 235.941 20.6473 235.887 20.6147L233.739 19.3625C233.661 19.2874 233.611 19.1881 233.598 19.0808C233.584 18.9735 233.607 18.8647 233.663 18.7723C233.72 18.68 233.806 18.6096 233.908 18.5728C234.009 18.536 234.12 18.535 234.223 18.5699L236.371 19.8222C236.481 19.8867 236.561 19.992 236.593 20.1152C236.626 20.2384 236.609 20.3695 236.545 20.48C236.475 20.5766 236.37 20.6419 236.252 20.6623Z" fill="#E0E0E0"/>
<path d="M213.434 20.6618C213.495 20.6794 213.558 20.6842 213.621 20.6761C213.684 20.6679 213.744 20.6468 213.798 20.6143L215.946 19.362C216.022 19.2871 216.071 19.1889 216.084 19.0832C216.098 18.9774 216.075 18.8702 216.02 18.7787C215.965 18.6873 215.881 18.617 215.782 18.579C215.682 18.541 215.573 18.5377 215.471 18.5694L213.315 19.7821C213.207 19.848 213.128 19.9533 213.096 20.0759C213.063 20.1985 213.079 20.3289 213.141 20.4399C213.206 20.549 213.311 20.6286 213.434 20.6618Z" fill="#E0E0E0"/>
<path d="M238.033 14.1152C237.992 14.123 237.949 14.123 237.907 14.1152H235.418C235.292 14.1152 235.171 14.0651 235.082 13.9759C234.993 13.8868 234.942 13.7658 234.942 13.6397C234.941 13.5769 234.953 13.5146 234.976 13.4564C235 13.3983 235.035 13.3454 235.079 13.301C235.124 13.2567 235.177 13.2217 235.235 13.1981C235.293 13.1746 235.355 13.1631 235.418 13.1641H237.907C237.969 13.1631 238.032 13.1746 238.09 13.1981C238.148 13.2217 238.201 13.2567 238.245 13.301C238.29 13.3454 238.325 13.3983 238.348 13.4564C238.372 13.5146 238.383 13.5769 238.382 13.6397C238.386 13.7466 238.354 13.8517 238.29 13.938C238.227 14.0243 238.137 14.0867 238.033 14.1152Z" fill="#E0E0E0"/>
<path d="M234.142 8.78957C234.03 8.82217 233.91 8.81233 233.805 8.76195C233.699 8.71156 233.616 8.62416 233.571 8.51639C233.526 8.40862 233.522 8.28803 233.56 8.17763C233.598 8.06722 233.676 7.97471 233.778 7.91775L235.942 6.68135C235.993 6.63081 236.055 6.59257 236.123 6.5695C236.191 6.54644 236.264 6.53916 236.335 6.54821C236.407 6.55725 236.475 6.58239 236.535 6.62173C236.596 6.66107 236.646 6.71358 236.683 6.77531C236.72 6.83703 236.743 6.90635 236.749 6.97806C236.755 7.04976 236.745 7.12198 236.72 7.18925C236.694 7.25651 236.654 7.31708 236.601 7.36639C236.549 7.4157 236.486 7.45247 236.417 7.47392L234.253 8.71031C234.224 8.74555 234.185 8.77279 234.142 8.78957Z" fill="#E0E0E0"/>
<path d="M230.277 4.8899C230.215 4.90633 230.151 4.90987 230.089 4.90032C230.026 4.89077 229.966 4.86833 229.912 4.83442C229.857 4.804 229.809 4.76283 229.77 4.71336C229.731 4.66389 229.703 4.60714 229.687 4.54649C229.671 4.48583 229.667 4.42253 229.675 4.36034C229.684 4.29815 229.705 4.23836 229.738 4.18453L230.99 2.03668C231.065 1.96076 231.163 1.91219 231.269 1.89879C231.375 1.88539 231.482 1.90793 231.573 1.96279C231.665 2.01765 231.735 2.10164 231.773 2.20129C231.811 2.30093 231.814 2.41044 231.782 2.51222L230.57 4.66798C230.505 4.77712 230.399 4.85668 230.277 4.8899Z" fill="#E0E0E0"/>
</svg>
