<svg width="334" height="244" viewBox="0 0 334 244" fill="none" xmlns="http://www.w3.org/2000/svg">
<path d="M102.421 242.977L46.5703 210.504L141.039 155.909L102.421 242.977Z" fill="#E0E0E0"/>
<path d="M21.8033 208.511L44.5611 221.632C45.0341 221.872 45.557 221.997 46.0874 221.997C46.6178 221.997 47.1407 221.872 47.6137 221.632L79.0038 203.316C79.1885 203.255 79.3492 203.137 79.4631 202.979C79.577 202.821 79.6383 202.632 79.6383 202.437C79.6383 202.242 79.577 202.053 79.4631 201.895C79.3492 201.737 79.1885 201.619 79.0038 201.558L56.246 188.429C55.773 188.189 55.2501 188.064 54.7197 188.064C54.1893 188.064 53.6664 188.189 53.1933 188.429L21.8033 206.745C21.6195 206.809 21.4601 206.928 21.3473 207.086C21.2345 207.244 21.1738 207.434 21.1738 207.628C21.1738 207.822 21.2345 208.012 21.3473 208.17C21.4601 208.328 21.6195 208.448 21.8033 208.511Z" fill="#E0E0E0"/>
<path d="M24.2631 206.47C22.6936 203.943 17.8517 201.165 11.4952 199.792C5.13869 198.418 -1.24919 196.739 0.210447 193.027C1.77995 189.048 7.69698 188.852 13.4806 191.222C19.7978 193.812 24.4671 200.215 24.5534 204.249L24.2631 206.47Z" fill="#00F0FF"/>
<g opacity="0.1">
<path d="M24.2631 206.47C22.6936 203.943 17.8517 201.165 11.4952 199.792C5.13869 198.418 -1.24919 196.739 0.210447 193.027C1.77995 189.048 7.69698 188.852 13.4806 191.222C19.7978 193.812 24.4671 200.215 24.5534 204.249L24.2631 206.47Z" fill="black"/>
</g>
<path d="M24.7578 205.325C24.6684 205.324 24.581 205.297 24.506 205.249C24.4309 205.2 24.3713 205.131 24.334 205.05C19.2881 194.613 7.58744 192.925 3.9305 193.498C3.80573 193.516 3.67888 193.484 3.5775 193.41C3.47612 193.335 3.40839 193.223 3.38902 193.098C3.37896 193.037 3.38114 192.974 3.39545 192.914C3.40976 192.853 3.43591 192.796 3.47239 192.746C3.50887 192.695 3.55496 192.653 3.60799 192.62C3.66103 192.588 3.71996 192.566 3.7814 192.557C7.65807 191.96 19.9394 193.71 25.2208 204.642C25.2751 204.755 25.2825 204.886 25.2414 205.005C25.2002 205.124 25.1139 205.222 25.0011 205.277C24.925 205.313 24.8415 205.329 24.7578 205.325Z" fill="white"/>
<path d="M24.2634 206.47C24.2634 206.47 21.2264 194.44 13.528 187.974C11.2444 186.051 8.81952 183.642 7.10092 181.986C3.44398 178.423 4.97424 174.539 10.0359 174.617C17.5695 174.719 23.0784 181.06 25.4641 189.355C27.8497 197.65 24.2634 206.47 24.2634 206.47Z" fill="#00F0FF"/>
<path d="M25.4641 201.8C25.3449 201.801 25.2298 201.757 25.1413 201.677C25.0527 201.597 24.9972 201.487 24.9854 201.369C23.5729 186.066 11.8958 178.376 8.71755 177.559C8.59579 177.528 8.49143 177.45 8.42741 177.342C8.36339 177.234 8.34496 177.104 8.37618 176.983C8.4074 176.861 8.48571 176.757 8.59388 176.693C8.70205 176.629 8.83122 176.61 8.95297 176.641C12.8139 177.63 24.4832 185.611 25.935 201.283C25.9459 201.408 25.9067 201.533 25.8258 201.63C25.745 201.727 25.6291 201.788 25.5034 201.8H25.4641Z" fill="white"/>
<path d="M45.3281 219.703L23.8887 207.319L23.8809 161.333L45.3281 173.716V219.703Z" fill="#263238"/>
<path d="M45.3301 173.715L75.9668 156.027V202.014L45.3301 219.702V173.715Z" fill="#37474F"/>
<path d="M75.9648 156.028L45.3281 173.716L23.8809 161.333L54.5254 143.645L75.9648 156.028Z" fill="#455A64"/>
<path d="M58.5659 173.151L62.7329 170.742C63.2744 170.428 63.7139 170.569 63.7139 171.063C63.6741 171.364 63.5647 171.651 63.3944 171.901C63.2241 172.152 62.9976 172.36 62.7329 172.507L58.5659 174.916C58.0244 175.23 57.585 175.089 57.585 174.595C57.6248 174.294 57.7342 174.007 57.9045 173.757C58.0748 173.506 58.3013 173.298 58.5659 173.151Z" fill="#263238"/>
<path d="M47.832 197.039L72.3398 182.89L72.9048 183.211L72.3398 199.919L72.9048 200.248L48.3971 214.397L47.832 214.068V197.039Z" fill="#263238"/>
<path d="M48.3984 197.36L72.9062 183.211V200.248L48.3984 214.397V197.36Z" fill="#455A64"/>
<path d="M58.0014 194.7L62.1685 192.299C62.71 191.985 63.1494 192.126 63.1494 192.613C63.1102 192.915 63.0011 193.203 62.8308 193.455C62.6605 193.707 62.4337 193.916 62.1685 194.065L58.0014 196.474C57.46 196.788 57.0205 196.639 57.0205 196.152C57.0609 195.851 57.1705 195.563 57.3407 195.311C57.5108 195.059 57.737 194.85 58.0014 194.7Z" fill="#263238"/>
<path d="M47.832 175.851L72.3398 161.702L72.9048 162.024L72.3398 178.731L72.9048 179.061L48.3971 193.21L47.832 192.88V175.851Z" fill="#263238"/>
<path d="M48.3984 176.172L72.9062 162.023V179.06L48.3984 193.209V176.172Z" fill="#455A64"/>
<path d="M58.0014 173.512L62.1685 171.111C62.71 170.797 63.1494 170.938 63.1494 171.424C63.1102 171.726 63.0011 172.014 62.8308 172.266C62.6605 172.518 62.4337 172.727 62.1685 172.876L58.0014 175.285C57.46 175.599 57.0205 175.45 57.0205 174.964C57.0609 174.662 57.1705 174.375 57.3407 174.123C57.5108 173.871 57.737 173.662 58.0014 173.512Z" fill="#263238"/>
<path d="M45.3281 171.762L23.8887 159.378L23.8809 113.384L45.3281 125.767V171.762Z" fill="#263238"/>
<path d="M45.3301 125.767L75.9668 108.079V154.073L45.3301 171.762V125.767Z" fill="#37474F"/>
<path d="M75.9648 108.079L45.3281 125.767L23.8809 113.384L54.5254 95.6956L75.9648 108.079Z" fill="#455A64"/>
<path d="M48.3984 127.533L72.9062 113.384L73.4712 113.714V130.743L48.9635 144.9L48.3984 144.57V127.533Z" fill="#263238"/>
<path d="M58.5659 125.202L62.7329 122.793C63.2744 122.479 63.7139 122.628 63.7139 123.115C63.6735 123.416 63.5639 123.704 63.3937 123.956C63.2235 124.208 62.9974 124.417 62.7329 124.567L58.5659 126.968C58.0244 127.282 57.585 127.141 57.585 126.654C57.6242 126.352 57.7333 126.064 57.9036 125.812C58.0739 125.56 58.3007 125.351 58.5659 125.202Z" fill="#263238"/>
<path d="M47.832 149.09L72.3398 134.941V151.978L72.9048 152.3L48.3971 166.449L47.832 166.127V149.09Z" fill="#263238"/>
<path d="M48.3984 149.42L72.9062 135.263V152.3L48.3984 166.449V149.42Z" fill="#455A64"/>
<path d="M58.0014 146.76L62.1685 144.35C62.71 144.037 63.1494 144.178 63.1494 144.672C63.1096 144.973 63.0002 145.26 62.8299 145.51C62.6596 145.761 62.4331 145.968 62.1685 146.116L58.0014 148.525C57.46 148.839 57.0205 148.698 57.0205 148.204C57.0603 147.903 57.1697 147.616 57.34 147.365C57.5103 147.115 57.7368 146.907 58.0014 146.76Z" fill="#263238"/>
<path d="M48.3984 127.533L72.9062 113.384V130.421L48.3984 144.57V127.533Z" fill="#263238"/>
<path d="M85.1605 121.796L71.7412 114.059V129.063L85.1605 136.809V121.796Z" fill="#263238"/>
<path d="M57.585 146.995V125.767L62.8428 122.723L63.7139 124.002L79.0322 115.15V134.611L57.585 146.995Z" fill="#00F0FF"/>
<g opacity="0.2">
<path d="M57.5869 146.996V125.769L62.8448 122.724L63.7158 124.003L79.0342 115.151V134.613L57.5869 146.996Z" fill="black"/>
</g>
<path d="M57.585 146.995L59.1152 128.42L80.5625 116.037L79.0322 134.612L57.585 146.995Z" fill="#00F0FF"/>
<path d="M60.6459 135.954L48.9531 129.205V144.209L60.6459 150.958V135.954Z" fill="#37474F"/>
<path d="M60.6455 134.612L85.1611 120.463V137.492L60.6455 151.649V134.612Z" fill="#455A64"/>
<path d="M70.2593 131.951L74.4263 129.542C74.9678 129.228 75.4072 129.377 75.4072 129.863C75.3668 130.165 75.2572 130.452 75.0871 130.704C74.9169 130.956 74.6907 131.165 74.4263 131.315L70.2593 133.716C69.7178 134.03 69.2783 133.889 69.2783 133.403C69.3187 133.101 69.4283 132.813 69.5985 132.562C69.7687 132.31 69.9948 132.101 70.2593 131.951Z" fill="#263238"/>
<path d="M60.6472 134.612L59.8311 134.141V151.178L60.6472 151.649V134.612Z" fill="#263238"/>
<path d="M59.8311 134.141L84.3467 119.991L85.1628 120.462L60.6472 134.611L59.8311 134.141Z" fill="#37474F"/>
<path d="M265.376 11.7739L262.19 9.92188L99.5976 103.778V239.721C99.5542 240.141 99.6228 240.566 99.7965 240.952C99.9701 241.338 100.243 241.671 100.586 241.918L103.773 243.77C104.159 243.947 104.586 244.019 105.009 243.978C105.432 243.937 105.837 243.784 106.182 243.534L261.955 153.578C262.944 152.933 263.766 152.064 264.357 151.041C264.947 150.019 265.288 148.872 265.353 147.693L265.376 11.7739Z" fill="#E6E6E6"/>
<path d="M102.784 241.573C102.784 243.739 104.299 244.617 106.182 243.535L261.955 153.578C262.944 152.933 263.767 152.064 264.357 151.042C264.948 150.019 265.289 148.872 265.353 147.693V11.7739L102.784 105.638V241.573Z" fill="#FAFAFA"/>
<path d="M264.592 13.1081V147.709C264.528 148.75 264.223 149.763 263.701 150.667C263.18 151.571 262.456 152.342 261.586 152.919L105.813 242.852C105.474 243.067 105.085 243.191 104.683 243.213C103.694 243.213 103.592 242.067 103.592 241.573V106.085L264.592 13.1081ZM265.377 11.7505L102.784 105.638V241.573C102.784 243.142 103.569 243.998 104.66 243.998C105.199 243.977 105.723 243.817 106.182 243.535L261.955 153.579C262.944 152.933 263.767 152.064 264.357 151.042C264.948 150.019 265.289 148.872 265.353 147.693V11.774L265.377 11.7505Z" fill="#E0E0E0"/>
<path d="M102.784 105.638V120.352L265.353 26.488V11.7739L102.784 105.638Z" fill="#00F0FF"/>
<path d="M204.787 52.5109V55.6499C204.787 56.2934 205.25 56.5602 205.807 56.2385L255.788 27.3753V21.8821L205.807 50.7766C205.516 50.9682 205.272 51.2242 205.095 51.5249C204.918 51.8256 204.813 52.163 204.787 52.5109Z" fill="#FAFAFA"/>
<path d="M261.147 18.7979C261.712 18.4683 262.167 18.7352 262.167 19.3865V22.5255C262.149 22.8795 262.046 23.224 261.869 23.5309C261.692 23.8378 261.444 24.0983 261.147 24.2912L255.787 27.3831V21.8899L261.147 18.7979Z" fill="#455A64"/>
<path d="M260.754 23.1368L260.15 22.9484C260.216 22.6921 260.25 22.4285 260.252 22.1637C260.278 21.9223 260.242 21.6781 260.146 21.4552C260.049 21.2322 259.896 21.0382 259.702 20.8924C259.57 20.8144 259.42 20.7732 259.267 20.7732C259.114 20.7732 258.963 20.8144 258.831 20.8924C258.451 21.1843 258.145 21.5616 257.938 21.9938C257.731 22.426 257.628 22.9009 257.638 23.38C257.61 23.6215 257.646 23.8663 257.742 24.0895C257.839 24.3127 257.992 24.5066 258.188 24.6513C258.301 24.7204 258.432 24.7558 258.564 24.7534C258.736 24.7497 258.904 24.701 259.051 24.6121C259.508 24.3003 259.848 23.8445 260.016 23.3173L260.62 23.5056H260.668C260.714 23.5064 260.76 23.4924 260.798 23.4656C260.836 23.4388 260.864 23.4006 260.879 23.3565C260.883 23.3116 260.872 23.2667 260.85 23.2276C260.828 23.1885 260.794 23.1569 260.754 23.1368ZM258.831 24.2825C258.771 24.3282 258.7 24.3562 258.625 24.3631C258.55 24.3701 258.475 24.3557 258.407 24.3217C258.286 24.2112 258.193 24.0726 258.137 23.9181C258.081 23.7636 258.063 23.5978 258.086 23.435C258.078 23.0344 258.161 22.6371 258.328 22.273C258.495 21.9088 258.742 21.5871 259.051 21.3318C259.134 21.2805 259.228 21.2508 259.326 21.2455C259.381 21.2454 259.436 21.2617 259.483 21.2926C259.603 21.4044 259.694 21.5431 259.75 21.6972C259.806 21.8514 259.825 22.0166 259.804 22.1794C259.811 22.5805 259.726 22.978 259.558 23.3421C259.39 23.7062 259.141 24.0277 258.831 24.2825Z" fill="#FAFAFA"/>
<path d="M261.202 0.623162C260.816 0.433763 260.384 0.354104 259.955 0.392847C259.526 0.43159 259.116 0.587255 258.77 0.842897L102.997 90.7989C102.007 91.4428 101.183 92.3116 100.592 93.3344C100.002 94.3573 99.6612 95.5052 99.5986 96.6846V103.802L102.785 105.662L265.377 11.7745V4.65679C265.425 4.23742 265.359 3.81292 265.187 3.42773C265.014 3.04254 264.741 2.71083 264.396 2.46733C263.808 2.12204 261.76 0.960605 261.202 0.623162Z" fill="#263238"/>
<path d="M102.784 98.5206C102.845 97.3409 103.185 96.1925 103.776 95.1695C104.367 94.1465 105.191 93.2779 106.182 92.6349L261.955 2.69461C263.831 1.61165 265.353 2.49057 265.353 4.65649V11.7742L102.784 105.638V98.5206Z" fill="#37474F"/>
<path d="M264.402 2.48275C264.014 2.28914 263.58 2.20648 263.148 2.24387C262.716 2.28125 262.302 2.43725 261.953 2.69464L106.18 92.6271C105.177 93.2532 104.35 94.1258 103.779 95.1619L100.577 93.3177C101.151 92.2791 101.98 91.404 102.986 90.7751L258.767 0.834778C259.115 0.580387 259.525 0.426121 259.954 0.388763C260.383 0.351405 260.814 0.432383 261.2 0.622892C261.757 0.960335 263.798 2.12962 264.339 2.45921L264.402 2.48275Z" fill="#455A64"/>
<path d="M246.228 15.4621C245.768 15.7674 245.387 16.1765 245.114 16.6563C244.841 17.1361 244.685 17.6732 244.658 18.2244C244.658 19.2367 245.372 19.6526 246.228 19.1425C246.687 18.8372 247.069 18.4281 247.341 17.9483C247.614 17.4685 247.77 16.9314 247.797 16.3802C247.821 15.3522 247.107 14.9363 246.228 15.4621Z" fill="#00F0FF"/>
<path d="M251.808 12.2377C251.348 12.5413 250.967 12.949 250.694 13.4275C250.421 13.906 250.265 14.442 250.238 14.9921C250.238 16.0123 250.952 16.4204 251.808 15.9182C252.267 15.6119 252.647 15.2026 252.92 14.723C253.192 14.2434 253.349 13.7067 253.377 13.1558C253.401 12.1356 252.687 11.7276 251.808 12.2377Z" fill="#00F0FF"/>
<path d="M257.38 9.01994C256.92 9.32531 256.539 9.73437 256.266 10.2142C255.994 10.694 255.838 11.2311 255.811 11.7823C255.811 12.8024 256.525 13.2105 257.38 12.7004C257.841 12.3964 258.224 11.9877 258.496 11.5076C258.769 11.0275 258.924 10.4897 258.95 9.9381C258.981 8.92577 258.267 8.50985 257.38 9.01994Z" fill="#00F0FF"/>
<path d="M106.182 243.535L134.661 227.094V101.942L102.784 120.352V241.573C102.784 243.739 104.299 244.61 106.182 243.535Z" fill="#F5F5F5"/>
<path d="M133.876 103.3V226.639L105.79 242.852C105.45 243.067 105.061 243.191 104.66 243.213C103.671 243.213 103.569 242.067 103.569 241.573V120.799L133.876 103.3ZM134.661 101.942L102.784 120.352V241.573C102.784 243.142 103.569 243.998 104.66 243.998C105.199 243.977 105.723 243.817 106.182 243.535L134.661 227.094V101.942Z" fill="#E0E0E0"/>
<path d="M113.363 121.6L128.619 112.771C129.176 112.442 129.631 112.709 129.631 113.36V114.686C129.611 115.039 129.51 115.382 129.334 115.689C129.158 115.995 128.913 116.257 128.619 116.452L113.363 125.265C112.798 125.594 112.343 125.327 112.343 124.676V123.365C112.364 123.012 112.467 122.668 112.644 122.362C112.821 122.055 113.067 121.794 113.363 121.6Z" fill="#E0E0E0"/>
<path d="M109.156 125.21V126.536C109.137 126.89 109.034 127.234 108.857 127.541C108.68 127.848 108.433 128.108 108.136 128.302L106.99 128.961C106.425 129.29 105.97 129.024 105.97 128.372V127.046C105.989 126.692 106.091 126.348 106.269 126.041C106.446 125.734 106.693 125.474 106.99 125.28L108.136 124.621C108.701 124.292 109.156 124.543 109.156 125.21Z" fill="#00F0FF"/>
<path d="M113.363 128.938L128.619 120.125C129.176 119.795 129.631 120.062 129.631 120.706V122.032C129.611 122.386 129.51 122.73 129.334 123.038C129.158 123.346 128.913 123.609 128.619 123.806L113.363 132.618C112.798 132.94 112.343 132.681 112.343 132.03V130.703C112.363 130.35 112.465 130.006 112.642 129.699C112.82 129.392 113.066 129.132 113.363 128.938Z" fill="#E0E0E0"/>
<path d="M109.156 132.54V133.866C109.137 134.22 109.035 134.565 108.858 134.872C108.681 135.178 108.433 135.439 108.136 135.632L106.99 136.299C106.425 136.621 105.97 136.362 105.97 135.71V134.384C105.988 134.03 106.09 133.686 106.268 133.379C106.445 133.072 106.693 132.811 106.99 132.618L108.136 131.951C108.701 131.606 109.156 131.889 109.156 132.54Z" fill="#00F0FF"/>
<path d="M113.363 136.267L128.619 127.454C129.176 127.132 129.631 127.391 129.631 128.043V129.369C129.613 129.722 129.511 130.066 129.336 130.373C129.16 130.679 128.914 130.94 128.619 131.135L113.363 139.947C112.798 140.277 112.343 140.01 112.343 139.367V138.033C112.364 137.679 112.468 137.336 112.645 137.03C112.822 136.723 113.068 136.462 113.363 136.267Z" fill="#E0E0E0"/>
<path d="M109.156 139.877V141.203C109.137 141.557 109.035 141.902 108.858 142.209C108.681 142.516 108.433 142.776 108.136 142.969L106.99 143.636C106.425 143.958 105.97 143.691 105.97 143.048V141.714C105.99 141.36 106.093 141.016 106.27 140.71C106.447 140.403 106.694 140.142 106.99 139.948L108.136 139.289C108.701 138.967 109.156 139.226 109.156 139.877Z" fill="#00F0FF"/>
<path d="M113.363 160.594L128.619 151.774C129.176 151.452 129.631 151.711 129.631 152.362V153.689C129.613 154.042 129.511 154.386 129.336 154.692C129.16 154.999 128.914 155.26 128.619 155.454L113.363 164.275C112.798 164.597 112.343 164.338 112.343 163.686V162.36C112.363 162.006 112.465 161.662 112.642 161.356C112.82 161.049 113.066 160.788 113.363 160.594Z" fill="#E0E0E0"/>
<path d="M109.156 164.197V165.523C109.137 165.877 109.035 166.221 108.858 166.528C108.681 166.835 108.433 167.096 108.136 167.289L106.99 167.956C106.425 168.277 105.97 168.019 105.97 167.367V166.041C105.988 165.687 106.09 165.342 106.268 165.036C106.445 164.729 106.693 164.468 106.99 164.275L108.136 163.608C108.701 163.286 109.156 163.545 109.156 164.197Z" fill="#00F0FF"/>
<path d="M113.363 167.084L128.619 158.287C129.176 157.966 129.631 158.225 129.631 158.876V160.202C129.613 160.555 129.511 160.899 129.336 161.206C129.16 161.513 128.914 161.774 128.619 161.968L113.363 170.765C112.798 171.095 112.343 170.828 112.343 170.176V168.85C112.364 168.497 112.468 168.154 112.645 167.847C112.822 167.541 113.068 167.28 113.363 167.084Z" fill="#E0E0E0"/>
<path d="M109.156 170.694V172.02C109.137 172.374 109.035 172.719 108.858 173.026C108.681 173.333 108.433 173.593 108.136 173.786L106.99 174.445C106.425 174.775 105.97 174.508 105.97 173.857V172.53C105.99 172.177 106.093 171.833 106.27 171.526C106.447 171.22 106.694 170.959 106.99 170.765L108.136 170.105C108.701 169.784 109.156 170.058 109.156 170.694Z" fill="#00F0FF"/>
<path d="M113.363 173.583L128.619 164.77C129.176 164.44 129.631 164.707 129.631 165.358V166.685C129.611 167.037 129.51 167.381 129.334 167.687C129.158 167.994 128.913 168.255 128.619 168.45L113.363 177.263C112.798 177.593 112.343 177.326 112.343 176.675V175.348C112.364 174.995 112.467 174.651 112.644 174.345C112.821 174.038 113.067 173.777 113.363 173.583Z" fill="#E0E0E0"/>
<path d="M109.156 177.192V178.518C109.137 178.872 109.034 179.216 108.857 179.523C108.68 179.83 108.433 180.091 108.136 180.284L106.99 180.943C106.425 181.273 105.97 181.006 105.97 180.354V179.028C105.989 178.674 106.091 178.33 106.269 178.023C106.446 177.717 106.693 177.456 106.99 177.263L108.136 176.603C108.701 176.274 109.156 176.541 109.156 177.192Z" fill="#00F0FF"/>
<path d="M112.343 144.28V146.563L114.328 144.28H112.343Z" fill="#00F0FF"/>
<path d="M115.534 143.8C115.534 144.232 115.832 144.397 116.209 144.177L128.953 136.847C129.151 136.718 129.314 136.544 129.432 136.339C129.549 136.135 129.616 135.906 129.628 135.67C129.628 135.239 129.33 135.066 128.953 135.286L116.209 142.639C116.013 142.766 115.85 142.937 115.733 143.139C115.615 143.341 115.547 143.567 115.534 143.8Z" fill="#E0E0E0"/>
<path d="M112.343 147.952V150.244L114.328 147.952H112.343Z" fill="#00F0FF"/>
<path d="M115.534 147.481C115.534 147.905 115.832 148.078 116.209 147.858L128.953 140.521C129.151 140.393 129.315 140.221 129.432 140.018C129.55 139.814 129.617 139.586 129.628 139.351C129.628 138.92 129.33 138.747 128.953 138.967L116.209 146.32C116.013 146.447 115.85 146.618 115.733 146.82C115.615 147.022 115.547 147.248 115.534 147.481Z" fill="#E0E0E0"/>
<path d="M112.343 151.632V153.924L114.328 151.632H112.343Z" fill="#00F0FF"/>
<path d="M115.534 151.162C115.534 151.585 115.832 151.758 116.209 151.538L128.953 144.201C129.151 144.074 129.315 143.901 129.432 143.698C129.55 143.494 129.617 143.266 129.628 143.031C129.628 142.6 129.33 142.427 128.953 142.647L116.209 150C116.013 150.127 115.85 150.298 115.733 150.5C115.615 150.702 115.547 150.928 115.534 151.162Z" fill="#E0E0E0"/>
<path d="M112.343 155.313V157.605L114.328 155.313H112.343Z" fill="#00F0FF"/>
<path d="M115.534 154.842C115.534 155.266 115.832 155.439 116.209 155.219L128.953 147.881C129.151 147.754 129.315 147.582 129.432 147.379C129.55 147.175 129.617 146.947 129.628 146.712C129.628 146.281 129.33 146.108 128.953 146.328L116.209 153.681C116.013 153.808 115.85 153.979 115.733 154.181C115.615 154.382 115.547 154.609 115.534 154.842Z" fill="#E0E0E0"/>
<path d="M144.22 106.329V125.508C144.22 126.293 144.785 126.638 145.483 126.238L166.569 114.059C166.938 113.821 167.244 113.499 167.464 113.12C167.683 112.741 167.81 112.315 167.833 111.877V96.1113C167.833 95.3266 167.268 94.9813 166.569 95.3815L154.335 102.444C153.637 102.844 153.072 102.523 153.072 101.722V101.22C153.072 100.435 152.515 100.09 151.816 100.49L145.483 104.139C145.115 104.379 144.809 104.703 144.59 105.083C144.37 105.463 144.243 105.89 144.22 106.329Z" fill="#00F0FF"/>
<path d="M148.37 129.126V130.358C148.37 130.954 148.794 131.197 149.312 130.899L165.132 121.765C165.407 121.586 165.635 121.345 165.799 121.061C165.962 120.778 166.057 120.459 166.074 120.132V118.9C166.074 118.304 165.65 118.061 165.132 118.359L149.312 127.493C149.037 127.672 148.809 127.913 148.645 128.197C148.482 128.48 148.387 128.799 148.37 129.126Z" fill="#E0E0E0"/>
<path d="M173.561 89.496V108.675C173.561 109.46 174.126 109.798 174.816 109.397L195.902 97.2258C196.269 96.9867 196.575 96.6646 196.794 96.2856C197.014 95.9067 197.141 95.4814 197.166 95.0442V79.2707C197.166 78.486 196.601 78.1407 195.902 78.5409L183.668 85.6037C182.97 86.0039 182.413 85.6743 182.413 84.8738V84.3716C182.413 83.5868 181.848 83.2494 181.149 83.6496L174.816 87.3066C174.449 87.5469 174.144 87.8705 173.926 88.251C173.708 88.6314 173.583 89.058 173.561 89.496Z" fill="#00F0FF"/>
<path d="M177.688 112.293V113.556C177.688 114.16 178.111 114.404 178.629 114.105L194.45 104.924C194.724 104.743 194.952 104.5 195.115 104.216C195.279 103.931 195.373 103.612 195.391 103.284V102.06C195.391 101.455 194.968 101.212 194.45 101.518L178.629 110.653C178.355 110.833 178.127 111.076 177.964 111.361C177.8 111.646 177.706 111.965 177.688 112.293Z" fill="#E0E0E0"/>
<path d="M144.22 144.86V164.04C144.22 164.824 144.785 165.17 145.483 164.769L166.569 152.59C166.933 152.354 167.236 152.037 167.455 151.664C167.675 151.291 167.804 150.872 167.833 150.44V134.666C167.833 133.882 167.268 133.544 166.569 133.944L154.335 141.007C153.637 141.407 153.072 141.086 153.072 140.285V139.783C153.072 138.998 152.515 138.653 151.816 139.053L145.483 142.71C145.12 142.946 144.817 143.263 144.597 143.636C144.378 144.009 144.249 144.428 144.22 144.86Z" fill="#00F0FF"/>
<path d="M148.37 167.657V168.889C148.37 169.485 148.794 169.729 149.312 169.43L165.132 160.296C165.406 160.116 165.634 159.875 165.797 159.592C165.961 159.308 166.056 158.99 166.074 158.664V157.432C166.074 156.835 165.65 156.592 165.132 156.89L149.312 166.025C149.037 166.203 148.809 166.444 148.645 166.728C148.482 167.012 148.387 167.33 148.37 167.657Z" fill="#E0E0E0"/>
<path d="M173.561 128.019V147.199C173.561 147.983 174.126 148.329 174.816 147.928L195.902 135.749C196.27 135.512 196.575 135.192 196.795 134.814C197.015 134.436 197.142 134.012 197.166 133.575V117.802C197.166 117.017 196.601 116.672 195.902 117.072L183.668 124.135C182.97 124.535 182.413 124.205 182.413 123.405V122.903C182.413 122.118 181.848 121.773 181.149 122.181L174.816 125.838C174.45 126.077 174.145 126.399 173.927 126.778C173.709 127.157 173.583 127.582 173.561 128.019Z" fill="#00F0FF"/>
<path d="M177.688 150.824V152.049C177.688 152.653 178.111 152.896 178.629 152.59L194.45 143.464C194.724 143.283 194.952 143.04 195.115 142.755C195.279 142.47 195.373 142.151 195.391 141.823V140.599C195.391 139.995 194.968 139.752 194.45 140.05L178.629 149.184C178.355 149.365 178.127 149.608 177.964 149.893C177.8 150.177 177.706 150.497 177.688 150.824Z" fill="#E0E0E0"/>
<path d="M203.211 71.7291V90.9085C203.211 91.6932 203.776 92.0385 204.467 91.6383L225.561 79.459C225.926 79.2194 226.231 78.897 226.449 78.518C226.667 78.139 226.793 77.714 226.816 77.2773V61.5117C226.816 60.7269 226.251 60.3816 225.561 60.7819L213.319 67.8446C212.628 68.2527 212.063 67.9231 212.063 67.1227V66.6204C212.063 65.8357 211.498 65.4904 210.799 65.8906L204.467 69.5554C204.101 69.7937 203.797 70.1147 203.579 70.4924C203.361 70.87 203.235 71.2937 203.211 71.7291Z" fill="#00F0FF"/>
<path d="M207.006 95.4528V96.6849C207.006 97.2813 207.43 97.5246 207.955 97.2264L223.784 88.0919C224.06 87.9145 224.29 87.674 224.455 87.3902C224.621 87.1064 224.716 86.7874 224.733 86.4596V85.2354C224.733 84.6311 224.31 84.3879 223.784 84.6861L207.971 93.8206C207.692 93.9962 207.459 94.2359 207.291 94.5198C207.123 94.8037 207.025 95.1236 207.006 95.4528Z" fill="#E0E0E0"/>
<path d="M232.182 55.8224V75.0018C232.182 75.7865 232.747 76.124 233.445 75.7237L254.531 63.5522C254.897 63.3127 255.201 62.9903 255.42 62.6113C255.638 62.2323 255.764 61.8073 255.787 61.3706V45.5971C255.787 44.8124 255.23 44.4671 254.531 44.8673L242.297 51.9301C241.599 52.3303 241.034 52.0007 241.034 51.2003V50.698C241.034 49.9133 240.476 49.5758 239.778 49.976L233.445 53.633C233.076 53.8715 232.769 54.1945 232.549 54.5752C232.329 54.9559 232.203 55.3834 232.182 55.8224Z" fill="#00F0FF"/>
<path d="M236.342 78.6194V79.8122C236.342 80.4165 236.758 80.6598 237.284 80.3616L253.104 71.2271C253.377 71.047 253.605 70.8057 253.768 70.5223C253.931 70.2389 254.027 69.9213 254.046 69.5948V68.3627C254.046 67.7585 253.622 67.5152 253.104 67.8212L237.284 76.9479C237.004 77.1309 236.773 77.3782 236.609 77.6691C236.445 77.9599 236.354 78.2858 236.342 78.6194Z" fill="#E0E0E0"/>
<path d="M207.006 133.96V135.192C207.006 135.788 207.43 136.032 207.955 135.733L223.784 126.607C224.06 126.429 224.29 126.189 224.455 125.905C224.621 125.621 224.716 125.302 224.733 124.974V123.758C224.733 123.162 224.31 122.918 223.784 123.217L207.971 132.351C207.695 132.524 207.464 132.76 207.296 133.04C207.128 133.319 207.029 133.635 207.006 133.96Z" fill="#E0E0E0"/>
<path d="M207.408 107.012L223.786 97.5397C224.532 97.1081 225.144 97.4612 225.144 98.3244V117.268C225.118 117.74 224.982 118.199 224.746 118.608C224.51 119.017 224.181 119.364 223.786 119.623L207.408 129.095C206.624 129.526 206.051 129.181 206.051 128.31V109.366C206.077 108.895 206.213 108.436 206.449 108.027C206.685 107.618 207.014 107.27 207.408 107.012Z" fill="#FAFAFA"/>
<path d="M206.795 129.675C206.603 129.677 206.413 129.628 206.246 129.534C206.047 129.401 205.888 129.217 205.784 129.002C205.681 128.787 205.637 128.548 205.657 128.31V109.366C205.685 108.824 205.841 108.297 206.114 107.829C206.388 107.36 206.769 106.964 207.227 106.674L223.636 97.202C223.831 97.0658 224.06 96.9851 224.298 96.9685C224.535 96.9519 224.773 97.0001 224.986 97.1078C225.184 97.2394 225.344 97.4214 225.449 97.6352C225.553 97.849 225.6 98.0867 225.582 98.3242V117.268C225.555 117.81 225.398 118.337 225.125 118.805C224.852 119.273 224.47 119.669 224.013 119.96L207.603 129.44C207.359 129.587 207.08 129.668 206.795 129.675ZM224.421 97.7513C224.275 97.757 224.134 97.8032 224.013 97.8847L207.603 107.357C207.267 107.578 206.987 107.875 206.785 108.224C206.584 108.573 206.466 108.964 206.442 109.366V128.31C206.442 128.584 206.513 128.78 206.638 128.851C206.734 128.883 206.836 128.891 206.936 128.874C207.036 128.858 207.13 128.817 207.211 128.757L223.62 119.285C223.956 119.06 224.235 118.762 224.436 118.412C224.638 118.062 224.756 117.671 224.782 117.268V98.3242C224.794 98.2242 224.781 98.1228 224.746 98.0285C224.71 97.9343 224.653 97.85 224.578 97.7827C224.529 97.7595 224.475 97.7487 224.421 97.7513Z" fill="#EBEBEB"/>
<path d="M225.747 100.098L222.09 102.209C221.693 102.467 221.363 102.814 221.126 103.223C220.888 103.632 220.751 104.091 220.725 104.563V108.785C220.725 109.657 221.337 110.01 222.09 109.57L225.747 107.459C226.142 107.201 226.471 106.853 226.707 106.444C226.943 106.035 227.079 105.576 227.105 105.105V100.883C227.105 100.02 226.493 99.6667 225.747 100.098Z" fill="#00F0FF"/>
<path d="M208.656 109.059L216.88 104.351C217.249 104.139 217.555 104.312 217.555 104.751V105.01C217.541 105.245 217.473 105.474 217.356 105.678C217.238 105.882 217.076 106.057 216.88 106.187L208.656 110.896C208.279 111.115 207.973 110.943 207.981 110.503V110.237C207.993 110.001 208.06 109.772 208.177 109.567C208.295 109.363 208.458 109.189 208.656 109.059Z" fill="#EBEBEB"/>
<path d="M208.656 112.772L216.88 108.063C217.249 107.843 217.555 108.024 217.555 108.455V108.714C217.543 108.95 217.475 109.179 217.358 109.384C217.241 109.588 217.077 109.762 216.88 109.892L208.656 114.6C208.279 114.82 207.973 114.6 207.981 114.208V113.933C207.995 113.7 208.064 113.474 208.181 113.272C208.298 113.071 208.46 112.899 208.656 112.772Z" fill="#EBEBEB"/>
<path d="M208.656 116.413L216.88 111.705C217.249 111.493 217.555 111.665 217.555 112.097V112.364C217.541 112.599 217.473 112.827 217.356 113.032C217.238 113.236 217.076 113.41 216.88 113.541L208.656 118.249C208.279 118.469 207.973 118.297 207.981 117.857V117.59C207.992 117.355 208.059 117.125 208.176 116.92C208.294 116.716 208.458 116.542 208.656 116.413Z" fill="#EBEBEB"/>
<path d="M208.656 120.086L222.31 112.238C222.687 112.026 222.993 112.238 222.993 112.63V112.897C222.979 113.133 222.911 113.363 222.792 113.567C222.673 113.772 222.508 113.945 222.31 114.074L208.656 121.922C208.279 122.134 207.973 121.961 207.981 121.529V121.255C207.994 121.021 208.062 120.793 208.179 120.59C208.296 120.387 208.459 120.214 208.656 120.086Z" fill="#EBEBEB"/>
<path d="M208.656 123.758L222.31 115.911C222.687 115.691 222.993 115.911 222.993 116.303V116.562C222.98 116.798 222.912 117.028 222.793 117.233C222.674 117.437 222.509 117.611 222.31 117.739L208.656 125.587C208.279 125.807 207.973 125.626 207.981 125.194V124.928C207.992 124.693 208.059 124.465 208.176 124.261C208.294 124.058 208.458 123.886 208.656 123.758Z" fill="#EBEBEB"/>
<path d="M235.697 117.41V118.634C235.697 119.238 236.121 119.481 236.639 119.183L252.46 110.049C252.735 109.869 252.963 109.626 253.127 109.341C253.29 109.056 253.384 108.737 253.401 108.409V107.184C253.401 106.58 252.985 106.337 252.46 106.635L236.639 115.77C236.365 115.95 236.137 116.193 235.973 116.478C235.81 116.763 235.715 117.082 235.697 117.41Z" fill="#E0E0E0"/>
<path d="M236.098 90.4532L252.499 80.9813C253.284 80.5418 253.865 80.895 253.865 81.7661V100.71C253.837 101.182 253.699 101.641 253.462 102.05C253.225 102.458 252.895 102.806 252.499 103.064L236.098 112.536C235.313 112.968 234.732 112.615 234.732 111.751V92.8075C234.758 92.3352 234.895 91.8757 235.133 91.4665C235.37 91.0573 235.701 90.7101 236.098 90.4532Z" fill="#FAFAFA"/>
<path d="M235.485 113.109C235.293 113.111 235.104 113.062 234.936 112.968C234.738 112.837 234.578 112.654 234.473 112.441C234.368 112.227 234.322 111.989 234.34 111.752V92.8079C234.366 92.265 234.522 91.7365 234.795 91.2666C235.068 90.7968 235.45 90.3995 235.909 90.1083L252.31 80.6364C252.501 80.4867 252.733 80.3976 252.975 80.3807C253.217 80.3637 253.459 80.4196 253.669 80.5411C253.879 80.6626 254.048 80.8442 254.154 81.0626C254.26 81.281 254.299 81.5261 254.264 81.7664V100.71C254.238 101.252 254.081 101.779 253.808 102.248C253.535 102.716 253.153 103.112 252.695 103.402L236.294 112.874C236.049 113.021 235.771 113.103 235.485 113.109ZM236.27 90.7911C235.932 91.0133 235.65 91.3113 235.447 91.6614C235.244 92.0115 235.126 92.404 235.101 92.8079V111.752C235.089 111.852 235.101 111.953 235.137 112.047C235.172 112.142 235.23 112.226 235.305 112.293C235.401 112.325 235.504 112.332 235.604 112.315C235.704 112.297 235.798 112.254 235.878 112.191L252.279 102.719C252.616 102.498 252.898 102.202 253.101 101.853C253.304 101.504 253.423 101.113 253.448 100.71V81.7664C253.491 81.664 253.494 81.5495 253.459 81.4445C253.423 81.3396 253.35 81.2513 253.253 81.1964C253.157 81.1414 253.044 81.1236 252.935 81.1462C252.827 81.1688 252.73 81.2303 252.663 81.3191L236.27 90.7911Z" fill="#EBEBEB"/>
<path d="M254.429 83.5394L250.772 85.6504C250.376 85.9086 250.047 86.2563 249.812 86.6653C249.576 87.0743 249.44 87.5332 249.414 88.0046V92.2266C249.414 93.0898 250.026 93.443 250.772 93.0114L254.429 90.9004C254.825 90.6421 255.154 90.2946 255.391 89.8857C255.629 89.4768 255.767 89.018 255.794 88.5461V84.3242C255.794 83.4531 255.174 83.0999 254.429 83.5394Z" fill="#00F0FF"/>
<path d="M237.345 92.4936L245.561 87.7851C245.938 87.5654 246.244 87.7851 246.244 88.1775V88.4443C246.232 88.6808 246.164 88.911 246.046 89.1158C245.927 89.3206 245.761 89.494 245.561 89.6214L237.345 94.33C236.968 94.5497 236.662 94.3692 236.662 93.9376V93.6629C236.677 93.4283 236.746 93.2003 236.865 92.9973C236.983 92.7942 237.148 92.6218 237.345 92.4936Z" fill="#EBEBEB"/>
<path d="M237.345 96.1743L245.561 91.4658C245.938 91.2539 246.244 91.4658 246.244 91.8582V92.125C246.23 92.361 246.162 92.5905 246.043 92.795C245.924 92.9995 245.759 93.1732 245.561 93.3021L237.345 98.0106C236.968 98.2304 236.662 98.0577 236.662 97.6183V97.3515C236.675 97.1153 236.744 96.8855 236.862 96.6809C236.981 96.4763 237.146 96.3028 237.345 96.1743Z" fill="#EBEBEB"/>
<path d="M237.345 99.8469L245.561 95.1384C245.938 94.9187 246.244 95.1384 246.244 95.5308V95.7897C246.231 96.0259 246.162 96.2557 246.044 96.4602C245.925 96.6648 245.76 96.8384 245.561 96.9669L237.345 101.675C236.968 101.887 236.662 101.715 236.662 101.283V101C236.679 100.769 236.75 100.544 236.868 100.344C236.987 100.143 237.15 99.9735 237.345 99.8469Z" fill="#EBEBEB"/>
<path d="M237.345 103.527L251 95.6798C251.376 95.46 251.682 95.6405 251.682 96.0721V96.2919C251.669 96.5279 251.6 96.7574 251.481 96.9619C251.363 97.1664 251.198 97.3401 251 97.469L237.345 105.317C236.968 105.536 236.662 105.356 236.662 104.924V104.657C236.681 104.429 236.752 104.208 236.871 104.012C236.989 103.816 237.152 103.65 237.345 103.527Z" fill="#EBEBEB"/>
<path d="M237.345 107.2L251 99.3526C251.376 99.1407 251.682 99.3134 251.682 99.745V100.012C251.669 100.248 251.6 100.477 251.481 100.682C251.363 100.886 251.198 101.06 251 101.189L237.345 109.036C236.968 109.248 236.662 109.076 236.662 108.644V108.369C236.677 108.135 236.746 107.907 236.865 107.704C236.983 107.501 237.148 107.328 237.345 107.2Z" fill="#EBEBEB"/>
<path d="M207.006 173.065V174.297C207.006 174.893 207.43 175.136 207.955 174.838L223.784 165.704C224.06 165.526 224.29 165.286 224.455 165.002C224.621 164.718 224.716 164.399 224.733 164.071V162.839C224.733 162.243 224.31 162 223.784 162.298L207.971 171.432C207.692 171.608 207.459 171.848 207.291 172.132C207.123 172.415 207.025 172.735 207.006 173.065Z" fill="#E0E0E0"/>
<path d="M207.409 146.108L223.786 136.636C224.532 136.205 225.144 136.558 225.144 137.421V156.365C225.117 156.836 224.981 157.294 224.745 157.703C224.509 158.112 224.181 158.46 223.786 158.719L207.377 168.191C206.592 168.623 206.02 168.277 206.02 167.406V148.462C206.048 147.988 206.189 147.527 206.43 147.118C206.672 146.708 207.007 146.362 207.409 146.108Z" fill="#FAFAFA"/>
<path d="M206.794 168.772C206.602 168.773 206.413 168.725 206.245 168.63C206.048 168.496 205.889 168.313 205.786 168.098C205.682 167.883 205.638 167.644 205.657 167.406V148.462C205.684 147.921 205.841 147.394 206.114 146.925C206.387 146.457 206.768 146.061 207.226 145.77L223.62 136.314C223.81 136.168 224.04 136.082 224.28 136.066C224.52 136.05 224.759 136.106 224.967 136.226C225.175 136.346 225.343 136.525 225.45 136.74C225.556 136.956 225.597 137.198 225.566 137.436V156.38C225.538 156.922 225.382 157.449 225.109 157.917C224.835 158.385 224.454 158.782 223.996 159.072L207.587 168.544C207.346 168.685 207.074 168.764 206.794 168.772ZM224.42 136.84C224.275 136.849 224.134 136.895 224.012 136.973L207.603 146.453C207.266 146.674 206.985 146.971 206.784 147.32C206.582 147.669 206.465 148.06 206.441 148.462V167.406C206.399 167.508 206.395 167.623 206.431 167.728C206.467 167.833 206.54 167.921 206.636 167.976C206.733 168.031 206.846 168.049 206.954 168.026C207.063 168.004 207.16 167.942 207.226 167.853L223.635 158.381C223.971 158.157 224.25 157.858 224.451 157.509C224.653 157.159 224.771 156.767 224.797 156.365V137.421C224.809 137.321 224.796 137.219 224.761 137.125C224.725 137.031 224.668 136.946 224.593 136.879C224.54 136.851 224.48 136.837 224.42 136.84Z" fill="#EBEBEB"/>
<path d="M225.747 139.194L222.09 141.305C221.693 141.563 221.363 141.91 221.126 142.319C220.888 142.728 220.751 143.187 220.725 143.659V147.881C220.725 148.752 221.337 149.098 222.09 148.666L225.747 146.555C226.142 146.297 226.471 145.949 226.707 145.54C226.943 145.131 227.079 144.672 227.105 144.201V139.979C227.105 139.116 226.493 138.763 225.747 139.194Z" fill="#00F0FF"/>
<path d="M208.656 148.156L216.88 143.448C217.249 143.236 217.555 143.408 217.555 143.84V144.107C217.541 144.342 217.473 144.57 217.356 144.775C217.238 144.979 217.076 145.153 216.88 145.284L208.656 149.992C208.279 150.212 207.973 150.039 207.981 149.6V149.333C207.992 149.098 208.059 148.868 208.176 148.663C208.294 148.459 208.458 148.285 208.656 148.156Z" fill="#EBEBEB"/>
<path d="M208.656 151.828L216.88 147.12C217.249 146.9 217.555 147.081 217.555 147.512V147.771C217.542 148.007 217.474 148.236 217.357 148.44C217.24 148.645 217.076 148.819 216.88 148.948L208.656 153.657C208.279 153.869 207.973 153.696 207.981 153.265V152.99C207.995 152.757 208.064 152.531 208.181 152.329C208.298 152.128 208.46 151.956 208.656 151.828Z" fill="#EBEBEB"/>
<path d="M208.656 155.509L216.88 150.8C217.249 150.588 217.555 150.761 217.555 151.193V151.46C217.541 151.695 217.473 151.923 217.356 152.127C217.238 152.332 217.076 152.506 216.88 152.637L208.656 157.345C208.279 157.565 207.973 157.384 207.981 156.953V156.717C207.986 156.476 208.05 156.24 208.168 156.029C208.285 155.818 208.453 155.64 208.656 155.509Z" fill="#EBEBEB"/>
<path d="M208.656 159.182L222.31 151.334C222.687 151.122 222.993 151.295 222.993 151.726V152.009C222.979 152.245 222.911 152.474 222.792 152.679C222.673 152.883 222.508 153.057 222.31 153.186L208.656 161.034C208.279 161.245 207.973 161.073 207.981 160.641V160.367C207.991 160.13 208.058 159.899 208.176 159.693C208.293 159.487 208.457 159.312 208.656 159.182Z" fill="#EBEBEB"/>
<path d="M208.656 162.862L222.31 155.015C222.687 154.795 222.993 154.968 222.993 155.407V155.666C222.979 155.902 222.911 156.132 222.792 156.336C222.673 156.541 222.508 156.714 222.31 156.843L208.656 164.691C208.279 164.91 207.973 164.73 207.981 164.298V164.031C207.992 163.797 208.059 163.568 208.176 163.365C208.294 163.162 208.458 162.989 208.656 162.862Z" fill="#EBEBEB"/>
<path d="M235.697 156.498V157.73C235.697 158.334 236.121 158.577 236.639 158.271L252.46 149.145C252.735 148.965 252.963 148.722 253.127 148.437C253.29 148.152 253.384 147.833 253.401 147.505V146.28C253.401 145.676 252.985 145.433 252.46 145.731L236.639 154.866C236.366 155.046 236.139 155.287 235.975 155.57C235.812 155.854 235.716 156.171 235.697 156.498Z" fill="#E0E0E0"/>
<path d="M236.098 129.55L252.499 120.078C253.284 119.638 253.865 119.991 253.865 120.862V139.799C253.839 140.271 253.702 140.73 253.464 141.14C253.227 141.549 252.896 141.896 252.499 142.153L236.098 151.633C235.313 152.064 234.732 151.711 234.732 150.848V131.904C234.758 131.432 234.895 130.972 235.133 130.563C235.37 130.154 235.701 129.807 236.098 129.55Z" fill="#FAFAFA"/>
<path d="M235.485 152.205C235.293 152.207 235.104 152.158 234.936 152.064C234.738 151.932 234.578 151.75 234.473 151.537C234.368 151.323 234.322 151.085 234.34 150.848V131.904C234.365 131.361 234.521 130.832 234.794 130.362C235.067 129.892 235.45 129.495 235.909 129.204L252.31 119.732C252.501 119.583 252.733 119.494 252.975 119.477C253.217 119.46 253.459 119.515 253.669 119.637C253.879 119.759 254.048 119.94 254.154 120.159C254.26 120.377 254.299 120.622 254.264 120.862V139.798C254.239 140.341 254.083 140.87 253.81 141.34C253.537 141.81 253.154 142.207 252.695 142.498L236.294 152.009C236.045 152.143 235.767 152.21 235.485 152.205ZM236.27 129.887C235.932 130.109 235.65 130.407 235.447 130.757C235.244 131.107 235.126 131.5 235.101 131.904V150.848C235.087 150.947 235.099 151.047 235.135 151.141C235.17 151.234 235.229 151.317 235.305 151.381C235.4 151.415 235.503 151.424 235.603 151.408C235.703 151.391 235.798 151.35 235.878 151.287L252.302 141.807C252.641 141.585 252.922 141.287 253.125 140.937C253.328 140.587 253.447 140.194 253.472 139.791V120.862C253.514 120.76 253.518 120.645 253.482 120.54C253.446 120.436 253.373 120.347 253.277 120.292C253.18 120.237 253.067 120.22 252.959 120.242C252.85 120.265 252.753 120.326 252.687 120.415L236.27 129.887Z" fill="#EBEBEB"/>
<path d="M254.429 122.636L250.772 124.747C250.376 125.006 250.047 125.353 249.812 125.762C249.576 126.171 249.44 126.63 249.414 127.102V131.324C249.414 132.187 250.026 132.54 250.772 132.108L254.429 129.997C254.825 129.739 255.154 129.392 255.391 128.983C255.629 128.574 255.767 128.115 255.794 127.643V123.421C255.794 122.55 255.174 122.189 254.429 122.636Z" fill="#00F0FF"/>
<path d="M237.345 131.605L245.561 126.897C245.938 126.677 246.244 126.858 246.244 127.289V127.548C246.231 127.784 246.162 128.014 246.044 128.219C245.925 128.423 245.76 128.597 245.561 128.725L237.345 133.434C236.968 133.646 236.662 133.434 236.662 133.041V132.767C236.678 132.533 236.748 132.307 236.866 132.105C236.985 131.904 237.149 131.733 237.345 131.605Z" fill="#EBEBEB"/>
<path d="M237.345 135.271L245.561 130.562C245.938 130.35 246.244 130.562 246.244 130.954V131.221C246.23 131.457 246.162 131.687 246.043 131.891C245.924 132.096 245.759 132.269 245.561 132.398L237.345 137.107C236.968 137.327 236.662 137.146 236.662 136.714V136.448C236.674 136.211 236.742 135.981 236.861 135.776C236.979 135.571 237.145 135.398 237.345 135.271Z" fill="#EBEBEB"/>
<path d="M237.345 138.943L245.561 134.235C245.938 134.015 246.244 134.188 246.244 134.627V134.886C246.23 135.122 246.162 135.352 246.043 135.556C245.924 135.761 245.759 135.934 245.561 136.063L237.345 140.772C236.968 140.984 236.662 140.811 236.662 140.379V140.105C236.678 139.871 236.748 139.645 236.866 139.443C236.985 139.242 237.149 139.07 237.345 138.943Z" fill="#EBEBEB"/>
<path d="M237.345 142.592L251 134.744C251.376 134.525 251.682 134.697 251.682 135.137V135.396C251.669 135.632 251.6 135.861 251.481 136.066C251.363 136.27 251.198 136.444 251 136.573L237.345 144.42C236.968 144.64 236.662 144.46 236.662 144.028V143.761C236.675 143.526 236.744 143.297 236.862 143.094C236.981 142.891 237.146 142.719 237.345 142.592Z" fill="#EBEBEB"/>
<path d="M237.345 146.297L251 138.449C251.376 138.229 251.682 138.41 251.682 138.841V139.1C251.671 139.337 251.603 139.567 251.484 139.772C251.365 139.977 251.199 140.15 251 140.278L237.345 148.125C236.968 148.337 236.662 148.164 236.662 147.733V147.458C236.678 147.225 236.748 146.998 236.866 146.797C236.985 146.595 237.149 146.424 237.345 146.297Z" fill="#EBEBEB"/>
<path d="M148.37 206.942V208.166C148.37 208.77 148.794 209.014 149.32 208.715L165.132 199.581C165.408 199.403 165.638 199.163 165.803 198.879C165.968 198.595 166.064 198.276 166.082 197.949V196.74C166.082 196.136 165.658 195.893 165.132 196.199L149.32 205.325C149.047 205.503 148.819 205.741 148.654 206.022C148.489 206.302 148.392 206.617 148.37 206.942Z" fill="#E0E0E0"/>
<path d="M148.771 179.986L165.18 170.514C165.965 170.082 166.537 170.427 166.537 171.298V190.242C166.51 190.713 166.373 191.172 166.138 191.58C165.902 191.989 165.574 192.337 165.18 192.597L148.771 202.069C147.986 202.5 147.413 202.147 147.413 201.284V182.34C147.437 181.868 147.573 181.409 147.809 181C148.045 180.59 148.375 180.243 148.771 179.986Z" fill="#FAFAFA"/>
<path d="M148.161 202.641C147.968 202.643 147.779 202.594 147.611 202.5C147.414 202.368 147.255 202.186 147.152 201.972C147.048 201.758 147.004 201.521 147.023 201.284V182.34C147.05 181.798 147.207 181.271 147.48 180.803C147.753 180.335 148.135 179.939 148.592 179.648L165.002 170.176C165.191 170.026 165.422 169.936 165.663 169.918C165.905 169.901 166.146 169.956 166.356 170.077C166.565 170.198 166.734 170.379 166.839 170.596C166.945 170.814 166.983 171.059 166.948 171.298V190.242C166.92 190.784 166.764 191.311 166.491 191.779C166.217 192.248 165.836 192.644 165.378 192.934L148.969 202.406C148.725 202.553 148.446 202.635 148.161 202.641ZM148.969 180.323C148.632 180.546 148.352 180.845 148.151 181.195C147.949 181.545 147.832 181.937 147.808 182.34V201.284C147.765 201.386 147.761 201.501 147.797 201.606C147.833 201.711 147.906 201.799 148.003 201.854C148.099 201.909 148.212 201.927 148.321 201.904C148.429 201.881 148.526 201.82 148.592 201.731L165.002 192.251C165.337 192.028 165.616 191.731 165.817 191.383C166.019 191.034 166.137 190.644 166.163 190.242V171.298C166.206 171.196 166.209 171.082 166.173 170.977C166.137 170.872 166.064 170.783 165.968 170.728C165.872 170.673 165.759 170.656 165.65 170.678C165.541 170.701 165.445 170.762 165.378 170.851L148.969 180.323Z" fill="#EBEBEB"/>
<path d="M167.11 173.072L163.453 175.183C163.056 175.44 162.725 175.787 162.488 176.197C162.251 176.606 162.114 177.065 162.088 177.538V181.76C162.088 182.623 162.7 182.976 163.453 182.544L167.11 180.433C167.505 180.174 167.833 179.826 168.069 179.417C168.305 179.009 168.441 178.55 168.468 178.079V173.857C168.468 172.986 167.856 172.641 167.11 173.072Z" fill="#00F0FF"/>
<path d="M150.02 182.034L158.244 177.326C158.613 177.106 158.919 177.286 158.919 177.718V177.977C158.907 178.212 158.839 178.442 158.722 178.646C158.605 178.851 158.441 179.025 158.244 179.154L150.02 183.862C149.643 184.082 149.345 183.862 149.345 183.47V183.203C149.356 182.969 149.423 182.74 149.541 182.537C149.658 182.334 149.822 182.161 150.02 182.034Z" fill="#EBEBEB"/>
<path d="M150.02 185.707L158.244 180.998C158.613 180.786 158.919 180.959 158.919 181.398V181.657C158.905 181.892 158.837 182.121 158.72 182.325C158.603 182.529 158.44 182.704 158.244 182.834L150.02 187.543C149.643 187.755 149.345 187.543 149.345 187.151V186.876C149.358 186.642 149.426 186.414 149.543 186.211C149.66 186.008 149.824 185.835 150.02 185.707Z" fill="#EBEBEB"/>
<path d="M150.02 189.387L158.244 184.678C158.613 184.458 158.919 184.639 158.919 185.07V185.329C158.907 185.565 158.839 185.794 158.722 185.999C158.605 186.203 158.441 186.377 158.244 186.507L150.02 191.246C149.643 191.466 149.345 191.246 149.345 190.854V190.579C149.352 190.341 149.418 190.108 149.535 189.9C149.653 189.692 149.819 189.516 150.02 189.387Z" fill="#EBEBEB"/>
<path d="M150.02 193.059L163.674 185.212C164.051 184.992 164.357 185.212 164.357 185.604V185.863C164.345 186.1 164.277 186.33 164.159 186.535C164.04 186.74 163.874 186.913 163.674 187.04L150.02 194.888C149.643 195.108 149.345 194.935 149.345 194.496V194.229C149.358 193.995 149.426 193.767 149.543 193.564C149.66 193.361 149.824 193.188 150.02 193.059Z" fill="#EBEBEB"/>
<path d="M150.02 196.74L163.674 188.892C164.051 188.68 164.357 188.892 164.357 189.284V189.551C164.344 189.787 164.275 190.017 164.156 190.221C164.038 190.426 163.872 190.6 163.674 190.728L150.02 198.576C149.643 198.788 149.345 198.615 149.345 198.184V197.909C149.358 197.675 149.426 197.447 149.543 197.244C149.66 197.041 149.824 196.868 150.02 196.74Z" fill="#EBEBEB"/>
<path d="M177.061 190.376V191.608C177.061 192.204 177.484 192.455 178.002 192.149L193.823 183.015C194.099 182.837 194.328 182.597 194.492 182.313C194.656 182.029 194.749 181.71 194.765 181.382V180.158C194.765 179.554 194.349 179.311 193.823 179.609L178.002 188.743C177.729 188.923 177.501 189.164 177.338 189.448C177.174 189.731 177.079 190.049 177.061 190.376Z" fill="#E0E0E0"/>
<path d="M177.483 163.419L193.884 153.947C194.669 153.516 195.249 153.869 195.249 154.732V173.676C195.224 174.148 195.087 174.608 194.849 175.017C194.612 175.426 194.281 175.773 193.884 176.03L177.483 185.502C176.698 185.942 176.117 185.589 176.117 184.717V165.774C176.145 165.302 176.283 164.843 176.52 164.434C176.757 164.025 177.087 163.678 177.483 163.419Z" fill="#FAFAFA"/>
<path d="M176.847 186.083C176.654 186.085 176.465 186.036 176.297 185.942C176.099 185.808 175.939 185.625 175.834 185.41C175.73 185.195 175.684 184.956 175.701 184.717V165.774C175.729 165.232 175.886 164.705 176.159 164.237C176.432 163.769 176.813 163.373 177.27 163.082L193.664 153.579C193.854 153.43 194.085 153.341 194.326 153.324C194.568 153.307 194.808 153.362 195.018 153.482C195.228 153.603 195.397 153.783 195.504 154C195.611 154.217 195.65 154.461 195.618 154.701V173.645C195.592 174.187 195.436 174.714 195.163 175.183C194.89 175.652 194.507 176.047 194.048 176.336L177.647 185.816C177.408 185.973 177.132 186.065 176.847 186.083ZM194.472 154.159C194.324 154.163 194.179 154.21 194.056 154.293L177.655 163.78C177.317 164.001 177.036 164.298 176.833 164.647C176.63 164.995 176.511 165.387 176.486 165.789V184.733C176.472 184.833 176.483 184.935 176.519 185.03C176.554 185.125 176.613 185.209 176.69 185.275C176.786 185.306 176.888 185.314 176.988 185.298C177.087 185.281 177.182 185.241 177.262 185.18L193.664 175.709C194.001 175.486 194.283 175.188 194.486 174.838C194.689 174.488 194.808 174.095 194.833 173.692V154.732C194.845 154.632 194.833 154.531 194.797 154.436C194.762 154.342 194.704 154.258 194.629 154.191C194.58 154.168 194.526 154.158 194.472 154.159Z" fill="#EBEBEB"/>
<path d="M195.792 156.505L192.135 158.616C191.741 158.876 191.413 159.224 191.177 159.633C190.942 160.042 190.805 160.5 190.777 160.971V165.193C190.777 166.064 191.389 166.417 192.135 165.977L195.792 163.866C196.189 163.61 196.52 163.262 196.757 162.853C196.995 162.444 197.132 161.985 197.157 161.512V157.29C197.157 156.427 196.545 156.074 195.792 156.505Z" fill="#00F0FF"/>
<path d="M178.71 165.468L186.926 160.76C187.303 160.548 187.609 160.72 187.609 161.16V161.427C187.596 161.663 187.527 161.892 187.408 162.097C187.29 162.301 187.125 162.475 186.926 162.604L178.71 167.312C178.333 167.524 178.027 167.352 178.027 166.912V166.645C178.041 166.409 178.11 166.18 178.228 165.975C178.347 165.771 178.512 165.597 178.71 165.468Z" fill="#EBEBEB"/>
<path d="M178.71 169.148L186.926 164.439C187.303 164.219 187.609 164.4 187.609 164.831V165.09C187.598 165.327 187.53 165.557 187.411 165.762C187.292 165.967 187.126 166.14 186.926 166.268L178.71 170.976C178.333 171.196 178.027 171.015 178.027 170.584V170.309C178.041 170.075 178.111 169.848 178.229 169.646C178.348 169.444 178.513 169.274 178.71 169.148Z" fill="#EBEBEB"/>
<path d="M178.71 172.82L186.926 168.112C187.303 167.9 187.609 168.073 187.609 168.504V168.771C187.596 169.007 187.527 169.237 187.408 169.441C187.29 169.646 187.125 169.819 186.926 169.948L178.71 174.657C178.333 174.876 178.027 174.704 178.027 174.264V173.982C178.043 173.749 178.113 173.522 178.232 173.321C178.35 173.119 178.514 172.948 178.71 172.82Z" fill="#EBEBEB"/>
<path d="M178.71 176.494L192.365 168.646C192.741 168.434 193.047 168.607 193.047 169.038V169.274C193.034 169.51 192.965 169.739 192.847 169.944C192.728 170.148 192.563 170.322 192.365 170.451L178.71 178.298C178.333 178.51 178.027 178.338 178.027 177.906V177.631C178.047 177.402 178.118 177.181 178.237 176.983C178.355 176.786 178.517 176.619 178.71 176.494Z" fill="#EBEBEB"/>
<path d="M178.71 180.174L192.365 172.327C192.741 172.107 193.047 172.287 193.047 172.719V172.978C193.035 173.214 192.966 173.444 192.847 173.649C192.729 173.853 192.563 174.027 192.365 174.155L178.71 182.003C178.333 182.222 178.027 182.003 178.027 181.61V181.344C178.04 181.108 178.109 180.88 178.227 180.676C178.346 180.473 178.512 180.301 178.71 180.174Z" fill="#EBEBEB"/>
<path d="M102.785 105.638L99.5986 103.778V118.508L102.785 120.352V105.638Z" fill="#00F0FF"/>
<path opacity="0.1" d="M102.785 105.638L99.5986 103.778V118.508L102.785 120.352V105.638Z" fill="black"/>
<path d="M291.065 166.503C290.702 166.338 290.303 166.272 289.906 166.311C289.509 166.349 289.13 166.491 288.805 166.723C287.879 167.324 287.107 168.135 286.551 169.089C285.995 170.043 285.671 171.114 285.603 172.216C285.561 172.612 285.625 173.013 285.788 173.376C285.95 173.74 286.206 174.055 286.529 174.288L326.254 199.4C327.038 199.949 328.223 199.918 329.518 199.172C330.819 198.33 331.903 197.192 332.682 195.851C333.461 194.511 333.912 193.006 333.999 191.458C333.999 189.967 333.45 188.939 332.571 188.507L291.065 166.503Z" fill="#00F0FF"/>
<path opacity="0.15" d="M285.603 172.247C285.603 174.28 287.023 175.112 288.789 174.099C289.715 173.498 290.487 172.687 291.043 171.733C291.599 170.779 291.923 169.708 291.99 168.606C291.99 166.574 290.57 165.742 288.804 166.754C287.878 167.356 287.106 168.166 286.55 169.12C285.994 170.074 285.67 171.145 285.603 172.247Z" fill="black"/>
<path d="M276.812 161.222C276.248 161.587 275.779 162.08 275.442 162.661C275.105 163.242 274.91 163.894 274.874 164.565C274.849 164.803 274.887 165.044 274.985 165.263C275.083 165.482 275.236 165.672 275.431 165.813L287.422 172.773C287.639 172.874 287.88 172.915 288.119 172.892C288.358 172.869 288.586 172.781 288.779 172.64C289.349 172.275 289.823 171.779 290.161 171.193C290.5 170.607 290.693 169.949 290.726 169.273C290.754 169.033 290.717 168.79 290.619 168.569C290.521 168.348 290.365 168.158 290.168 168.018L278.177 161.057C277.956 160.96 277.712 160.925 277.472 160.954C277.232 160.983 277.004 161.075 276.812 161.222Z" fill="#263238"/>
<path opacity="0.1" d="M290.287 172.797L331.157 197.909C330.673 198.411 330.124 198.846 329.525 199.204C328.23 199.949 327.069 199.988 326.252 199.431L286.536 174.319C286.897 174.486 287.296 174.554 287.692 174.515C288.088 174.476 288.466 174.333 288.788 174.099C289.359 173.754 289.866 173.314 290.287 172.797Z" fill="black"/>
<path d="M297.147 137.043C297.147 136.706 297.147 136.384 297.1 136.055C297.053 135.725 297.061 135.403 297.021 135.082C296.982 134.76 296.982 134.658 296.959 134.446C296.904 133.881 296.817 133.332 296.731 132.806C296.684 132.57 296.645 132.319 296.598 132.084C296.551 131.848 296.503 131.637 296.456 131.409C296.315 130.805 296.174 130.208 296.001 129.643C295.907 129.376 295.829 129.102 295.734 128.858C295.719 128.817 295.706 128.776 295.695 128.733C295.593 128.466 295.507 128.215 295.405 127.948C295.299 127.66 295.178 127.377 295.044 127.101C294.958 126.894 294.861 126.692 294.753 126.496C294.697 126.348 294.626 126.206 294.542 126.073C294.463 125.9 294.369 125.727 294.275 125.563L294.204 125.445C294.126 125.296 294.031 125.154 293.945 125.005C293.859 124.856 293.82 124.817 293.765 124.723C293.342 124.061 292.869 123.431 292.352 122.839C292.258 122.745 292.172 122.643 292.085 122.549C291.999 122.455 291.936 122.392 291.866 122.314L291.575 122.031C291.308 121.751 291.022 121.489 290.72 121.246C290.583 121.125 290.439 121.013 290.288 120.909C290.139 120.791 289.99 120.681 289.833 120.579C289.6 120.405 289.356 120.246 289.103 120.101L288.907 119.975H288.868L280.236 114.961L280.173 114.921C277.939 113.675 275.417 113.037 272.859 113.069C269.045 113.069 264.745 114.325 260.185 116.954C244.49 125.994 231.824 147.983 231.824 166.079C231.824 175.096 234.963 181.437 240.08 184.411H240.127L248.759 189.418H248.806L248.947 189.496C249.175 189.622 249.395 189.739 249.622 189.849C249.85 189.959 250.187 190.108 250.478 190.226C250.768 190.344 250.996 190.43 251.263 190.509C251.4 190.561 251.542 190.603 251.686 190.634C251.831 190.693 251.981 190.738 252.134 190.768L252.597 190.885C252.707 190.916 252.82 190.94 252.934 190.956L253.546 191.066H253.687L254.425 191.16C258.655 191.607 263.567 190.414 268.825 187.385C284.52 178.337 297.186 156.34 297.186 138.26C297.17 137.883 297.163 137.475 297.147 137.043ZM278.148 124.252C278.762 126.502 279.063 128.826 279.043 131.158C279.043 147.112 267.366 167.327 253.554 175.3C251.538 176.501 249.36 177.407 247.088 177.992C246.473 175.739 246.172 173.413 246.193 171.078C246.193 155.124 257.862 134.909 271.682 126.936C273.698 125.736 275.875 124.832 278.148 124.252Z" fill="#00F0FF"/>
<path opacity="0.1" d="M248.351 189.221L240.033 184.403C234.932 181.421 231.777 175.072 231.777 166.071C231.777 158.004 234.304 149.168 238.487 141.045L247.119 146.06C242.929 154.174 240.402 163.018 240.402 171.086C240.433 179.906 243.407 186.161 248.351 189.221Z" fill="black"/>
<path opacity="0.4" d="M297.146 137.044C297.146 136.707 297.146 136.385 297.099 136.055C297.052 135.726 297.06 135.404 297.02 135.082C296.981 134.76 296.981 134.658 296.958 134.446C296.903 133.881 296.816 133.332 296.73 132.806C296.683 132.571 296.644 132.32 296.597 132.084C296.55 131.849 296.502 131.637 296.455 131.41C296.314 130.805 296.173 130.209 296 129.644C295.906 129.377 295.828 129.102 295.733 128.859C295.718 128.818 295.705 128.776 295.694 128.733C295.592 128.467 295.506 128.216 295.404 127.949C295.298 127.66 295.177 127.377 295.043 127.101C294.957 126.895 294.86 126.693 294.752 126.497C294.696 126.349 294.625 126.207 294.541 126.073C294.462 125.901 294.368 125.728 294.274 125.563L294.203 125.445C294.125 125.296 294.03 125.155 293.944 125.006C293.858 124.857 293.819 124.818 293.764 124.723C293.341 124.061 292.868 123.432 292.351 122.84C292.257 122.746 292.171 122.644 292.084 122.55C291.998 122.455 291.935 122.393 291.865 122.314L291.574 122.032C291.307 121.751 291.021 121.489 290.719 121.247C290.582 121.126 290.438 121.013 290.287 120.91C290.138 120.792 289.989 120.682 289.832 120.58C289.599 120.406 289.355 120.246 289.102 120.101C283.954 116.962 276.546 117.041 268.809 121.93C253.263 131.723 240.518 153.437 240.44 171.055C240.401 180.221 243.689 186.617 248.939 189.528C249.166 189.654 249.386 189.771 249.614 189.881C249.841 189.991 250.179 190.14 250.469 190.258C250.759 190.376 250.987 190.462 251.254 190.541C251.392 190.593 251.533 190.635 251.677 190.666C251.822 190.725 251.972 190.77 252.125 190.799L252.588 190.917C252.699 190.948 252.811 190.972 252.925 190.988L253.537 191.098H253.679L254.416 191.192C258.646 191.639 263.559 190.446 268.816 187.417C284.511 178.369 297.177 156.372 297.177 138.292C297.169 137.884 297.162 137.476 297.146 137.044ZM265.929 182.481C262.413 184.514 259.031 185.581 256.135 185.581C250.704 185.581 248.209 181.877 247.087 177.992C246.472 175.74 246.171 173.413 246.192 171.079C246.192 155.125 257.861 134.909 271.681 126.936C273.697 125.737 275.874 124.833 278.147 124.253C279.236 123.986 280.353 123.846 281.474 123.837C290.452 123.837 291.409 133.976 291.409 138.339C291.409 154.293 279.748 174.508 265.929 182.481Z" fill="white"/>
<path opacity="0.1" d="M291.411 138.338C291.411 154.285 279.749 174.508 265.93 182.481C262.414 184.513 259.032 185.58 256.144 185.58C254.882 185.631 253.624 185.394 252.467 184.887C251.31 184.38 250.284 183.616 249.466 182.653C249.324 182.488 249.191 182.316 249.058 182.143C248.924 181.971 248.799 181.79 248.689 181.602C248.6 181.473 248.519 181.339 248.445 181.202C248.391 181.115 248.336 181.029 248.289 180.943C248.241 180.856 248.179 180.723 248.116 180.613C248.053 180.503 248.014 180.409 247.967 180.307C247.92 180.205 247.865 180.103 247.818 179.993L247.582 179.428C247.488 179.193 247.402 178.957 247.323 178.714C247.245 178.471 247.158 178.235 247.096 177.992C249.368 177.407 251.546 176.501 253.562 175.3C267.374 167.327 279.051 147.112 279.051 131.158C279.071 128.826 278.77 126.502 278.156 124.252C279.245 123.985 280.362 123.846 281.483 123.836C281.921 123.838 282.359 123.864 282.794 123.915L283.202 123.977C290.571 125.202 291.411 134.273 291.411 138.338Z" fill="black"/>
<path opacity="0.7" d="M286.451 135.529C286.451 151.483 274.79 171.699 260.97 179.672C257.454 181.704 254.072 182.811 251.176 182.811C250.601 182.813 250.026 182.766 249.458 182.669C249.317 182.505 249.183 182.332 249.05 182.159C248.916 181.987 248.791 181.806 248.681 181.618C248.592 181.489 248.511 181.355 248.438 181.218C248.383 181.131 248.328 181.045 248.281 180.959C248.234 180.872 248.171 180.739 248.108 180.629C248.045 180.519 248.006 180.425 247.959 180.323C247.912 180.221 247.857 180.119 247.81 180.009L247.574 179.444C247.48 179.209 247.394 178.973 247.315 178.73C247.237 178.487 247.151 178.251 247.088 178.008C249.36 177.423 251.538 176.517 253.554 175.316C267.366 167.343 279.043 147.128 279.043 131.174C279.063 128.842 278.762 126.518 278.148 124.268C279.238 124.001 280.354 123.862 281.476 123.852C281.914 123.854 282.351 123.88 282.786 123.931L283.194 123.994C286.035 127.321 286.451 132.681 286.451 135.529Z" fill="white"/>
</svg>
